<?xml version="1.0" encoding="iso-8859-1"?>
<!-- Generator: Adobe Illustrator 21.0.0, SVG Export Plug-In . SVG Version: 6.00 Build 0)  -->
<svg version="1.1" xmlns="http://www.w3.org/2000/svg" xmlns:xlink="http://www.w3.org/1999/xlink" x="0px" y="0px"
	 viewBox="0 0 44 44" style="enable-background:new 0 0 44 44;" xml:space="preserve">
<g id="page_x5F_settings">
</g>
<g id="pc_x5F_report">
</g>
<g id="chat">
</g>
<g id="marketing">
</g>
<g id="analytics">
</g>
<g id="search_1_">
</g>
<g id="funnel">
</g>
<g id="tag">
</g>
<g id="eye_x5F_tracking">
</g>
<g id="report">
</g>
<g id="localisation">
</g>
<g id="mobile">
</g>
<g id="intenet">
</g>
<g id="pie_x5F_chart">
</g>
<g id="page_x5F_search">
</g>
<g id="code">
</g>
<g id="code_x5F_check">
</g>
<g id="link">
</g>
<g id="monetisation">
</g>
<g id="connection">
</g>
<g id="server">
</g>
<g id="white_x5F_hat">
</g>
<g id="ppk">
</g>
<g id="page_x5F_test">
</g>
<g id="money">
</g>
<g id="page_x5F_quality">
</g>
<g id="page_x5F_speed">
</g>
<g id="money_x5F_bag">
</g>
<g id="trolley">
</g>
<g id="adaptive">
	<g>
		<path style="fill:#EBEEF7;" d="M42,28H4v5c0,0.551,0.449,1,1,1h36c0.551,0,1-0.449,1-1V28z"/>
		<path style="fill:#70B6E4;" d="M42,5c0-0.551-0.449-1-1-1H5C4.449,4,4,4.449,4,5v21h38V5z"/>
		<path style="fill:#EBEEF7;" d="M20,36v3c0,0.351-0.061,0.687-0.171,1h6.343C26.061,39.687,26,39.351,26,39v-3H20z"/>
		<path style="fill:#004463;" d="M41,2H5C3.346,2,2,3.346,2,5v28c0,1.654,1.346,3,3,3h13v3c0,0.551-0.449,1-1,1h-1
			c-0.552,0-1,0.448-1,1s0.448,1,1,1h14c0.552,0,1-0.448,1-1s-0.448-1-1-1h-1c-0.551,0-1-0.449-1-1v-3h13c1.654,0,3-1.346,3-3V5
			C44,3.346,42.654,2,41,2z M4,5c0-0.551,0.449-1,1-1h36c0.551,0,1,0.449,1,1v21H4V5z M26.171,40h-6.343
			C19.939,39.687,20,39.351,20,39v-3h6v3C26,39.351,26.061,39.687,26.171,40z M42,33c0,0.551-0.449,1-1,1H27h-8H5
			c-0.551,0-1-0.449-1-1v-5h38V33z"/>
		<g>
			<path style="fill:#CCD9E4;" d="M26,39v-2v-1h-1.171H20v1h3.829c0.552,0,1,0.448,1,1v1c0,0.351,0.061,0.688,0.171,1h1.171
				C26.061,39.688,26,39.351,26,39z"/>
		</g>
		<g>
			<circle style="fill:#004463;" cx="23" cy="31" r="1"/>
		</g>
		<path style="fill:#4C9BD5;" d="M15,16h-2c1.657,0,3,1.343,3,3v7h2v-7C18,17.343,16.657,16,15,16z"/>
		<g>
			<path style="fill:#EBEEF7;" d="M3,40h10c0.551,0,1-0.449,1-1V19c0-0.551-0.449-1-1-1H3c-0.551,0-1,0.449-1,1v20
				C2,39.551,2.449,40,3,40z"/>
			<g>
				<circle style="fill:#004463;" cx="8" cy="38" r="1"/>
			</g>
			<g>
				<path style="fill:#004463;" d="M10,21H6c-0.552,0-1-0.448-1-1s0.448-1,1-1h4c0.552,0,1,0.448,1,1S10.552,21,10,21z"/>
			</g>
			<g>
				<rect x="2" y="24" style="fill:#70B6E4;" width="12" height="10"/>
				<path style="fill:#004463;" d="M13,16H3c-1.654,0-3,1.346-3,3v20c0,1.654,1.346,3,3,3h10c1.654,0,3-1.346,3-3V19
					C16,17.346,14.654,16,13,16z M3,18h10c0.551,0,1,0.449,1,1v3H2v-3C2,18.449,2.449,18,3,18z M14,34H2V24h12V34z M13,40H3
					c-0.551,0-1-0.449-1-1v-3h12v3C14,39.551,13.551,40,13,40z"/>
			</g>
		</g>
		<g>
			<path style="fill:#ACD6F2;" d="M39.5,11c-0.256,0-0.512-0.098-0.707-0.293l-3-3c-0.391-0.391-0.391-1.023,0-1.414
				s1.023-0.391,1.414,0l3,3c0.391,0.391,0.391,1.023,0,1.414C40.012,10.902,39.756,11,39.5,11z"/>
		</g>
		<g>
			<path style="fill:#ACD6F2;" d="M39,15.5c-0.256,0-0.512-0.098-0.707-0.293l-7-7c-0.391-0.391-0.391-1.023,0-1.414
				s1.023-0.391,1.414,0l7,7c0.391,0.391,0.391,1.023,0,1.414C39.512,15.402,39.256,15.5,39,15.5z"/>
		</g>
		<path style="fill:#CCD9E4;" d="M41,28v4c0,0.552-0.448,1-1,1H19c-0.552,0-1-0.448-1-1v-4h-2v5v1h25c0.552,0,1-0.448,1-1v-5H41z"/>
	</g>
</g>
<g id="console">
</g>
<g id="briefcase">
</g>
<g id="cloud">
</g>
<g id="chess">
</g>
<g id="stopwatch">
</g>
<g id="test">
</g>
<g id="user">
</g>
<g id="social">
</g>
<g id="like">
</g>
<g id="crown">
</g>
<g id="target">
</g>
<g id="images">
</g>
<g id="calendar">
</g>
<g id="newspaper">
</g>
<g id="pencil">
</g>
<g id="email">
</g>
<g id="rocket">
</g>
<g id="trophy">
</g>
<g id="shop">
</g>
<g id="support">
</g>
</svg>
