<?xml version="1.0" encoding="iso-8859-1"?>
<!-- Generator: Adobe Illustrator 21.0.0, SVG Export Plug-In . SVG Version: 6.00 Build 0)  -->
<svg version="1.1" xmlns="http://www.w3.org/2000/svg" xmlns:xlink="http://www.w3.org/1999/xlink" x="0px" y="0px"
	 viewBox="0 0 44 44" style="enable-background:new 0 0 44 44;" xml:space="preserve">
<g id="page_x5F_settings">
</g>
<g id="pc_x5F_report">
</g>
<g id="chat">
</g>
<g id="marketing">
</g>
<g id="analytics">
	<g>
		<path style="fill:#EBEEF7;" d="M18,9c-0.871,0-1.671-0.365-2.235-1H11v30h14.34c0.792,0,1.565-0.32,2.123-0.877l4.66-4.66
			C32.68,31.905,33,31.132,33,30.34V8h-4.765C27.671,8.635,26.871,9,26,9H18z"/>
		<path style="fill:#D88A36;" d="M8,42h28c0.551,0,1-0.449,1-1V5c0-0.551-0.449-1-1-1h-7v2h5c0.552,0,1,0.448,1,1v23.343
			c0,1.335-0.52,2.591-1.464,3.535l-4.657,4.657C27.934,39.48,26.679,40,25.343,40H10c-0.552,0-1-0.448-1-1V7c0-0.552,0.448-1,1-1h5
			V4H8C7.449,4,7,4.449,7,5v36C7,41.551,7.449,42,8,42z"/>
		<path style="fill:#B0C4D8;" d="M17,4v2c0,0.173,0.047,0.348,0.133,0.495C17.318,6.812,17.642,7,18,7h8
			c0.358,0,0.682-0.188,0.866-0.504C26.953,6.348,27,6.173,27,6V4h-3c-0.552,0-1-0.448-1-1c0-0.551-0.449-1-1-1
			c-0.267,0-0.513,0.102-0.694,0.288C21.102,2.487,21,2.733,21,3c0,0.552-0.448,1-1,1H17z"/>
		<path style="fill:#004463;" d="M36,2h-8h-3.171C24.416,0.836,23.304,0,22,0c-0.811,0-1.565,0.317-2.108,0.874
			C19.563,1.194,19.319,1.578,19.169,2H16H8C6.346,2,5,3.346,5,5v36c0,1.654,1.346,3,3,3h28c1.654,0,3-1.346,3-3V5
			C39,3.346,37.654,2,36,2z M31,31h-4c-0.552,0-1,0.448-1,1v4c0,1.103-0.897,2-2,2H11V8h4.788C16.351,8.627,17.135,9,18,9h8
			c0.866,0,1.65-0.373,2.212-1H33v21C33,30.103,32.103,31,31,31z M31.586,33L28,36.586V33H31.586z M20,4c0.552,0,1-0.448,1-1
			c0-0.267,0.102-0.513,0.306-0.712C21.487,2.102,21.733,2,22,2c0.551,0,1,0.449,1,1c0,0.552,0.448,1,1,1h3v2
			c0,0.173-0.047,0.348-0.134,0.496C26.682,6.812,26.358,7,26,7h-8c-0.358,0-0.682-0.188-0.867-0.505C17.047,6.348,17,6.173,17,6V4
			H20z M37,41c0,0.551-0.449,1-1,1H8c-0.551,0-1-0.449-1-1V5c0-0.551,0.449-1,1-1h7v2h-5C9.448,6,9,6.448,9,7v32
			c0,0.552,0.448,1,1,1h15.343c1.335,0,2.591-0.52,3.535-1.464l4.657-4.657C34.48,32.934,35,31.679,35,30.343V7c0-0.552-0.448-1-1-1
			h-5V4h7c0.551,0,1,0.449,1,1V41z"/>
		<g>
			<path style="fill:#C77629;" d="M28.877,38.537C27.947,39.467,26.658,40,25.34,40h3.832c0.53,0,1.039-0.211,1.414-0.586
				l3.828-3.828C34.789,35.211,35,34.702,35,34.172V30.34c0,1.318-0.533,2.607-1.463,3.537L28.877,38.537z"/>
		</g>
		<g>
			<rect x="29" y="4" style="fill:#C77629;" width="1" height="2"/>
		</g>
		<g>
			<path style="fill:#70B6E4;" d="M22,13c-3.314,0-6,2.686-6,6s2.686,6,6,6s6-2.686,6-6h-6V13z"/>
		</g>
		<g>
			<path style="fill:#F16A56;" d="M23,12v6h6C29,14.686,26.314,12,23,12z"/>
		</g>
		<g>
			<path style="fill:#004463;" d="M24,31h-6c-0.552,0-1-0.448-1-1s0.448-1,1-1h6c0.552,0,1,0.448,1,1S24.552,31,24,31z"/>
		</g>
		<g>
			<path style="fill:#004463;" d="M22,34h-4c-0.552,0-1-0.448-1-1s0.448-1,1-1h4c0.552,0,1,0.448,1,1S22.552,34,22,34z"/>
		</g>
		<g>
			<circle style="fill:#70B6E4;" cx="15" cy="30" r="1"/>
		</g>
		<g>
			<circle style="fill:#F16A56;" cx="15" cy="33" r="1"/>
		</g>
	</g>
</g>
<g id="search_1_">
</g>
<g id="funnel">
</g>
<g id="tag">
</g>
<g id="eye_x5F_tracking">
</g>
<g id="report">
</g>
<g id="localisation">
</g>
<g id="mobile">
</g>
<g id="intenet">
</g>
<g id="pie_x5F_chart">
</g>
<g id="page_x5F_search">
</g>
<g id="code">
</g>
<g id="code_x5F_check">
</g>
<g id="link">
</g>
<g id="monetisation">
</g>
<g id="connection">
</g>
<g id="server">
</g>
<g id="white_x5F_hat">
</g>
<g id="ppk">
</g>
<g id="page_x5F_test">
</g>
<g id="money">
</g>
<g id="page_x5F_quality">
</g>
<g id="page_x5F_speed">
</g>
<g id="money_x5F_bag">
</g>
<g id="trolley">
</g>
<g id="adaptive">
</g>
<g id="console">
</g>
<g id="briefcase">
</g>
<g id="cloud">
</g>
<g id="chess">
</g>
<g id="stopwatch">
</g>
<g id="test">
</g>
<g id="user">
</g>
<g id="social">
</g>
<g id="like">
</g>
<g id="crown">
</g>
<g id="target">
</g>
<g id="images">
</g>
<g id="calendar">
</g>
<g id="newspaper">
</g>
<g id="pencil">
</g>
<g id="email">
</g>
<g id="rocket">
</g>
<g id="trophy">
</g>
<g id="shop">
</g>
<g id="support">
</g>
</svg>
