<?xml version="1.0" encoding="iso-8859-1"?>
<!-- Generator: Adobe Illustrator 21.0.0, SVG Export Plug-In . SVG Version: 6.00 Build 0)  -->
<svg version="1.1" xmlns="http://www.w3.org/2000/svg" xmlns:xlink="http://www.w3.org/1999/xlink" x="0px" y="0px"
	 viewBox="0 0 44 44" style="enable-background:new 0 0 44 44;" xml:space="preserve">
<g id="page_x5F_settings">
</g>
<g id="pc_x5F_report">
</g>
<g id="chat">
</g>
<g id="marketing">
</g>
<g id="analytics">
</g>
<g id="search_1_">
</g>
<g id="funnel">
</g>
<g id="tag">
</g>
<g id="eye_x5F_tracking">
</g>
<g id="report">
</g>
<g id="localisation">
</g>
<g id="mobile">
</g>
<g id="intenet">
</g>
<g id="pie_x5F_chart">
</g>
<g id="page_x5F_search">
</g>
<g id="code">
</g>
<g id="code_x5F_check">
</g>
<g id="link">
</g>
<g id="monetisation">
</g>
<g id="connection">
</g>
<g id="server">
</g>
<g id="white_x5F_hat">
</g>
<g id="ppk">
</g>
<g id="page_x5F_test">
</g>
<g id="money">
</g>
<g id="page_x5F_quality">
</g>
<g id="page_x5F_speed">
</g>
<g id="money_x5F_bag">
</g>
<g id="trolley">
</g>
<g id="adaptive">
</g>
<g id="console">
</g>
<g id="briefcase">
</g>
<g id="cloud">
</g>
<g id="chess">
</g>
<g id="stopwatch">
</g>
<g id="test">
</g>
<g id="user">
</g>
<g id="social">
</g>
<g id="like">
</g>
<g id="crown">
</g>
<g id="target">
</g>
<g id="images">
</g>
<g id="calendar">
	<g>
		<path style="fill:#AFC3D7;" d="M42,15H2v24c0,0.552,0.449,1,1,1h38c0.551,0,1-0.448,1-1V15z"/>
		<path style="fill:#EBEEF7;" d="M7,36h23.343c0.79,0,1.562-0.32,2.121-0.879l4.657-4.657C37.68,29.906,38,29.133,38,28.343V15H6v20
			C6,35.552,6.449,36,7,36z"/>
		<path style="fill:#70B6E4;" d="M42,7c0-0.551-0.449-1-1-1H3C2.449,6,2,6.449,2,7v6h40V7z"/>
		<g>
			<path style="fill:#4C9BD5;" d="M41,6h-1v3c0,1.105-0.895,2-2,2H4c-1.105,0-2,0.895-2,2v0h40V7C42,6.448,41.552,6,41,6z"/>
		</g>
		<g>
			<circle style="fill:#004463;" cx="18" cy="21" r="2"/>
		</g>
		<g>
			<circle style="fill:#004463;" cx="26" cy="21" r="2"/>
		</g>
		<g>
			<circle style="fill:#004463;" cx="34" cy="21" r="2"/>
		</g>
		<g>
			<circle style="fill:#004463;" cx="10" cy="29" r="2"/>
		</g>
		<g>
			<circle style="fill:#004463;" cx="18" cy="29" r="2"/>
		</g>
		<g>
			<circle style="fill:#EF4B4D;" cx="26" cy="29" r="2"/>
		</g>
		<path style="fill:#004463;" d="M39,13H5c-0.552,0-1,0.448-1,1v21c0,1.654,1.346,3,3,3h23.343c1.335,0,2.591-0.521,3.535-1.465
			l4.657-4.657C39.48,30.934,40,29.679,40,28.343V14C40,13.448,39.552,13,39,13z M6,35V15h32v12c0,1.103-0.897,2-2,2h-2
			c-1.654,0-3,1.346-3,3v2c0,1.103-0.897,2-2,2H7C6.449,36,6,35.552,6,35z M33,34.586V32c0-0.551,0.449-1,1-1h2.586L33,34.586z"/>
		<g>
			<rect x="6" y="15" style="fill:#C3D6E4;" width="32" height="2"/>
		</g>
		<g>
			<polygon style="fill:#4C9BD5;" points="15,9 14,9 14,6 16,6 			"/>
		</g>
		<g>
			<polygon style="fill:#4C9BD5;" points="33,9 32,9 32,6 34,6 			"/>
		</g>
		<path style="fill:#004463;" d="M41,4h-9V3c0-0.552-0.448-1-1-1s-1,0.448-1,1v1H14V3c0-0.552-0.448-1-1-1s-1,0.448-1,1v1H3
			C1.346,4,0,5.346,0,7v32c0,1.654,1.346,3,3,3h38c1.654,0,3-1.346,3-3V7C44,5.346,42.654,4,41,4z M42,39c0,0.552-0.449,1-1,1H3
			c-0.551,0-1-0.448-1-1V15h40V39z M42,13H2V7c0-0.551,0.449-1,1-1h9v1.278C11.405,7.625,11,8.262,11,9c0,1.105,0.897,2,2.001,2
			C14.105,11,15,10.105,15,9c0-0.739-0.405-1.377-1-1.723V6h16v1.278C29.405,7.625,29,8.262,29,9c0,1.105,0.897,2,2.001,2
			C32.105,11,33,10.105,33,9c0-0.739-0.405-1.377-1-1.723V6h9c0.551,0,1,0.449,1,1V13z"/>
		<g>
			<path style="fill:#97B3CC;" d="M33.877,36.537C32.947,37.467,31.658,38,30.34,38h3.832c0.53,0,1.039-0.211,1.414-0.586
				l3.828-3.828C39.789,33.211,40,32.702,40,32.172V28.34c0,1.318-0.533,2.607-1.463,3.537L33.877,36.537z"/>
		</g>
		<g>
			<rect x="40" y="15" style="fill:#97B3CC;" width="2" height="2"/>
		</g>
		<g>
			<rect x="2" y="15" style="fill:#97B3CC;" width="2" height="2"/>
		</g>
	</g>
</g>
<g id="newspaper">
</g>
<g id="pencil">
</g>
<g id="email">
</g>
<g id="rocket">
</g>
<g id="trophy">
</g>
<g id="shop">
</g>
<g id="support">
</g>
</svg>
