<?xml version="1.0" encoding="iso-8859-1"?>
<!-- Generator: Adobe Illustrator 21.0.0, SVG Export Plug-In . SVG Version: 6.00 Build 0)  -->
<svg version="1.1" xmlns="http://www.w3.org/2000/svg" xmlns:xlink="http://www.w3.org/1999/xlink" x="0px" y="0px"
	 viewBox="0 0 44 44" style="enable-background:new 0 0 44 44;" xml:space="preserve">
<g id="page_x5F_settings">
</g>
<g id="pc_x5F_report">
</g>
<g id="chat">
	<g>
		<path style="fill:#EBEEF7;" d="M12.333,28H31c0.551,0,1-0.449,1-1V9c0-0.551-0.449-1-1-1H3C2.449,8,2,8.449,2,9v24.5
			c0,0.384,0.489,0.632,0.801,0.399L9.333,29C10.192,28.355,11.258,28,12.333,28z"/>
		<path style="fill:#004463;" d="M2.5,36C1.122,36,0,34.879,0,33.5V9c0-1.654,1.346-3,3-3h28c1.654,0,3,1.346,3,3v18
			c0,1.654-1.346,3-3,3H12.333c-0.646,0-1.285,0.213-1.8,0.6L4,35.5C3.569,35.823,3.037,36,2.5,36z M3,8C2.449,8,2,8.449,2,9v24.5
			c0,0.384,0.489,0.632,0.801,0.399L9.333,29c0.859-0.645,1.925-1,3-1H31c0.551,0,1-0.449,1-1V9c0-0.551-0.449-1-1-1H3z"/>
		<g>
			<path style="fill:#CCD9E4;" d="M31,8h-1v17.012c0,0.552-0.448,1-1,1H10.333c-1.075,0-2.141,0.355-2.999,1L2,31.012V33.5
				c0,0.383,0.492,0.63,0.802,0.399L9.334,29c0.858-0.645,1.924-1,2.999-1H31c0.552,0,1-0.448,1-1V9C32,8.448,31.552,8,31,8z"/>
		</g>
		<path style="fill:#8EC861;" d="M25,32h8.789c0.991,0,1.95,0.29,2.774,0.84l4.605,3.07C41.502,36.132,42,35.865,42,35.465V21
			c0-0.551-0.449-1-1-1H25c-0.551,0-1,0.449-1,1v10C24,31.552,24.449,32,25,32z"/>
		<path style="fill:#004463;" d="M41.465,38c-0.502,0-0.988-0.147-1.406-0.426l-4.605-3.07C34.959,34.174,34.384,34,33.789,34H25
			c-1.654,0-3-1.346-3-3V21c0-1.654,1.346-3,3-3h16c1.654,0,3,1.346,3,3v14.465C44,36.862,42.863,38,41.465,38z M25,20
			c-0.551,0-1,0.449-1,1v10c0,0.552,0.449,1,1,1h8.789c0.991,0,1.95,0.29,2.774,0.84l4.605,3.07C41.502,36.132,42,35.865,42,35.465
			V21c0-0.551-0.449-1-1-1H25z"/>
		<g>
			<path style="fill:#70B856;" d="M41,20h-1v11.688c0,0.56-0.625,0.893-1.09,0.582l-2.137-1.431
				c-0.819-0.548-1.783-0.841-2.768-0.84L24,30.01V31c0,0.552,0.448,1,1,1h8.789c0.987,0,1.952,0.292,2.773,0.84l4.606,3.071
				C41.524,36.147,42,35.892,42,35.465V21C42,20.448,41.552,20,41,20z"/>
		</g>
		<g>
			<circle style="fill:#004463;" cx="33" cy="26" r="1"/>
		</g>
		<g>
			<circle style="fill:#004463;" cx="17" cy="18" r="2"/>
		</g>
		<g>
			<circle style="fill:#004463;" cx="10" cy="18" r="2"/>
		</g>
		<g>
			<circle style="fill:#004463;" cx="24" cy="18" r="2"/>
		</g>
		<g>
			<circle style="fill:#004463;" cx="29" cy="26" r="1"/>
		</g>
		<g>
			<circle style="fill:#004463;" cx="37" cy="26" r="1"/>
		</g>
	</g>
</g>
<g id="marketing">
</g>
<g id="analytics">
</g>
<g id="search_1_">
</g>
<g id="funnel">
</g>
<g id="tag">
</g>
<g id="eye_x5F_tracking">
</g>
<g id="report">
</g>
<g id="localisation">
</g>
<g id="mobile">
</g>
<g id="intenet">
</g>
<g id="pie_x5F_chart">
</g>
<g id="page_x5F_search">
</g>
<g id="code">
</g>
<g id="code_x5F_check">
</g>
<g id="link">
</g>
<g id="monetisation">
</g>
<g id="connection">
</g>
<g id="server">
</g>
<g id="white_x5F_hat">
</g>
<g id="ppk">
</g>
<g id="page_x5F_test">
</g>
<g id="money">
</g>
<g id="page_x5F_quality">
</g>
<g id="page_x5F_speed">
</g>
<g id="money_x5F_bag">
</g>
<g id="trolley">
</g>
<g id="adaptive">
</g>
<g id="console">
</g>
<g id="briefcase">
</g>
<g id="cloud">
</g>
<g id="chess">
</g>
<g id="stopwatch">
</g>
<g id="test">
</g>
<g id="user">
</g>
<g id="social">
</g>
<g id="like">
</g>
<g id="crown">
</g>
<g id="target">
</g>
<g id="images">
</g>
<g id="calendar">
</g>
<g id="newspaper">
</g>
<g id="pencil">
</g>
<g id="email">
</g>
<g id="rocket">
</g>
<g id="trophy">
</g>
<g id="shop">
</g>
<g id="support">
</g>
</svg>
