<?xml version="1.0" encoding="iso-8859-1"?>
<!-- Generator: Adobe Illustrator 21.0.0, SVG Export Plug-In . SVG Version: 6.00 Build 0)  -->
<svg version="1.1" xmlns="http://www.w3.org/2000/svg" xmlns:xlink="http://www.w3.org/1999/xlink" x="0px" y="0px"
	 viewBox="0 0 44 44" style="enable-background:new 0 0 44 44;" xml:space="preserve">
<g id="page_x5F_settings">
</g>
<g id="pc_x5F_report">
</g>
<g id="chat">
</g>
<g id="marketing">
</g>
<g id="analytics">
</g>
<g id="search_1_">
</g>
<g id="funnel">
</g>
<g id="tag">
</g>
<g id="eye_x5F_tracking">
</g>
<g id="report">
</g>
<g id="localisation">
</g>
<g id="mobile">
</g>
<g id="intenet">
</g>
<g id="pie_x5F_chart">
</g>
<g id="page_x5F_search">
</g>
<g id="code">
</g>
<g id="code_x5F_check">
</g>
<g id="link">
</g>
<g id="monetisation">
</g>
<g id="connection">
</g>
<g id="server">
</g>
<g id="white_x5F_hat">
</g>
<g id="ppk">
</g>
<g id="page_x5F_test">
</g>
<g id="money">
</g>
<g id="page_x5F_quality">
</g>
<g id="page_x5F_speed">
</g>
<g id="money_x5F_bag">
</g>
<g id="trolley">
</g>
<g id="adaptive">
</g>
<g id="console">
</g>
<g id="briefcase">
</g>
<g id="cloud">
</g>
<g id="chess">
	<g>
		<path style="fill:#AFC3D7;" d="M35,41c0-0.551-0.449-1-1-1H10c-0.551,0-1,0.449-1,1v1h26V41z"/>
		<path style="fill:#AFC3D7;" d="M15.5,16h13l1.9-2.533c0.387-0.516,0.6-1.155,0.6-1.8V3c0-0.551-0.449-1-1-1s-1,0.449-1,1v2
			c0,1.654-1.346,3-3,3s-3-1.346-3-3V3c0-0.551-0.449-1-1-1s-1,0.449-1,1v2c0,1.654-1.346,3-3,3s-3-1.346-3-3V3c0-0.551-0.449-1-1-1
			s-1,0.449-1,1v8.667c0,0.645,0.213,1.285,0.6,1.801L15.5,16z"/>
		<path style="fill:#AFC3D7;" d="M15.997,18c-0.059,10.348-1.063,15.553-4.025,20h20.056c-2.961-4.447-3.966-9.652-4.025-20H15.997z
			"/>
		<g>
			<path style="fill:#90ABC2;" d="M23,5V3c0-0.552-0.448-1-1-1v4c0,1.105,0.895,2,2,2h2C24.343,8,23,6.657,23,5z"/>
		</g>
		<g>
			<path style="fill:#90ABC2;" d="M15,5V3c0-0.552-0.448-1-1-1v4c0,1.105,0.895,2,2,2h2C16.343,8,15,6.657,15,5z"/>
		</g>
		<g>
			<path style="fill:#90ABC2;" d="M31,12h-2l0,0c0.64-0.64,1-1.509,1-2.414V2c0.552,0,1,0.448,1,1V12z"/>
		</g>
		<g>
			<polygon style="fill:#90ABC2;" points="28,14 26.5,16 28.5,16 30,14 			"/>
		</g>
		<g>
			<path style="fill:#90ABC2;" d="M32.027,38c-2.763-4.151-3.822-8.965-3.999-18l0,0c-0.013-0.646-0.022-1.31-0.025-2h-2.027h-9.979
				c-0.004,0.69-0.013,1.354-0.025,2h8.086c1.076,0,1.957,0.858,1.997,1.933C26.343,29.742,27.441,34.156,30,38H32.027z"/>
		</g>
		<g>
			<rect x="9" y="41" style="fill:#90ABC2;" width="26" height="1"/>
		</g>
		<path style="fill:#004463;" d="M34.537,38.054c-3.43-4.451-4.513-9.437-4.535-20.724L32,14.667c0.645-0.86,1-1.925,1-3V3
			c0-1.654-1.346-3-3-3s-3,1.346-3,3v2c0,0.551-0.449,1-1,1s-1-0.449-1-1V3c0-1.654-1.346-3-3-3s-3,1.346-3,3v2c0,0.551-0.449,1-1,1
			s-1-0.449-1-1V3c0-1.654-1.346-3-3-3s-3,1.346-3,3v8.667c0,1.075,0.355,2.14,1,3l1.998,2.664
			c-0.021,11.286-1.105,16.272-4.535,20.724C8.065,38.309,7,39.529,7,41v2c0,0.552,0.448,1,1,1h28c0.552,0,1-0.448,1-1v-2
			C37,39.529,35.935,38.309,34.537,38.054z M14,14H30l-1.5,2h-13L14,14z M13,11.667V3c0-0.551,0.449-1,1-1s1,0.449,1,1v2
			c0,1.654,1.346,3,3,3s3-1.346,3-3V3c0-0.551,0.449-1,1-1s1,0.449,1,1v2c0,1.654,1.346,3,3,3s3-1.346,3-3V3c0-0.551,0.449-1,1-1
			s1,0.449,1,1v8.667c0,0.112-0.015,0.223-0.027,0.333H13.027C13.015,11.889,13,11.778,13,11.667z M15.997,18h12.006
			c0.059,10.348,1.063,15.553,4.025,20H11.972C14.934,33.553,15.938,28.348,15.997,18z M35,42H9v-1c0-0.551,0.449-1,1-1h24
			c0.551,0,1,0.449,1,1V42z"/>
	</g>
</g>
<g id="stopwatch">
</g>
<g id="test">
</g>
<g id="user">
</g>
<g id="social">
</g>
<g id="like">
</g>
<g id="crown">
</g>
<g id="target">
</g>
<g id="images">
</g>
<g id="calendar">
</g>
<g id="newspaper">
</g>
<g id="pencil">
</g>
<g id="email">
</g>
<g id="rocket">
</g>
<g id="trophy">
</g>
<g id="shop">
</g>
<g id="support">
</g>
</svg>
