<?xml version="1.0" encoding="iso-8859-1"?>
<!-- Generator: Adobe Illustrator 21.0.0, SVG Export Plug-In . SVG Version: 6.00 Build 0)  -->
<svg version="1.1" xmlns="http://www.w3.org/2000/svg" xmlns:xlink="http://www.w3.org/1999/xlink" x="0px" y="0px"
	 viewBox="0 0 44 44" style="enable-background:new 0 0 44 44;" xml:space="preserve">
<g id="page_x5F_settings">
</g>
<g id="pc_x5F_report">
</g>
<g id="chat">
</g>
<g id="marketing">
</g>
<g id="analytics">
</g>
<g id="search_1_">
</g>
<g id="funnel">
</g>
<g id="tag">
</g>
<g id="eye_x5F_tracking">
</g>
<g id="report">
</g>
<g id="localisation">
</g>
<g id="mobile">
</g>
<g id="intenet">
</g>
<g id="pie_x5F_chart">
</g>
<g id="page_x5F_search">
</g>
<g id="code">
</g>
<g id="code_x5F_check">
	<g>
		<path style="fill:#EBEEF7;" d="M42,8H2v27c0,0.551,0.449,1,1,1h38c0.551,0,1-0.449,1-1V8z"/>
		<path style="fill:#AFC3D7;" d="M42,3c0-0.551-0.449-1-1-1H3C2.449,2,2,2.449,2,3v3h40V3z"/>
		<path style="fill:#004463;" d="M41,0H3C1.346,0,0,1.346,0,3v32c0,1.654,1.346,3,3,3h38c1.654,0,3-1.346,3-3V3
			C44,1.346,42.654,0,41,0z M2,3c0-0.551,0.449-1,1-1h38c0.551,0,1,0.449,1,1v3H2V3z M42,35c0,0.551-0.449,1-1,1H3
			c-0.551,0-1-0.449-1-1V8h40V35z"/>
		<g>
			<circle style="fill:#004463;" cx="5" cy="4" r="1"/>
		</g>
		<g>
			<circle style="fill:#004463;" cx="9" cy="4" r="1"/>
		</g>
		<g>
			<circle style="fill:#004463;" cx="13" cy="4" r="1"/>
		</g>
		<g>
			<path style="fill:#004463;" d="M28,28c-0.256,0-0.512-0.098-0.707-0.293c-0.391-0.391-0.391-1.023,0-1.414L30.586,23
				C30.849,22.737,31,22.372,31,22s-0.151-0.737-0.414-1l-3.293-3.293c-0.391-0.391-0.391-1.023,0-1.414s1.023-0.391,1.414,0
				L32,19.586c0.645,0.645,1,1.502,1,2.414s-0.355,1.77-1,2.414l-3.293,3.293C28.512,27.902,28.256,28,28,28z"/>
		</g>
		<g>
			<path style="fill:#004463;" d="M16,28c-0.256,0-0.512-0.098-0.707-0.293L12,24.414c-0.645-0.645-1-1.502-1-2.414
				s0.355-1.77,1-2.414l3.293-3.293c0.391-0.391,1.023-0.391,1.414,0s0.391,1.023,0,1.414L13.414,21C13.151,21.263,13,21.628,13,22
				s0.151,0.737,0.414,1l3.293,3.293c0.391,0.391,0.391,1.023,0,1.414C16.512,27.902,16.256,28,16,28z"/>
		</g>
		<g>
			<path style="fill:#004463;" d="M20,30c-0.091,0-0.184-0.013-0.275-0.039c-0.531-0.152-0.838-0.705-0.687-1.236l4-14
				c0.152-0.53,0.705-0.838,1.236-0.687c0.531,0.152,0.838,0.705,0.687,1.236l-4,14C20.836,29.714,20.436,30,20,30z"/>
		</g>
		<g>
			<circle style="fill:#8EC861;" cx="35" cy="35" r="7"/>
			<path style="fill:#004463;" d="M35,44c-4.962,0-9-4.038-9-9s4.038-9,9-9s9,4.038,9,9S39.962,44,35,44z M35,28c-3.86,0-7,3.14-7,7
				s3.14,7,7,7s7-3.14,7-7S38.86,28,35,28z"/>
		</g>
		<g>
			<path style="fill:#FFFFFF;" d="M34,38c-0.256,0-0.512-0.098-0.707-0.293l-2-2c-0.391-0.391-0.391-1.023,0-1.414
				s1.023-0.391,1.414,0L34,35.586l3.293-3.293c0.391-0.391,1.023-0.391,1.414,0s0.391,1.023,0,1.414l-4,4
				C34.512,37.902,34.256,38,34,38z"/>
		</g>
	</g>
</g>
<g id="link">
</g>
<g id="monetisation">
</g>
<g id="connection">
</g>
<g id="server">
</g>
<g id="white_x5F_hat">
</g>
<g id="ppk">
</g>
<g id="page_x5F_test">
</g>
<g id="money">
</g>
<g id="page_x5F_quality">
</g>
<g id="page_x5F_speed">
</g>
<g id="money_x5F_bag">
</g>
<g id="trolley">
</g>
<g id="adaptive">
</g>
<g id="console">
</g>
<g id="briefcase">
</g>
<g id="cloud">
</g>
<g id="chess">
</g>
<g id="stopwatch">
</g>
<g id="test">
</g>
<g id="user">
</g>
<g id="social">
</g>
<g id="like">
</g>
<g id="crown">
</g>
<g id="target">
</g>
<g id="images">
</g>
<g id="calendar">
</g>
<g id="newspaper">
</g>
<g id="pencil">
</g>
<g id="email">
</g>
<g id="rocket">
</g>
<g id="trophy">
</g>
<g id="shop">
</g>
<g id="support">
</g>
</svg>
