<?xml version="1.0" encoding="iso-8859-1"?>
<!-- Generator: Adobe Illustrator 21.0.0, SVG Export Plug-In . SVG Version: 6.00 Build 0)  -->
<svg version="1.1" xmlns="http://www.w3.org/2000/svg" xmlns:xlink="http://www.w3.org/1999/xlink" x="0px" y="0px"
	 viewBox="0 0 44 44" style="enable-background:new 0 0 44 44;" xml:space="preserve">
<g id="page_x5F_settings">
</g>
<g id="pc_x5F_report">
</g>
<g id="chat">
</g>
<g id="marketing">
</g>
<g id="analytics">
</g>
<g id="search_1_">
</g>
<g id="funnel">
</g>
<g id="tag">
</g>
<g id="eye_x5F_tracking">
</g>
<g id="report">
</g>
<g id="localisation">
</g>
<g id="mobile">
</g>
<g id="intenet">
</g>
<g id="pie_x5F_chart">
</g>
<g id="page_x5F_search">
</g>
<g id="code">
	<g>
		<path style="fill:#EBEEF7;" d="M42,11H2v27c0,0.551,0.449,1,1,1h38c0.551,0,1-0.449,1-1V11z"/>
		<path style="fill:#AFC3D7;" d="M42,6c0-0.551-0.449-1-1-1H3C2.449,5,2,5.449,2,6v3h40V6z"/>
		<path style="fill:#004463;" d="M41,3H3C1.346,3,0,4.346,0,6v32c0,1.654,1.346,3,3,3h38c1.654,0,3-1.346,3-3V6
			C44,4.346,42.654,3,41,3z M2,6c0-0.551,0.449-1,1-1h38c0.551,0,1,0.449,1,1v3H2V6z M42,38c0,0.551-0.449,1-1,1H3
			c-0.551,0-1-0.449-1-1V11h40V38z"/>
		<g>
			<circle style="fill:#004463;" cx="5" cy="7" r="1"/>
		</g>
		<g>
			<circle style="fill:#004463;" cx="9" cy="7" r="1"/>
		</g>
		<g>
			<circle style="fill:#004463;" cx="13" cy="7" r="1"/>
		</g>
		<g>
			<path style="fill:#004463;" d="M28,31c-0.256,0-0.512-0.098-0.707-0.293c-0.391-0.391-0.391-1.023,0-1.414L30.586,26
				C30.849,25.737,31,25.372,31,25s-0.151-0.737-0.414-1l-3.293-3.293c-0.391-0.391-0.391-1.023,0-1.414s1.023-0.391,1.414,0
				L32,22.586c0.645,0.645,1,1.502,1,2.414s-0.355,1.77-1,2.414l-3.293,3.293C28.512,30.902,28.256,31,28,31z"/>
		</g>
		<g>
			<path style="fill:#004463;" d="M16,31c-0.256,0-0.512-0.098-0.707-0.293L12,27.414c-0.645-0.645-1-1.502-1-2.414
				s0.355-1.77,1-2.414l3.293-3.293c0.391-0.391,1.023-0.391,1.414,0s0.391,1.023,0,1.414L13.414,24C13.151,24.263,13,24.628,13,25
				s0.151,0.737,0.414,1l3.293,3.293c0.391,0.391,0.391,1.023,0,1.414C16.512,30.902,16.256,31,16,31z"/>
		</g>
		<g>
			<path style="fill:#004463;" d="M20,33c-0.091,0-0.184-0.013-0.275-0.039c-0.531-0.152-0.838-0.705-0.687-1.236l4-14
				c0.152-0.53,0.705-0.838,1.236-0.687c0.531,0.152,0.838,0.705,0.687,1.236l-4,14C20.836,32.714,20.436,33,20,33z"/>
		</g>
	</g>
</g>
<g id="code_x5F_check">
</g>
<g id="link">
</g>
<g id="monetisation">
</g>
<g id="connection">
</g>
<g id="server">
</g>
<g id="white_x5F_hat">
</g>
<g id="ppk">
</g>
<g id="page_x5F_test">
</g>
<g id="money">
</g>
<g id="page_x5F_quality">
</g>
<g id="page_x5F_speed">
</g>
<g id="money_x5F_bag">
</g>
<g id="trolley">
</g>
<g id="adaptive">
</g>
<g id="console">
</g>
<g id="briefcase">
</g>
<g id="cloud">
</g>
<g id="chess">
</g>
<g id="stopwatch">
</g>
<g id="test">
</g>
<g id="user">
</g>
<g id="social">
</g>
<g id="like">
</g>
<g id="crown">
</g>
<g id="target">
</g>
<g id="images">
</g>
<g id="calendar">
</g>
<g id="newspaper">
</g>
<g id="pencil">
</g>
<g id="email">
</g>
<g id="rocket">
</g>
<g id="trophy">
</g>
<g id="shop">
</g>
<g id="support">
</g>
</svg>
