<?xml version="1.0" encoding="iso-8859-1"?>
<!-- Generator: Adobe Illustrator 21.0.0, SVG Export Plug-In . SVG Version: 6.00 Build 0)  -->
<svg version="1.1" xmlns="http://www.w3.org/2000/svg" xmlns:xlink="http://www.w3.org/1999/xlink" x="0px" y="0px"
	 viewBox="0 0 44 44" style="enable-background:new 0 0 44 44;" xml:space="preserve">
<g id="page_x5F_settings">
</g>
<g id="pc_x5F_report">
</g>
<g id="chat">
</g>
<g id="marketing">
</g>
<g id="analytics">
</g>
<g id="search_1_">
</g>
<g id="funnel">
</g>
<g id="tag">
</g>
<g id="eye_x5F_tracking">
</g>
<g id="report">
</g>
<g id="localisation">
</g>
<g id="mobile">
</g>
<g id="intenet">
</g>
<g id="pie_x5F_chart">
</g>
<g id="page_x5F_search">
</g>
<g id="code">
</g>
<g id="code_x5F_check">
</g>
<g id="link">
</g>
<g id="monetisation">
</g>
<g id="connection">
</g>
<g id="server">
</g>
<g id="white_x5F_hat">
</g>
<g id="ppk">
</g>
<g id="page_x5F_test">
</g>
<g id="money">
</g>
<g id="page_x5F_quality">
</g>
<g id="page_x5F_speed">
</g>
<g id="money_x5F_bag">
</g>
<g id="trolley">
</g>
<g id="adaptive">
</g>
<g id="console">
</g>
<g id="briefcase">
</g>
<g id="cloud">
</g>
<g id="chess">
</g>
<g id="stopwatch">
</g>
<g id="test">
</g>
<g id="user">
</g>
<g id="social">
</g>
<g id="like">
</g>
<g id="crown">
	<g>
		<path style="fill:#FFC95C;" d="M3,37h38c0.551,0,1-0.449,1-1v-2c0-0.551-0.449-1-1-1H3c-0.551,0-1,0.449-1,1v2
			C2,36.551,2.449,37,3,37z"/>
		<path style="fill:#FFC95C;" d="M13.913,23c-1.529,0-2.967-0.814-3.754-2.125L5.434,13H5v6.919C5,23.618,5.287,27.341,5.852,31
			h32.296C38.713,27.34,39,23.617,39,19.919L39,13h-0.434l-4.725,7.875C33.055,22.186,31.616,23,30.087,23
			c-1.669,0-3.169-0.927-3.916-2.42L22.382,13h-0.765l-3.79,7.58C17.082,22.073,15.582,23,13.913,23z"/>
		<g>
			<g>
				<path style="fill:#F4B344;" d="M28.088,23c0.34,0,0.675-0.046,1-0.124c-1.251-0.291-2.323-1.11-2.916-2.296L22.382,13H22
					l2.172,7.58C24.918,22.073,26.419,23,28.088,23z"/>
			</g>
			<g>
				<path style="fill:#F4B344;" d="M11.912,23c0.343,0,0.676-0.048,1-0.124c-1.135-0.27-2.142-0.982-2.754-2.001L5.434,13H5
					l3.158,7.875C8.946,22.186,10.385,23,11.912,23z"/>
			</g>
		</g>
		<g>
			<g>
				<path style="fill:#F4B344;" d="M38.618,13L38.618,13c-1.047,2.094-1.631,4.388-1.712,6.727
					c-0.043,1.253-0.101,2.564-0.174,3.412C36.496,25.88,34.228,28,31.478,28H8.394c-1.58,0-2.788,1.409-2.546,2.97L5.853,31h32.295
					C38.714,27.343,39,23.619,39,19.919V13H38.618z"/>
			</g>
		</g>
		<circle style="fill:#EBEEF7;" cx="22" cy="9" r="2"/>
		<circle style="fill:#EBEEF7;" cx="5" cy="9" r="2"/>
		<circle style="fill:#EBEEF7;" cx="39" cy="9" r="2"/>
		<g>
			<path style="fill:#CCD9E4;" d="M39.82,7.18C39.933,7.431,40,7.707,40,8c0,1.105-0.895,2-2,2c-0.293,0-0.569-0.067-0.82-0.18
				C37.493,10.515,38.189,11,39,11c1.105,0,2-0.895,2-2C41,8.188,40.515,7.493,39.82,7.18z"/>
		</g>
		<g>
			<path style="fill:#CCD9E4;" d="M22.82,7.18C22.933,7.431,23,7.707,23,8c0,1.105-0.895,2-2,2c-0.293,0-0.569-0.067-0.82-0.18
				C20.493,10.515,21.189,11,22,11c1.105,0,2-0.895,2-2C24,8.188,23.515,7.493,22.82,7.18z"/>
		</g>
		<g>
			<path style="fill:#CCD9E4;" d="M5.82,7.18C5.933,7.431,6,7.707,6,8c0,1.105-0.895,2-2,2c-0.293,0-0.569-0.067-0.82-0.18
				C3.493,10.515,4.189,11,5,11c1.105,0,2-0.895,2-2C7,8.188,6.515,7.493,5.82,7.18z"/>
		</g>
		<g>
			<path style="fill:#F4B344;" d="M41,33h-2v1c0,1.105-0.895,2-2,2H2c0,0.551,0.448,1,1,1h38c0.552,0,1-0.448,1-1v-2
				C42,33.448,41.552,33,41,33z"/>
		</g>
		<path style="fill:#EF4C4E;" d="M16.037,19.686l2.275-4.543c-2.992,0.236-5.828,0.757-8.338,1.533l1.906,3.169
			C12.306,20.558,13.084,21,13.913,21C14.821,21,15.635,20.497,16.037,19.686z"/>
		<g>
			<path style="fill:#DB3440;" d="M16.037,17.686c-0.44,0.886-1.371,1.405-2.379,1.301c-0.773-0.079-1.441-0.582-1.841-1.247
				l-0.82-1.362c-0.345,0.094-0.69,0.194-1.024,0.298l1.843,3.064c0.442,0.754,1.068,1.168,1.841,1.247
				c1.008,0.104,1.94-0.415,2.379-1.301l2.275-4.543c-0.004,0-0.007,0.001-0.011,0.001c-0.802,0.052-1.527,0.485-1.798,1.242
				L16.037,17.686z"/>
		</g>
		<path style="fill:#EF4C4E;" d="M25.688,15.142l2.273,4.54C28.365,20.497,29.179,21,30.087,21c0.828,0,1.606-0.442,2.032-1.153
			l1.908-3.171C31.516,15.899,28.68,15.378,25.688,15.142z"/>
		<g>
			<path style="fill:#DB3440;" d="M27.963,17.686c0.44,0.886,1.371,1.405,2.379,1.301c0.773-0.079,1.441-0.582,1.841-1.247
				l0.819-1.362c0.345,0.094,0.691,0.195,1.024,0.298l-1.843,3.064c-0.391,0.729-1.068,1.168-1.841,1.247
				c-1.008,0.104-1.94-0.415-2.379-1.301l-2.275-4.543c0.004,0,0.007,0.001,0.011,0.001c0.802,0.052,1.527,0.485,1.798,1.242
				L27.963,17.686z"/>
		</g>
		<path style="fill:#004463;" d="M41,31h-0.844C40.707,27.337,41,23.617,41,19.919l0-7.476c1.19-0.694,2-1.97,2-3.443
			c0-2.206-1.794-4-4-4s-4,1.794-4,4c0,1.341,0.669,2.523,1.684,3.249l-1.602,2.67c-3.093-1.008-6.666-1.639-10.425-1.842
			l-0.393-0.786C25.311,11.569,26,10.365,26,9c0-2.206-1.794-4-4-4s-4,1.794-4,4c0,1.365,0.689,2.569,1.736,3.292l-0.393,0.786
			c-3.759,0.203-7.332,0.834-10.425,1.842l-1.602-2.67C8.331,11.523,9,10.341,9,9c0-2.206-1.794-4-4-4S1,6.794,1,9
			c0,1.474,0.81,2.75,2,3.444v7.475C3,23.618,3.294,27.337,3.844,31H3c-1.654,0-3,1.346-3,3v2c0,1.654,1.346,3,3,3h38
			c1.654,0,3-1.346,3-3v-2C44,32.346,42.654,31,41,31z M39,7c1.103,0,2,0.897,2,2s-0.897,2-2,2s-2-0.897-2-2S37.897,7,39,7z
			 M34.026,16.675v0.004l-1.9,3.167C31.699,20.558,30.918,21,30.087,21c-0.906,0-1.721-0.503-2.126-1.314l-2.271-4.543
			C28.681,15.378,31.517,15.899,34.026,16.675z M22,7c1.103,0,2,0.897,2,2s-0.897,2-2,2s-2-0.897-2-2S20.897,7,22,7z M9.974,16.675
			c2.51-0.776,5.346-1.297,8.337-1.533l-2.271,4.543C15.634,20.497,14.819,21,13.913,21c-0.831,0-1.612-0.442-2.039-1.154
			l-1.9-3.167V16.675z M5,7c1.103,0,2,0.897,2,2s-0.897,2-2,2s-2-0.897-2-2S3.897,7,5,7z M5.434,13l4.725,7.875
			C10.945,22.186,12.384,23,13.913,23c1.669,0,3.169-0.927,3.916-2.42l3.79-7.58h0.765l3.79,7.58c0.747,1.493,2.247,2.42,3.916,2.42
			c1.529,0,2.967-0.814,3.754-2.125L38.566,13H39l0,6.919c0,3.698-0.287,7.421-0.852,11.081H5.852C5.287,27.341,5,23.618,5,19.919
			V13H5.434z M42,36c0,0.551-0.449,1-1,1H3c-0.551,0-1-0.449-1-1v-2c0-0.551,0.449-1,1-1h38c0.551,0,1,0.449,1,1V36z"/>
	</g>
</g>
<g id="target">
</g>
<g id="images">
</g>
<g id="calendar">
</g>
<g id="newspaper">
</g>
<g id="pencil">
</g>
<g id="email">
</g>
<g id="rocket">
</g>
<g id="trophy">
</g>
<g id="shop">
</g>
<g id="support">
</g>
</svg>
