<?xml version="1.0" encoding="iso-8859-1"?>
<!-- Generator: Adobe Illustrator 21.0.0, SVG Export Plug-In . SVG Version: 6.00 Build 0)  -->
<svg version="1.1" xmlns="http://www.w3.org/2000/svg" xmlns:xlink="http://www.w3.org/1999/xlink" x="0px" y="0px"
	 viewBox="0 0 44 44" style="enable-background:new 0 0 44 44;" xml:space="preserve">
<g id="page_x5F_settings">
</g>
<g id="pc_x5F_report">
</g>
<g id="chat">
</g>
<g id="marketing">
</g>
<g id="analytics">
</g>
<g id="search_1_">
</g>
<g id="funnel">
</g>
<g id="tag">
</g>
<g id="eye_x5F_tracking">
</g>
<g id="report">
</g>
<g id="localisation">
</g>
<g id="mobile">
</g>
<g id="intenet">
</g>
<g id="pie_x5F_chart">
</g>
<g id="page_x5F_search">
</g>
<g id="code">
</g>
<g id="code_x5F_check">
</g>
<g id="link">
</g>
<g id="monetisation">
</g>
<g id="connection">
</g>
<g id="server">
</g>
<g id="white_x5F_hat">
</g>
<g id="ppk">
</g>
<g id="page_x5F_test">
</g>
<g id="money">
</g>
<g id="page_x5F_quality">
</g>
<g id="page_x5F_speed">
</g>
<g id="money_x5F_bag">
</g>
<g id="trolley">
</g>
<g id="adaptive">
</g>
<g id="console">
</g>
<g id="briefcase">
</g>
<g id="cloud">
</g>
<g id="chess">
</g>
<g id="stopwatch">
</g>
<g id="test">
</g>
<g id="user">
</g>
<g id="social">
</g>
<g id="like">
</g>
<g id="crown">
</g>
<g id="target">
</g>
<g id="images">
</g>
<g id="calendar">
</g>
<g id="newspaper">
</g>
<g id="pencil">
</g>
<g id="email">
	<g>
		<g>
			<path style="fill:#FFC95C;" d="M25.173,31.684c-1.837,1.513-4.509,1.513-6.349-0.002L2,17.776V41
				c0,0.358,0.188,0.682,0.504,0.866C2.652,41.953,2.827,42,3,42h38c0.173,0,0.348-0.047,0.495-0.133C41.812,41.682,42,41.358,42,41
				V17.776L25.173,31.684z"/>
			<g>
				<path style="fill:#F4B344;" d="M40,19.43v19.794c0,0.358-0.188,0.683-0.506,0.867c-0.146,0.086-0.321,0.133-0.494,0.133H2V41
					c0,0.358,0.188,0.683,0.505,0.867C2.651,41.953,2.827,42,3,42h38c0.173,0,0.349-0.047,0.494-0.133
					C41.812,41.683,42,41.358,42,41V17.776L40,19.43z"/>
			</g>
			<path style="fill:#F09820;" d="M2.493,15.59L8,20.137V11.95l-4.598,2.739C3.042,14.914,2.729,15.225,2.493,15.59z"/>
			<path style="fill:#F09820;" d="M36,12.04v8.104l5.497-4.546c-0.24-0.408-0.506-0.662-0.92-0.922L36,12.04z"/>
			<path style="fill:#EBEEF7;" d="M23.905,30.138L34,21.798V3c0-0.551-0.449-1-1-1H11c-0.551,0-1,0.449-1,1v18.79l10.097,8.349
				C21.199,31.046,22.801,31.045,23.905,30.138z"/>
			<g>
				<path style="fill:#C3D6E4;" d="M20.097,28.139L10,21.79l10.097,8.349c1.101,0.907,2.703,0.908,3.808,0L34,21.798
					c0,0-7.678,4.597-10.096,6.34C22.744,28.975,21.197,29.046,20.097,28.139z"/>
			</g>
			<g>
				<polygon style="fill:#E68724;" points="38,13.192 36,12.04 36,20.144 38,18.49 				"/>
			</g>
			<g>
				<path style="fill:#C87629;" d="M35,39c-1.654,0-3-1.346-3-3s1.346-3,3-3s3,1.346,3,3S36.654,39,35,39z M35,35
					c-0.551,0-1,0.449-1,1s0.449,1,1,1s1-0.449,1-1S35.551,35,35,35z"/>
			</g>
			<g>
				<path style="fill:#C87629;" d="M30,36h-5c-0.552,0-1-0.448-1-1s0.448-1,1-1h5c0.552,0,1,0.448,1,1S30.552,36,30,36z"/>
			</g>
			<g>
				<path style="fill:#C87629;" d="M30,39h-7c-0.552,0-1-0.448-1-1s0.448-1,1-1h7c0.552,0,1,0.448,1,1S30.552,39,30,39z"/>
			</g>
			<path style="fill:#004463;" d="M43.68,15.493c-0.373-1.029-1.095-1.915-2.071-2.529L36,9.732V3c0-1.654-1.346-3-3-3H11
				C9.346,0,8,1.346,8,3v6.622l-5.639,3.359c-0.944,0.589-1.674,1.49-2.052,2.539C0.104,16.05,0,16.625,0,17.23V41
				c0,1.078,0.559,2.047,1.495,2.593C1.949,43.859,2.47,44,3,44h38c0.53,0,1.051-0.141,1.504-0.406C43.441,43.047,44,42.078,44,41
				V17.23C44,16.614,43.893,16.03,43.68,15.493z M40.577,14.676c0.378,0.238,0.685,0.559,0.92,0.922L36,20.144V12.04L40.577,14.676z
				 M10,3c0-0.551,0.449-1,1-1h22c0.551,0,1,0.449,1,1v18.798l-10.095,8.34c-1.104,0.907-2.706,0.908-3.808,0L10,21.79V3z
				 M3.402,14.689L8,11.95v8.188L2.493,15.59C2.729,15.225,3.042,14.914,3.402,14.689z M42,41c0,0.358-0.188,0.682-0.505,0.867
				C41.348,41.953,41.173,42,41,42H3c-0.173,0-0.348-0.047-0.496-0.134C2.188,41.682,2,41.358,2,41V17.776l16.825,13.906
				c1.839,1.515,4.511,1.515,6.349,0.002L42,17.776V41z"/>
		</g>
		<g>
			<path style="fill:#004463;" d="M31,7H20c-0.552,0-1-0.448-1-1s0.448-1,1-1h11c0.552,0,1,0.448,1,1S31.552,7,31,7z"/>
		</g>
		<g>
			<path style="fill:#004463;" d="M28,15H13c-0.552,0-1-0.448-1-1s0.448-1,1-1h15c0.552,0,1,0.448,1,1S28.552,15,28,15z"/>
		</g>
		<g>
			<path style="fill:#004463;" d="M24,19H13c-0.552,0-1-0.448-1-1s0.448-1,1-1h11c0.552,0,1,0.448,1,1S24.552,19,24,19z"/>
		</g>
		<g>
			<path style="fill:#004463;" d="M26,11h-6c-0.552,0-1-0.448-1-1s0.448-1,1-1h6c0.552,0,1,0.448,1,1S26.552,11,26,11z"/>
		</g>
		<g>
			<rect x="14" y="7" style="fill:#FFC95C;" width="2" height="2"/>
			<path style="fill:#004463;" d="M17,11h-4c-0.552,0-1-0.448-1-1V6c0-0.552,0.448-1,1-1h4c0.552,0,1,0.448,1,1v4
				C18,10.552,17.552,11,17,11z M14,9h2V7h-2V9z"/>
		</g>
	</g>
</g>
<g id="rocket">
</g>
<g id="trophy">
</g>
<g id="shop">
</g>
<g id="support">
</g>
</svg>
