<?xml version="1.0" encoding="iso-8859-1"?>
<!-- Generator: Adobe Illustrator 21.0.0, SVG Export Plug-In . SVG Version: 6.00 Build 0)  -->
<svg version="1.1" xmlns="http://www.w3.org/2000/svg" xmlns:xlink="http://www.w3.org/1999/xlink" x="0px" y="0px"
	 viewBox="0 0 44 44" style="enable-background:new 0 0 44 44;" xml:space="preserve">
<g id="page_x5F_settings">
</g>
<g id="pc_x5F_report">
</g>
<g id="chat">
</g>
<g id="marketing">
</g>
<g id="analytics">
</g>
<g id="search_1_">
</g>
<g id="funnel">
</g>
<g id="tag">
</g>
<g id="eye_x5F_tracking">
	<g>
		<path style="fill:#EBEEF7;" d="M42,11H2v27c0,0.551,0.449,1,1,1h38c0.551,0,1-0.449,1-1V11z"/>
		<path style="fill:#AFC3D7;" d="M42,6c0-0.551-0.449-1-1-1H3C2.449,5,2,5.449,2,6v3h40V6z"/>
		<path style="fill:#004463;" d="M41,3H3C1.346,3,0,4.346,0,6v32c0,1.654,1.346,3,3,3h38c1.654,0,3-1.346,3-3V6
			C44,4.346,42.654,3,41,3z M2,6c0-0.551,0.449-1,1-1h38c0.551,0,1,0.449,1,1v3H2V6z M42,38c0,0.551-0.449,1-1,1H3
			c-0.551,0-1-0.449-1-1V11h40V38z"/>
		<g>
			<circle style="fill:#004463;" cx="5" cy="7" r="1"/>
		</g>
		<g>
			<circle style="fill:#004463;" cx="9" cy="7" r="1"/>
		</g>
		<g>
			<circle style="fill:#004463;" cx="13" cy="7" r="1"/>
		</g>
		<path style="fill:#FFFFFF;" d="M22,19c-4.949,0-9.544,2.177-12.723,6c3.179,3.823,7.774,6,12.723,6s9.544-2.177,12.723-6
			C31.544,21.177,26.949,19,22,19z"/>
		<path style="fill:#004463;" d="M22,33c-5.835,0-11.228-2.695-14.796-7.396c-0.271-0.357-0.271-0.852,0-1.209
			C10.772,19.695,16.165,17,22,17s11.228,2.695,14.796,7.396c0.271,0.357,0.271,0.852,0,1.209C33.228,30.305,27.835,33,22,33z
			 M9.277,25c3.179,3.823,7.774,6,12.723,6s9.544-2.177,12.723-6c-3.179-3.823-7.774-6-12.723-6S12.456,21.177,9.277,25z"/>
		<g>
			<circle style="fill:#70B6E4;" cx="22" cy="25" r="4"/>
			<path style="fill:#004463;" d="M22,31c-3.309,0-6-2.691-6-6s2.691-6,6-6s6,2.691,6,6S25.309,31,22,31z M22,21
				c-2.206,0-4,1.794-4,4s1.794,4,4,4s4-1.794,4-4S24.206,21,22,21z"/>
		</g>
		<g>
			<circle style="fill:#004463;" cx="22" cy="25" r="2"/>
		</g>
	</g>
</g>
<g id="report">
</g>
<g id="localisation">
</g>
<g id="mobile">
</g>
<g id="intenet">
</g>
<g id="pie_x5F_chart">
</g>
<g id="page_x5F_search">
</g>
<g id="code">
</g>
<g id="code_x5F_check">
</g>
<g id="link">
</g>
<g id="monetisation">
</g>
<g id="connection">
</g>
<g id="server">
</g>
<g id="white_x5F_hat">
</g>
<g id="ppk">
</g>
<g id="page_x5F_test">
</g>
<g id="money">
</g>
<g id="page_x5F_quality">
</g>
<g id="page_x5F_speed">
</g>
<g id="money_x5F_bag">
</g>
<g id="trolley">
</g>
<g id="adaptive">
</g>
<g id="console">
</g>
<g id="briefcase">
</g>
<g id="cloud">
</g>
<g id="chess">
</g>
<g id="stopwatch">
</g>
<g id="test">
</g>
<g id="user">
</g>
<g id="social">
</g>
<g id="like">
</g>
<g id="crown">
</g>
<g id="target">
</g>
<g id="images">
</g>
<g id="calendar">
</g>
<g id="newspaper">
</g>
<g id="pencil">
</g>
<g id="email">
</g>
<g id="rocket">
</g>
<g id="trophy">
</g>
<g id="shop">
</g>
<g id="support">
</g>
</svg>
