<?xml version="1.0" encoding="iso-8859-1"?>
<!-- Generator: Adobe Illustrator 21.0.0, SVG Export Plug-In . SVG Version: 6.00 Build 0)  -->
<svg version="1.1" xmlns="http://www.w3.org/2000/svg" xmlns:xlink="http://www.w3.org/1999/xlink" x="0px" y="0px"
	 viewBox="0 0 44 44" style="enable-background:new 0 0 44 44;" xml:space="preserve">
<g id="page_x5F_settings">
</g>
<g id="pc_x5F_report">
</g>
<g id="chat">
</g>
<g id="marketing">
</g>
<g id="analytics">
</g>
<g id="search_1_">
</g>
<g id="funnel">
	<g>
		<path style="fill:#EBEEF7;" d="M10,17v2.343c0,1.061,0.421,2.078,1.172,2.828l6.657,6.657c0.75,0.75,1.172,1.768,1.172,2.828V43
			l6-2v-9.343c0-1.061,0.421-2.078,1.172-2.828l6.657-6.657c0.75-0.75,1.172-1.768,1.172-2.828V17H10z"/>
		<g>
			<path style="fill:#CCD9E4;" d="M30,18v0.863c0,0.728-0.289,1.427-0.804,1.941l-5.438,5.438C22.632,27.368,22,28.894,22,30.485
				v10.461l2-0.667v-8.622c0-1.326,0.527-2.599,1.465-3.536l6.656-6.656C32.684,20.902,33,20.139,33,19.343V18H30z"/>
		</g>
		<g>
			<circle style="fill:#FFC95C;" cx="16" cy="8" r="2"/>
			<path style="fill:#004463;" d="M16,12c-2.206,0-4-1.794-4-4s1.794-4,4-4s4,1.794,4,4S18.206,12,16,12z M16,6
				c-1.103,0-2,0.897-2,2s0.897,2,2,2s2-0.897,2-2S17.103,6,16,6z"/>
		</g>
		<g>
			<circle style="fill:#FFC95C;" cx="26" cy="4" r="2"/>
			<path style="fill:#004463;" d="M26,8c-2.206,0-4-1.794-4-4s1.794-4,4-4s4,1.794,4,4S28.206,8,26,8z M26,2c-1.103,0-2,0.897-2,2
				s0.897,2,2,2s2-0.897,2-2S27.103,2,26,2z"/>
		</g>
		<g>
			<circle style="fill:#FFC95C;" cx="25" cy="14" r="2"/>
			<path style="fill:#004463;" d="M25,18c-2.206,0-4-1.794-4-4s1.794-4,4-4s4,1.794,4,4S27.206,18,25,18z M25,12
				c-1.103,0-2,0.897-2,2s0.897,2,2,2s2-0.897,2-2S26.103,12,25,12z"/>
		</g>
		<path style="fill:#004463;" d="M34,16H10c-0.552,0-1,0.448-1,1v2.343c0,1.335,0.52,2.591,1.464,3.535l6.657,6.657
			C17.68,30.094,18,30.867,18,31.657V43c0,0.321,0.154,0.623,0.416,0.811C18.588,43.936,18.793,44,19,44
			c0.106,0,0.213-0.017,0.316-0.051l6-2C25.725,41.812,26,41.431,26,41v-9.343c0-0.79,0.32-1.562,0.878-2.121l6.657-6.657
			C34.48,21.934,35,20.679,35,19.343V17C35,16.448,34.552,16,34,16z M25.464,28.122C24.52,29.066,24,30.321,24,31.657v8.623
			l-4,1.333v-9.956c0-1.335-0.52-2.591-1.464-3.535l-6.657-6.657C11.32,20.906,11,20.133,11,19.343V18h22v1.343
			c0,0.222-0.031,0.441-0.08,0.657H16c-0.552,0-1,0.448-1,1s0.448,1,1,1h15.586L25.464,28.122z"/>
	</g>
</g>
<g id="tag">
</g>
<g id="eye_x5F_tracking">
</g>
<g id="report">
</g>
<g id="localisation">
</g>
<g id="mobile">
</g>
<g id="intenet">
</g>
<g id="pie_x5F_chart">
</g>
<g id="page_x5F_search">
</g>
<g id="code">
</g>
<g id="code_x5F_check">
</g>
<g id="link">
</g>
<g id="monetisation">
</g>
<g id="connection">
</g>
<g id="server">
</g>
<g id="white_x5F_hat">
</g>
<g id="ppk">
</g>
<g id="page_x5F_test">
</g>
<g id="money">
</g>
<g id="page_x5F_quality">
</g>
<g id="page_x5F_speed">
</g>
<g id="money_x5F_bag">
</g>
<g id="trolley">
</g>
<g id="adaptive">
</g>
<g id="console">
</g>
<g id="briefcase">
</g>
<g id="cloud">
</g>
<g id="chess">
</g>
<g id="stopwatch">
</g>
<g id="test">
</g>
<g id="user">
</g>
<g id="social">
</g>
<g id="like">
</g>
<g id="crown">
</g>
<g id="target">
</g>
<g id="images">
</g>
<g id="calendar">
</g>
<g id="newspaper">
</g>
<g id="pencil">
</g>
<g id="email">
</g>
<g id="rocket">
</g>
<g id="trophy">
</g>
<g id="shop">
</g>
<g id="support">
</g>
</svg>
