<?xml version="1.0" encoding="iso-8859-1"?>
<!-- Generator: Adobe Illustrator 21.0.0, SVG Export Plug-In . SVG Version: 6.00 Build 0)  -->
<svg version="1.1" xmlns="http://www.w3.org/2000/svg" xmlns:xlink="http://www.w3.org/1999/xlink" x="0px" y="0px"
	 viewBox="0 0 44 44" style="enable-background:new 0 0 44 44;" xml:space="preserve">
<g id="page_x5F_settings">
</g>
<g id="pc_x5F_report">
</g>
<g id="chat">
</g>
<g id="marketing">
</g>
<g id="analytics">
</g>
<g id="search_1_">
</g>
<g id="funnel">
</g>
<g id="tag">
</g>
<g id="eye_x5F_tracking">
</g>
<g id="report">
</g>
<g id="localisation">
</g>
<g id="mobile">
</g>
<g id="intenet">
</g>
<g id="pie_x5F_chart">
</g>
<g id="page_x5F_search">
</g>
<g id="code">
</g>
<g id="code_x5F_check">
</g>
<g id="link">
</g>
<g id="monetisation">
</g>
<g id="connection">
</g>
<g id="server">
</g>
<g id="white_x5F_hat">
</g>
<g id="ppk">
</g>
<g id="page_x5F_test">
</g>
<g id="money">
</g>
<g id="page_x5F_quality">
</g>
<g id="page_x5F_speed">
</g>
<g id="money_x5F_bag">
</g>
<g id="trolley">
</g>
<g id="adaptive">
</g>
<g id="console">
	<g>
		<path style="fill:#EBEEF7;" d="M34.132,13H9.868c-2.351,0-4.408,1.67-4.893,3.97L2.438,29.024C2.147,30.403,2,31.818,2,33.229
			C2,35.309,3.691,37,5.771,37c1.551,0,2.925-0.93,3.501-2.37l2.045-5.115C11.928,27.987,13.386,27,15.031,27h13.938
			c1.645,0,3.103,0.987,3.714,2.514l2.046,5.116c0.576,1.439,1.95,2.37,3.5,2.37C40.309,37,42,35.309,42,33.229
			c0-1.411-0.147-2.826-0.438-4.206L39.024,16.97C38.54,14.67,36.482,13,34.132,13z"/>
		<g>
			<g>
				<path style="fill:#CCD9E4;" d="M41.562,29.023L39.024,16.97c-0.4-1.9-1.879-3.375-3.704-3.829
					c0.846,0.703,1.466,1.699,1.704,2.829l2.538,12.053C39.853,29.406,40,30.821,40,32.229C40,34.309,38.309,36,36.229,36
					c-0.206,0-0.419-0.021-0.618-0.053C36.298,36.608,37.23,37,38.229,37C40.309,37,42,35.309,42,33.229
					C42,31.821,41.853,30.406,41.562,29.023z"/>
			</g>
			<g>
				<path style="fill:#CCD9E4;" d="M26.969,26H13.031c-1.646,0-3.104,0.987-3.714,2.514L7.271,33.63C6.694,35.07,5.32,36,3.771,36
					c-0.21,0-0.42-0.029-0.621-0.062C3.828,36.593,4.756,37,5.771,37c1.55,0,2.924-0.93,3.5-2.37l2.047-5.116
					C11.928,27.987,13.386,27,15.031,27h13.938c0.249,0,0.491,0.03,0.728,0.073C28.973,26.396,28.009,26,26.969,26z"/>
			</g>
		</g>
		<g>
			<circle style="fill:#004463;" cx="28" cy="20" r="1"/>
		</g>
		<g>
			<circle style="fill:#004463;" cx="34" cy="20" r="1"/>
		</g>
		<g>
			<circle style="fill:#004463;" cx="31" cy="23" r="1"/>
		</g>
		<g>
			<circle style="fill:#004463;" cx="31" cy="17" r="1"/>
		</g>
		<g>
			<path style="fill:#004463;" d="M16,19h-2v-2c0-0.552-0.448-1-1-1s-1,0.448-1,1v2h-2c-0.552,0-1,0.448-1,1c0,0.552,0.448,1,1,1h2
				v2c0,0.552,0.448,1,1,1s1-0.448,1-1v-2h2c0.552,0,1-0.448,1-1C17,19.448,16.552,19,16,19z"/>
		</g>
		<path style="fill:#004463;" d="M43.519,28.612l-2.538-12.054C40.304,13.337,37.423,11,34.132,11H24c0-0.552-0.448-1-1-1V8
			c0-0.551,0.449-1,1-1h3c0.552,0,1-0.448,1-1s-0.448-1-1-1h-3c-1.654,0-3,1.346-3,3v2c-0.552,0-1,0.448-1,1H9.868
			c-3.291,0-6.172,2.337-6.85,5.558L0.481,28.612C0.162,30.126,0,31.68,0,33.229C0,36.411,2.589,39,5.771,39
			c2.373,0,4.476-1.424,5.358-3.627l2.045-5.115C13.479,29.494,14.208,29,15.031,29h13.938c0.823,0,1.552,0.494,1.857,1.257
			l2.046,5.116C33.753,37.576,35.856,39,38.229,39C41.411,39,44,36.411,44,33.229C44,31.68,43.838,30.126,43.519,28.612z M38.229,37
			c-1.551,0-2.925-0.93-3.5-2.37l-2.046-5.116C32.072,27.987,30.614,27,28.969,27H15.031c-1.645,0-3.103,0.987-3.714,2.515
			L9.271,34.63C8.695,36.07,7.321,37,5.771,37C3.691,37,2,35.309,2,33.229c0-1.411,0.147-2.826,0.438-4.206L4.976,16.97
			C5.46,14.67,7.518,13,9.868,13h24.264c2.351,0,4.408,1.67,4.893,3.97l2.538,12.054C41.853,30.403,42,31.818,42,33.229
			C42,35.309,40.309,37,38.229,37z"/>
		<g>
			<circle style="fill:#AFC3D7;" cx="28" cy="28" r="1"/>
			<path style="fill:#004463;" d="M28,31c-1.654,0-3-1.346-3-3s1.346-3,3-3s3,1.346,3,3S29.654,31,28,31z M28,27
				c-0.551,0-1,0.449-1,1s0.449,1,1,1s1-0.449,1-1S28.551,27,28,27z"/>
		</g>
		<g>
			<circle style="fill:#AFC3D7;" cx="16" cy="28" r="1"/>
			<path style="fill:#004463;" d="M16,31c-1.654,0-3-1.346-3-3s1.346-3,3-3s3,1.346,3,3S17.654,31,16,31z M16,27
				c-0.551,0-1,0.449-1,1s0.449,1,1,1s1-0.449,1-1S16.551,27,16,27z"/>
		</g>
	</g>
</g>
<g id="briefcase">
</g>
<g id="cloud">
</g>
<g id="chess">
</g>
<g id="stopwatch">
</g>
<g id="test">
</g>
<g id="user">
</g>
<g id="social">
</g>
<g id="like">
</g>
<g id="crown">
</g>
<g id="target">
</g>
<g id="images">
</g>
<g id="calendar">
</g>
<g id="newspaper">
</g>
<g id="pencil">
</g>
<g id="email">
</g>
<g id="rocket">
</g>
<g id="trophy">
</g>
<g id="shop">
</g>
<g id="support">
</g>
</svg>
