<?xml version="1.0" encoding="iso-8859-1"?>
<!-- Generator: Adobe Illustrator 21.0.0, SVG Export Plug-In . SVG Version: 6.00 Build 0)  -->
<svg version="1.1" xmlns="http://www.w3.org/2000/svg" xmlns:xlink="http://www.w3.org/1999/xlink" x="0px" y="0px"
	 viewBox="0 0 44 44" style="enable-background:new 0 0 44 44;" xml:space="preserve">
<g id="page_x5F_settings">
</g>
<g id="pc_x5F_report">
</g>
<g id="chat">
</g>
<g id="marketing">
</g>
<g id="analytics">
</g>
<g id="search_1_">
</g>
<g id="funnel">
</g>
<g id="tag">
</g>
<g id="eye_x5F_tracking">
</g>
<g id="report">
</g>
<g id="localisation">
</g>
<g id="mobile">
</g>
<g id="intenet">
	<g>
		<path style="fill:#ACD6F2;" d="M41.974,20.98C41.441,10.424,32.686,2,22,2C10.972,2,2,10.972,2,22
			c0,10.686,8.424,19.441,18.98,19.974C19.046,39.397,18,36.28,18,33c0-8.271,6.729-15,15-15C36.28,18,39.397,19.046,41.974,20.98z"
			/>
		<g>
			<path style="fill:#004463;" d="M19,33H4c-0.552,0-1-0.448-1-1s0.448-1,1-1h15c0.552,0,0,0.448,0,1S19.552,33,19,33z"/>
		</g>
		<path style="fill:#FFC95C;" d="M39.826,31.475c-0.176-0.789-0.485-1.535-0.919-2.218c-0.488-0.767-0.365-1.799,0.292-2.455
			l0.166-0.166l-0.166,0.165c-0.658,0.657-1.69,0.779-2.456,0.292c-0.683-0.434-1.429-0.743-2.218-0.919
			C33.641,25.977,33,25.16,33,24.232c0,0.928-0.641,1.744-1.524,1.941c-0.79,0.176-1.536,0.485-2.219,0.919
			c-0.766,0.488-1.797,0.366-2.454-0.29l-0.167-0.168l0.167,0.167c0.656,0.655,0.779,1.688,0.291,2.455
			c-0.434,0.683-0.743,1.429-0.919,2.218C25.978,32.358,25.161,33,24.232,33c0.929,0,1.745,0.642,1.941,1.525
			c0.176,0.789,0.485,1.535,0.919,2.218c0.488,0.767,0.365,1.799-0.292,2.455l-0.166,0.166l0.166-0.165
			c0.388-0.387,0.906-0.589,1.423-0.589c0.36,0,0.719,0.098,1.033,0.297c0.683,0.434,1.429,0.743,2.218,0.919
			C32.359,40.023,33,40.84,33,41.768c0-0.928,0.641-1.744,1.524-1.941c0.79-0.176,1.536-0.485,2.219-0.919
			c0.766-0.487,1.798-0.364,2.454,0.29l0.167,0.168l-0.167-0.167c-0.656-0.655-0.779-1.688-0.291-2.455
			c0.434-0.683,0.743-1.429,0.919-2.218C40.022,33.642,40.839,33,41.768,33C40.839,33,40.022,32.358,39.826,31.475z M33,38
			c-2.757,0-5-2.243-5-5s2.243-5,5-5s5,2.243,5,5S35.757,38,33,38z"/>
		<path style="fill:#004463;" d="M33,44c-1.103,0-2-0.897-2-2v-0.232c-0.976-0.215-1.937-0.614-2.816-1.173l-0.132,0.183
			c-0.781,0.779-2.049,0.78-2.829,0.001c-0.78-0.78-0.78-2.049-0.001-2.829l0.167-0.167c-0.542-0.847-0.94-1.808-1.166-2.824L24,35
			c-1.103,0-2-0.897-2-2s0.897-2,2-2h0.232c0.215-0.976,0.614-1.937,1.173-2.816l-0.184-0.133c-0.779-0.78-0.779-2.049,0-2.828
			c0.779-0.78,2.049-0.779,2.828-0.001l0.167,0.168c0.846-0.543,1.807-0.941,2.823-1.167L31,24c0-1.103,0.897-2,2-2s2,0.897,2,2
			v0.232c0.976,0.215,1.937,0.614,2.816,1.173l0.132-0.183c0.78-0.78,2.049-0.781,2.829-0.001c0.78,0.78,0.78,2.049,0.001,2.829
			l-0.167,0.167c0.542,0.847,0.94,1.808,1.166,2.824L42,31c1.103,0,2,0.897,2,2s-0.897,2-2,2h-0.232
			c-0.215,0.976-0.614,1.937-1.173,2.816l0.184,0.133c0.779,0.78,0.779,2.049,0,2.828c-0.78,0.78-2.049,0.779-2.829,0.001
			l-0.167-0.168c-0.846,0.543-1.807,0.941-2.823,1.167L35,42C35,43.103,34.103,44,33,44z M28.224,38.61
			c0.36,0,0.719,0.098,1.033,0.297c0.683,0.434,1.429,0.743,2.218,0.919C32.359,40.023,33,40.84,33,41.768V42v-0.232
			c0-0.928,0.641-1.744,1.524-1.941c0.79-0.176,1.536-0.485,2.219-0.919c0.766-0.487,1.798-0.364,2.454,0.29l0.167,0.168
			l-0.167-0.167c-0.656-0.655-0.779-1.688-0.291-2.455c0.434-0.683,0.743-1.429,0.919-2.218C40.022,33.642,40.839,33,41.768,33H42
			h-0.232c-0.929,0-1.745-0.642-1.941-1.525c-0.176-0.789-0.485-1.535-0.919-2.218c-0.488-0.767-0.365-1.799,0.292-2.455
			l0.166-0.166l-0.166,0.165c-0.658,0.657-1.69,0.779-2.456,0.292c-0.683-0.434-1.429-0.743-2.218-0.919
			C33.641,25.977,33,25.16,33,24.232c0,0.928-0.641,1.744-1.524,1.941c-0.79,0.176-1.536,0.485-2.219,0.919
			c-0.766,0.488-1.797,0.366-2.454-0.29l-0.167-0.168l0.167,0.167c0.656,0.655,0.779,1.688,0.291,2.455
			c-0.434,0.683-0.743,1.429-0.919,2.218C25.978,32.358,25.161,33,24.232,33H24h0.232c0.929,0,1.745,0.642,1.941,1.525
			c0.176,0.789,0.485,1.535,0.919,2.218c0.488,0.767,0.365,1.799-0.292,2.455l-0.166,0.166l0.166-0.165
			C27.189,38.812,27.708,38.61,28.224,38.61z M33,38c-2.757,0-5-2.243-5-5s2.243-5,5-5s5,2.243,5,5S35.757,38,33,38z M33,30
			c-1.654,0-3,1.346-3,3s1.346,3,3,3s3-1.346,3-3S34.654,30,33,30z"/>
		<g>
			<g>
				<path style="fill:#70B6E4;" d="M37.957,18.856c1.454,0.51,2.803,1.236,4.013,2.142c-0.304-6.13-3.377-11.521-7.985-14.982
					C36.495,9.358,38,13.498,38,18C38,18.289,37.969,18.57,37.957,18.856z"/>
			</g>
			<g>
				<path style="fill:#70B6E4;" d="M18.856,37.957C18.57,37.969,18.289,38,18,38c-4.502,0-8.642-1.505-11.984-4.016
					c3.461,4.609,8.852,7.681,14.982,7.985C20.092,40.759,19.366,39.411,18.856,37.957z"/>
			</g>
		</g>
		<path style="fill:#004463;" d="M22,0C9.869,0,0,9.869,0,22s9.869,22,22,22c0.292,0,0.581-0.019,0.869-0.039l0.333-0.021
			c0.395-0.021,0.74-0.274,0.88-0.644c0.14-0.37,0.05-0.787-0.231-1.065C21.368,39.771,20,36.492,20,33c0-7.168,5.832-13,13-13
			c3.492,0,6.771,1.368,9.231,3.851c0.278,0.281,0.698,0.37,1.065,0.231c0.37-0.141,0.622-0.485,0.644-0.88l0.021-0.333
			C43.981,22.581,44,22.292,44,22C44,9.869,34.131,0,22,0z M38.688,11h-6.289c-1.04-3.364-2.539-6.137-4.349-8.053
			C32.447,4.347,36.189,7.228,38.688,11z M30.296,11H23V2.112C26.005,2.731,28.665,6.101,30.296,11z M21,2.105V11h-7.294
			C15.341,6.153,17.998,2.733,21,2.105z M2.041,21c0.142-2.866,0.884-5.574,2.113-8h6.867c-0.587,2.449-0.936,5.144-1.003,8H2.041z
			 M13.119,13H21v8h-8.974C12.101,18.151,12.485,15.439,13.119,13z M15.938,2.945c-1.824,1.923-3.33,4.702-4.371,8.055H5.322
			C7.818,7.231,11.546,4.346,15.938,2.945z M2.041,23h7.977c0.183,7.8,2.483,14.414,5.901,18.033
			C8.164,38.549,2.462,31.465,2.041,23z M20.906,41.867c-4.764-1.093-8.628-9.202-8.881-18.867H21v1.029
			c-1.879,2.503-3,5.606-3,8.971C18,36.236,19.022,39.31,20.906,41.867z M24.024,21H23v-8h7.888c0.402,1.577,0.707,3.273,0.89,5.062
			C28.885,18.297,26.222,19.355,24.024,21z M33.782,18.031c-0.173-1.772-0.463-3.45-0.841-5.031h6.899
			c1.229,2.421,1.99,5.118,2.134,7.98C39.603,19.201,36.774,18.184,33.782,18.031z"/>
	</g>
</g>
<g id="pie_x5F_chart">
</g>
<g id="page_x5F_search">
</g>
<g id="code">
</g>
<g id="code_x5F_check">
</g>
<g id="link">
</g>
<g id="monetisation">
</g>
<g id="connection">
</g>
<g id="server">
</g>
<g id="white_x5F_hat">
</g>
<g id="ppk">
</g>
<g id="page_x5F_test">
</g>
<g id="money">
</g>
<g id="page_x5F_quality">
</g>
<g id="page_x5F_speed">
</g>
<g id="money_x5F_bag">
</g>
<g id="trolley">
</g>
<g id="adaptive">
</g>
<g id="console">
</g>
<g id="briefcase">
</g>
<g id="cloud">
</g>
<g id="chess">
</g>
<g id="stopwatch">
</g>
<g id="test">
</g>
<g id="user">
</g>
<g id="social">
</g>
<g id="like">
</g>
<g id="crown">
</g>
<g id="target">
</g>
<g id="images">
</g>
<g id="calendar">
</g>
<g id="newspaper">
</g>
<g id="pencil">
</g>
<g id="email">
</g>
<g id="rocket">
</g>
<g id="trophy">
</g>
<g id="shop">
</g>
<g id="support">
</g>
</svg>
