<?xml version="1.0" encoding="iso-8859-1"?>
<!-- Generator: Adobe Illustrator 21.0.0, SVG Export Plug-In . SVG Version: 6.00 Build 0)  -->
<svg version="1.1" xmlns="http://www.w3.org/2000/svg" xmlns:xlink="http://www.w3.org/1999/xlink" x="0px" y="0px"
	 viewBox="0 0 44 44" style="enable-background:new 0 0 44 44;" xml:space="preserve">
<g id="page_x5F_settings">
</g>
<g id="pc_x5F_report">
</g>
<g id="chat">
</g>
<g id="marketing">
</g>
<g id="analytics">
</g>
<g id="search_1_">
</g>
<g id="funnel">
</g>
<g id="tag">
</g>
<g id="eye_x5F_tracking">
</g>
<g id="report">
</g>
<g id="localisation">
</g>
<g id="mobile">
</g>
<g id="intenet">
</g>
<g id="pie_x5F_chart">
</g>
<g id="page_x5F_search">
</g>
<g id="code">
</g>
<g id="code_x5F_check">
</g>
<g id="link">
</g>
<g id="monetisation">
</g>
<g id="connection">
</g>
<g id="server">
</g>
<g id="white_x5F_hat">
</g>
<g id="ppk">
</g>
<g id="page_x5F_test">
</g>
<g id="money">
</g>
<g id="page_x5F_quality">
</g>
<g id="page_x5F_speed">
</g>
<g id="money_x5F_bag">
</g>
<g id="trolley">
</g>
<g id="adaptive">
</g>
<g id="console">
</g>
<g id="briefcase">
</g>
<g id="cloud">
</g>
<g id="chess">
</g>
<g id="stopwatch">
</g>
<g id="test">
</g>
<g id="user">
</g>
<g id="social">
</g>
<g id="like">
	<g>
		<path style="fill:#EEC8AD;" d="M18.472,38.747l2.491,0.554C23.052,39.765,25.196,40,27.334,40h6.914
			c2.332,0,4.333-1.585,4.867-3.855l2.291-9.736C41.8,24.732,42,23.01,42,21.29V20c0-1.654-1.346-3-3-3H27
			c-0.321,0-0.623-0.154-0.811-0.416c-0.188-0.261-0.239-0.596-0.138-0.901l2.209-6.628C28.751,7.583,29,6.051,29,4.5
			C29,3.122,27.878,2,26.5,2S24,3.122,24,4.5c0,1.252-0.468,2.382-1.318,3.232c-2.547,2.547-4.559,5.518-5.978,8.829
			C16.07,18.042,14.618,19,13.005,19H11v19h0.666C13.95,38,16.24,38.251,18.472,38.747z"/>
		<g>
			<g>
				<path style="fill:#E1B597;" d="M41,17.761v0.529c0,1.723-0.2,3.445-0.595,5.119l-2.29,9.736C37.581,35.415,35.58,37,33.248,37
					h-6.914c-2.139,0-4.283-0.235-6.372-0.699l-2.49-0.554c-2.123-0.471-4.298-0.715-6.472-0.738V38h0.666
					c2.284,0,4.574,0.251,6.806,0.747l2.49,0.554C23.051,39.765,25.195,40,27.334,40h6.914c2.332,0,4.333-1.585,4.867-3.855
					l2.29-9.736C41.8,24.735,42,23.013,42,21.29V20C42,19.117,41.609,18.31,41,17.761z"/>
			</g>
		</g>
		<g>
			<rect x="2" y="18" style="fill:#EBEEF7;" width="8" height="24"/>
		</g>
		<g>
			<circle style="fill:#004463;" cx="6" cy="37" r="2"/>
		</g>
		<g>
			<rect x="2" y="40" style="fill:#CCD9E4;" width="8" height="2"/>
		</g>
		<g>
			<g>
				<path style="fill:#E1B597;" d="M27,4.5c0,1.553-0.249,3.085-0.739,4.556l-2.209,6.628c-0.103,0.305-0.051,0.64,0.137,0.901
					C24.377,16.846,24.679,17,25,17h2c-0.321,0-0.623-0.154-0.812-0.415c-0.188-0.261-0.239-0.596-0.137-0.901l2.209-6.628
					C28.751,7.585,29,6.053,29,4.5C29,3.122,27.879,2,26.5,2c-0.356,0-0.693,0.077-1,0.212C26.382,2.599,27,3.477,27,4.5z"/>
			</g>
		</g>
		<path style="fill:#004463;" d="M39,15H28.387l1.771-5.312C30.717,8.011,31,6.266,31,4.5C31,2.019,28.981,0,26.5,0
			S22,2.019,22,4.55c0,0.668-0.26,1.295-0.732,1.768c-2.728,2.728-4.882,5.909-6.401,9.455C14.547,16.519,13.816,17,13.005,17H12
			c0-0.552-0.448-1-1-1H1c-0.552,0-1,0.448-1,1v26c0,0.552,0.448,1,1,1h10c0.552,0,1-0.448,1-1v-2.991
			c2.028,0.023,4.057,0.25,6.038,0.69l2.491,0.554C22.76,41.749,25.05,42,27.334,42h6.914c3.264,0,6.066-2.219,6.814-5.397
			l2.291-9.736C43.782,25.041,44,23.164,44,21.29V20C44,17.243,41.757,15,39,15z M10,42H2V18h8V42z M42,21.29
			c0,1.72-0.2,3.442-0.594,5.119l-2.291,9.736C38.581,38.415,36.58,40,34.248,40h-6.914c-2.139,0-4.283-0.235-6.372-0.699
			l-2.491-0.554c-2.123-0.471-4.299-0.715-6.472-0.738V19h1.005c1.612,0,3.064-0.958,3.699-2.439
			c1.419-3.311,3.43-6.282,5.978-8.829C23.532,6.882,24,5.752,24,4.5C24,3.122,25.122,2,26.5,2S29,3.122,29,4.5
			c0,1.551-0.249,3.083-0.739,4.555l-2.209,6.628c-0.102,0.305-0.05,0.64,0.138,0.901C26.377,16.846,26.679,17,27,17h12
			c1.654,0,3,1.346,3,3V21.29z"/>
	</g>
</g>
<g id="crown">
</g>
<g id="target">
</g>
<g id="images">
</g>
<g id="calendar">
</g>
<g id="newspaper">
</g>
<g id="pencil">
</g>
<g id="email">
</g>
<g id="rocket">
</g>
<g id="trophy">
</g>
<g id="shop">
</g>
<g id="support">
</g>
</svg>
