<?xml version="1.0" encoding="iso-8859-1"?>
<!-- Generator: Adobe Illustrator 21.0.0, SVG Export Plug-In . SVG Version: 6.00 Build 0)  -->
<svg version="1.1" xmlns="http://www.w3.org/2000/svg" xmlns:xlink="http://www.w3.org/1999/xlink" x="0px" y="0px"
	 viewBox="0 0 44 44" style="enable-background:new 0 0 44 44;" xml:space="preserve">
<g id="page_x5F_settings">
</g>
<g id="pc_x5F_report">
</g>
<g id="chat">
</g>
<g id="marketing">
</g>
<g id="analytics">
</g>
<g id="search_1_">
</g>
<g id="funnel">
</g>
<g id="tag">
</g>
<g id="eye_x5F_tracking">
</g>
<g id="report">
</g>
<g id="localisation">
</g>
<g id="mobile">
</g>
<g id="intenet">
</g>
<g id="pie_x5F_chart">
</g>
<g id="page_x5F_search">
</g>
<g id="code">
</g>
<g id="code_x5F_check">
</g>
<g id="link">
	<g>
		<path style="fill:#D3E2EC;" d="M30,24c0-4.411-3.589-8-8-8s-8,3.589-8,8v10c0,4.411,3.589,8,8,8s8-3.589,8-8V24z M28,34
			c0,3.309-2.691,6-6,6s-6-2.691-6-6V24c0-3.309,2.691-6,6-6s6,2.691,6,6V34z"/>
		<path style="fill:#004463;" d="M22,44c-5.514,0-10-4.486-10-10V24c0-5.514,4.486-10,10-10s10,4.486,10,10v10
			C32,39.514,27.514,44,22,44z M22,16c-4.411,0-8,3.589-8,8v10c0,4.411,3.589,8,8,8s8-3.589,8-8V24C30,19.589,26.411,16,22,16z
			 M22,40c-3.309,0-6-2.691-6-6V24c0-3.309,2.691-6,6-6s6,2.691,6,6v10C28,37.309,25.309,40,22,40z M22,20c-2.206,0-4,1.794-4,4v10
			c0,2.206,1.794,4,4,4s4-1.794,4-4V24C26,21.794,24.206,20,22,20z"/>
		<path style="fill:#EBEEF7;" d="M30,10c0-4.411-3.589-8-8-8s-8,3.589-8,8v8c0.563-0.752,1.235-1.425,2-1.999V10
			c0-3.309,2.691-6,6-6s6,2.691,6,6v10c0,3.309-2.691,6-6,6c-1.505,0-2.92-0.564-4-1.533v2.461C19.213,27.631,20.586,28,22,28
			c4.411,0,8-3.589,8-8V10z"/>
		<path style="fill:#004463;" d="M22,30c-1.987,0-3.908-0.583-5.556-1.687C16.167,28.128,16,27.816,16,27.482V24
			c0-0.826,0.17-1.634,0.506-2.401C16.666,21.235,17.025,21,17.422,21l0,0c0.397,0,0.757,0.235,0.916,0.599
			C18.977,23.058,20.414,24,22,24c2.206,0,4-1.794,4-4V10c0-2.206-1.794-4-4-4s-4,1.794-4,4v6.518c0,0.333-0.167,0.646-0.444,0.831
			c-1.706,1.142-2.896,2.873-3.35,4.873C14.103,22.677,13.698,23,13.231,23c-0.467,0-0.872-0.323-0.975-0.778
			C12.086,21.475,12,20.728,12,20V10c0-5.514,4.486-10,10-10s10,4.486,10,10v10C32,25.514,27.514,30,22,30z M18,26.928
			C19.213,27.631,20.586,28,22,28c4.411,0,8-3.589,8-8V10c0-4.411-3.589-8-8-8s-8,3.589-8,8v8c0.563-0.752,1.235-1.425,2-1.999V10
			c0-3.309,2.691-6,6-6s6,2.691,6,6v10c0,3.309-2.691,6-6,6c-1.505,0-2.92-0.564-4-1.533V26.928z"/>
		<g>
			<path style="fill:#CCD9E4;" d="M20,27.743c-0.698-0.18-1.371-0.45-2-0.815v-2.46c0.581,0.521,1.263,0.912,2,1.174V27.743z"/>
		</g>
		<g>
			<g>
				<path style="fill:#AFC3D7;" d="M30,25.974v2.952c-0.614,0.551-1.282,1.039-2,1.455v-2.401
					C28.758,27.409,29.431,26.734,30,25.974z"/>
			</g>
		</g>
	</g>
</g>
<g id="monetisation">
</g>
<g id="connection">
</g>
<g id="server">
</g>
<g id="white_x5F_hat">
</g>
<g id="ppk">
</g>
<g id="page_x5F_test">
</g>
<g id="money">
</g>
<g id="page_x5F_quality">
</g>
<g id="page_x5F_speed">
</g>
<g id="money_x5F_bag">
</g>
<g id="trolley">
</g>
<g id="adaptive">
</g>
<g id="console">
</g>
<g id="briefcase">
</g>
<g id="cloud">
</g>
<g id="chess">
</g>
<g id="stopwatch">
</g>
<g id="test">
</g>
<g id="user">
</g>
<g id="social">
</g>
<g id="like">
</g>
<g id="crown">
</g>
<g id="target">
</g>
<g id="images">
</g>
<g id="calendar">
</g>
<g id="newspaper">
</g>
<g id="pencil">
</g>
<g id="email">
</g>
<g id="rocket">
</g>
<g id="trophy">
</g>
<g id="shop">
</g>
<g id="support">
</g>
</svg>
