<?xml version="1.0" encoding="iso-8859-1"?>
<!-- Generator: Adobe Illustrator 21.0.0, SVG Export Plug-In . SVG Version: 6.00 Build 0)  -->
<svg version="1.1" xmlns="http://www.w3.org/2000/svg" xmlns:xlink="http://www.w3.org/1999/xlink" x="0px" y="0px"
	 viewBox="0 0 44 44" style="enable-background:new 0 0 44 44;" xml:space="preserve">
<g id="page_x5F_settings">
</g>
<g id="pc_x5F_report">
</g>
<g id="chat">
</g>
<g id="marketing">
</g>
<g id="analytics">
</g>
<g id="search_1_">
</g>
<g id="funnel">
</g>
<g id="tag">
</g>
<g id="eye_x5F_tracking">
</g>
<g id="report">
</g>
<g id="localisation">
	<g>
		<path style="fill:#D3E2EC;" d="M22,36c-7.117,0-11,1.982-11,3c0,1.018,3.883,3,11,3s11-1.982,11-3C33,37.982,29.117,36,22,36z"/>
		<path style="fill:#004463;" d="M22,44c-6.46,0-13-1.717-13-5c0-3.283,6.54-5,13-5s13,1.717,13,5C35,42.283,28.46,44,22,44z M22,36
			c-7.117,0-11,1.982-11,3c0,1.018,3.883,3,11,3s11-1.982,11-3C33,37.982,29.117,36,22,36z"/>
		<g>
			<path style="fill:#AFC3D7;" d="M31.703,37.761C30.02,36.875,26.729,36,22,36v4L31.703,37.761z"/>
		</g>
		<path style="fill:#EF4C4E;" d="M35,15.05c0-3.682-1.535-7.173-4.212-9.631c-2.713-2.491-6.241-3.69-9.938-3.371
			C15.12,2.54,10.223,7.026,9.204,12.715c-0.167,0.928-0.231,1.869-0.194,2.796c0.077,1.915,0.734,3.896,1.9,5.732L21.307,37.62
			c0.303,0.477,1.082,0.477,1.385,0l10.589-16.678C34.402,19.178,34.996,17.141,35,15.05z M22,21c-3.309,0-6-2.691-6-6s2.691-6,6-6
			s6,2.691,6,6S25.308,21,22,21z"/>
		<path style="fill:#004463;" d="M22,40c-0.971,0-1.86-0.489-2.381-1.308L9.222,22.316c-1.354-2.132-2.118-4.457-2.209-6.723
			c-0.043-1.073,0.032-2.159,0.224-3.23C8.43,5.693,13.957,0.632,20.679,0.056l0,0c4.261-0.358,8.331,1.016,11.462,3.89
			C35.229,6.781,37,10.809,37,14.999c-0.005,2.524-0.707,4.931-2.03,7.015L24.381,38.692C23.86,39.511,22.971,40,22,40z
			 M20.849,2.049C15.12,2.54,10.223,7.026,9.204,12.715c-0.167,0.928-0.231,1.869-0.194,2.796c0.077,1.915,0.734,3.896,1.9,5.732
			L21.307,37.62c0.303,0.477,1.082,0.477,1.385,0l10.589-16.678c1.121-1.764,1.715-3.801,1.719-5.892
			c0-3.682-1.535-7.173-4.212-9.631C28.075,2.929,24.547,1.73,20.849,2.049L20.849,2.049z M20.764,1.052h0.01H20.764z M22,21
			c-3.309,0-6-2.691-6-6s2.691-6,6-6s6,2.691,6,6S25.308,21,22,21z M22,10.999c-2.206,0-4,1.794-4,4s1.794,4,4,4s4-1.794,4-4
			S24.205,10.999,22,10.999z"/>
		<g>
			<path style="fill:#DB3440;" d="M16,14.999c0-3.314,2.686-6,6-6c1.402,0,2.688,0.485,3.71,1.29c-1.099-1.393-2.798-2.29-4.71-2.29
				c-3.314,0-6,2.686-6,6c0,1.912,0.897,3.611,2.29,4.71C16.484,17.688,16,16.401,16,14.999z"/>
		</g>
		<g>
			<path style="fill:#DB3440;" d="M30.789,5.42c-0.234-0.215-0.482-0.407-0.729-0.603C31.937,7.124,33,10.029,33,13.073
				c-0.005,2.09-0.599,4.128-1.718,5.892c0,0-3.655,5.697-6.759,10.491C22.876,32.002,22,34.967,22,38v0
				c0.266,0,0.531-0.127,0.693-0.381l10.59-16.677c1.119-1.764,1.713-3.802,1.718-5.892C35,11.369,33.465,7.877,30.789,5.42z"/>
		</g>
	</g>
</g>
<g id="mobile">
</g>
<g id="intenet">
</g>
<g id="pie_x5F_chart">
</g>
<g id="page_x5F_search">
</g>
<g id="code">
</g>
<g id="code_x5F_check">
</g>
<g id="link">
</g>
<g id="monetisation">
</g>
<g id="connection">
</g>
<g id="server">
</g>
<g id="white_x5F_hat">
</g>
<g id="ppk">
</g>
<g id="page_x5F_test">
</g>
<g id="money">
</g>
<g id="page_x5F_quality">
</g>
<g id="page_x5F_speed">
</g>
<g id="money_x5F_bag">
</g>
<g id="trolley">
</g>
<g id="adaptive">
</g>
<g id="console">
</g>
<g id="briefcase">
</g>
<g id="cloud">
</g>
<g id="chess">
</g>
<g id="stopwatch">
</g>
<g id="test">
</g>
<g id="user">
</g>
<g id="social">
</g>
<g id="like">
</g>
<g id="crown">
</g>
<g id="target">
</g>
<g id="images">
</g>
<g id="calendar">
</g>
<g id="newspaper">
</g>
<g id="pencil">
</g>
<g id="email">
</g>
<g id="rocket">
</g>
<g id="trophy">
</g>
<g id="shop">
</g>
<g id="support">
</g>
</svg>
