<?xml version="1.0" encoding="iso-8859-1"?>
<!-- Generator: Adobe Illustrator 21.0.0, SVG Export Plug-In . SVG Version: 6.00 Build 0)  -->
<svg version="1.1" xmlns="http://www.w3.org/2000/svg" xmlns:xlink="http://www.w3.org/1999/xlink" x="0px" y="0px"
	 viewBox="0 0 44 44" style="enable-background:new 0 0 44 44;" xml:space="preserve">
<g id="page_x5F_settings">
</g>
<g id="pc_x5F_report">
</g>
<g id="chat">
</g>
<g id="marketing">
	<g>
		<path style="fill:#EBEEF7;" d="M42,21c0-1.654-1.346-3-3-3v6C40.654,24,42,22.654,42,21z"/>
		<path style="fill:#EBEEF7;" d="M24,26.555l8.191,7.367c0.52,0.468,1.142,0.794,1.809,0.958V7.12
			c-0.67,0.163-1.293,0.49-1.814,0.958L24,15.445V26.555z"/>
		<rect x="36" y="7" style="fill:#EF4C4E;" width="2.001" height="28"/>
		<path style="fill:#EF4C4E;" d="M7,28h14c0.551,0,1-0.449,1-1V15c0-0.551-0.449-1-1-1H7c-0.551,0-1,0.449-1,1v12
			C6,27.551,6.449,28,7,28z"/>
		<path style="fill:#EBEEF7;" d="M3,24h1v-6H3c-0.551,0-1,0.449-1,1v4C2,23.551,2.449,24,3,24z"/>
		<path style="fill:#AFC3D7;" d="M16,36.586c0-0.109-0.044-0.216-0.121-0.292l-0.361-0.361C14.539,34.954,14,33.651,14,32.267V30h-2
			v6c0,0.552,0.449,1,1,1h2.586C15.814,37,16,36.814,16,36.586z"/>
		<path style="fill:#004463;" d="M44,21c0-2.414-1.721-4.434-4-4.899V7c0-1.103-0.897-2-2-2h-3c-0.001,0-0.001,0-0.002,0
			s-0.001,0-0.002,0c-1.534,0-3.007,0.565-4.148,1.592l-7.411,6.67C22.892,12.501,22.005,12,21,12H7c-1.654,0-3,1.346-3,3v1H3
			c-1.654,0-3,1.346-3,3v4c0,1.654,1.346,3,3,3h1v1c0,1.654,1.346,3,3,3h3v6c0,1.654,1.346,3,3,3h2.586
			C16.917,39,18,37.917,18,36.586c0-0.637-0.258-1.259-0.707-1.707l-0.36-0.36C16.331,33.917,16,33.117,16,32.267V30h5
			c1.005,0,1.892-0.501,2.436-1.262l7.417,6.671C31.994,36.435,33.466,37,35,37h3c1.103,0,2-0.897,2-2v-9.101
			C42.279,25.434,44,23.414,44,21z M3,24c-0.551,0-1-0.449-1-1v-4c0-0.551,0.449-1,1-1h1v6H3z M15.519,35.933l0.361,0.361
			C15.956,36.37,16,36.477,16,36.586C16,36.814,15.814,37,15.586,37H13c-0.551,0-1-0.448-1-1v-6h2v2.267
			C14,33.651,14.539,34.954,15.519,35.933z M21,28h-6h-4H7c-0.551,0-1-0.449-1-1v-2v-8v-2c0-0.551,0.449-1,1-1h14
			c0.551,0,1,0.449,1,1v12C22,27.551,21.551,28,21,28z M24,26.555V15.445l8.186-7.367C32.707,7.61,33.33,7.283,34,7.12v27.76
			c-0.667-0.163-1.29-0.49-1.809-0.958L24,26.555z M36,35V7h2l0.001,9.997C38.001,16.998,38,16.999,38,17s0.001,0.002,0.001,0.003
			l0,7.993C38.001,24.997,38,24.998,38,25s0.001,0.003,0.001,0.005L38.001,35H36z M40,23.816v-5.631c1.161,0.414,2,1.514,2,2.816
			S41.161,23.402,40,23.816z"/>
		<g>
			<circle style="fill:#004463;" cx="10" cy="18" r="1"/>
		</g>
		<g>
			<circle style="fill:#004463;" cx="14" cy="18" r="1"/>
		</g>
		<g>
			<path style="fill:#DB3440;" d="M21,14v11c0,0.552-0.448,1-1,1H6v1c0,0.552,0.448,1,1,1h14c0.552,0,1-0.448,1-1V15
				C22,14.448,21.552,14,21,14z"/>
		</g>
		<g>
			<path style="fill:#D3E2EC;" d="M32.19,29.043l-4.342-2.846C26.695,25.441,26,24.155,26,22.775v-9.13l-2,1.8v8.229v2.88
				l8.19,7.368c0.52,0.467,1.142,0.793,1.81,0.957V30C33.332,29.836,32.71,29.51,32.19,29.043z"/>
		</g>
		<g>
			<rect x="36" y="30" style="fill:#DB3440;" width="2" height="5"/>
		</g>
		<g>
			<polygon style="fill:#97B3CC;" points="14,32 12,31 12,30 14,30 			"/>
		</g>
		<g>
			<path style="fill:#D3E2EC;" d="M4,24H3c-0.552,0-1-0.448-1-1v-1h2V24z"/>
		</g>
	</g>
</g>
<g id="analytics">
</g>
<g id="search_1_">
</g>
<g id="funnel">
</g>
<g id="tag">
</g>
<g id="eye_x5F_tracking">
</g>
<g id="report">
</g>
<g id="localisation">
</g>
<g id="mobile">
</g>
<g id="intenet">
</g>
<g id="pie_x5F_chart">
</g>
<g id="page_x5F_search">
</g>
<g id="code">
</g>
<g id="code_x5F_check">
</g>
<g id="link">
</g>
<g id="monetisation">
</g>
<g id="connection">
</g>
<g id="server">
</g>
<g id="white_x5F_hat">
</g>
<g id="ppk">
</g>
<g id="page_x5F_test">
</g>
<g id="money">
</g>
<g id="page_x5F_quality">
</g>
<g id="page_x5F_speed">
</g>
<g id="money_x5F_bag">
</g>
<g id="trolley">
</g>
<g id="adaptive">
</g>
<g id="console">
</g>
<g id="briefcase">
</g>
<g id="cloud">
</g>
<g id="chess">
</g>
<g id="stopwatch">
</g>
<g id="test">
</g>
<g id="user">
</g>
<g id="social">
</g>
<g id="like">
</g>
<g id="crown">
</g>
<g id="target">
</g>
<g id="images">
</g>
<g id="calendar">
</g>
<g id="newspaper">
</g>
<g id="pencil">
</g>
<g id="email">
</g>
<g id="rocket">
</g>
<g id="trophy">
</g>
<g id="shop">
</g>
<g id="support">
</g>
</svg>
