<?xml version="1.0" encoding="iso-8859-1"?>
<!-- Generator: Adobe Illustrator 21.0.0, SVG Export Plug-In . SVG Version: 6.00 Build 0)  -->
<svg version="1.1" xmlns="http://www.w3.org/2000/svg" xmlns:xlink="http://www.w3.org/1999/xlink" x="0px" y="0px"
	 viewBox="0 0 44 44" style="enable-background:new 0 0 44 44;" xml:space="preserve">
<g id="page_x5F_settings">
</g>
<g id="pc_x5F_report">
</g>
<g id="chat">
</g>
<g id="marketing">
</g>
<g id="analytics">
</g>
<g id="search_1_">
</g>
<g id="funnel">
</g>
<g id="tag">
</g>
<g id="eye_x5F_tracking">
</g>
<g id="report">
</g>
<g id="localisation">
</g>
<g id="mobile">
	<g>
		<path style="fill:#EBEEF7;" d="M32,2H12c-1.103,0-2,0.897-2,2v36c0,1.103,0.897,2,2,2h20c1.103,0,2-0.897,2-2V4
			C34,2.897,33.103,2,32,2z"/>
		<path style="fill:#004463;" d="M32,44H12c-2.206,0-4-1.794-4-4V4c0-2.206,1.794-4,4-4h20c2.206,0,4,1.794,4,4v36
			C36,42.206,34.206,44,32,44z M12,2c-1.103,0-2,0.897-2,2v36c0,1.103,0.897,2,2,2h20c1.103,0,2-0.897,2-2V4c0-1.103-0.897-2-2-2H12
			z"/>
		<g>
			<path style="fill:#004463;" d="M22,41c-1.103,0-2-0.897-2-2s0.897-2,2-2s2,0.897,2,2S23.103,41,22,41z M22,39h0.01H22z M22,39
				h0.01H22z M22,39h0.01H22z M22,39h0.01H22z M22,39h0.01H22z M22,38.999h0.01H22z M22,38.999h0.01H22z M22,38.999h0.01H22z"/>
		</g>
		<g>
			<path style="fill:#004463;" d="M24,6h-4c-0.552,0-1-0.448-1-1s0.448-1,1-1h4c0.552,0,1,0.448,1,1S24.552,6,24,6z"/>
		</g>
		<g>
			<rect x="13" y="10" style="fill:#ACD6F2;" width="18" height="24"/>
			<path style="fill:#004463;" d="M32,36H12c-0.552,0-1-0.448-1-1V9c0-0.552,0.448-1,1-1h20c0.552,0,1,0.448,1,1v26
				C33,35.552,32.552,36,32,36z M13,34h18V10H13V34z"/>
		</g>
		<g>
			<path style="fill:#DD333F;" d="M23,24h-2c-0.552,0-1-0.448-1-1V13c0-0.552,0.448-1,1-1h2c0.552,0,1,0.448,1,1v10
				C24,23.552,23.552,24,23,24z"/>
		</g>
		<g>
			<path style="fill:#0E9247;" d="M28,24h-2c-0.552,0-1-0.448-1-1v-7c0-0.552,0.448-1,1-1h2c0.552,0,1,0.448,1,1v7
				C29,23.552,28.552,24,28,24z"/>
		</g>
		<g>
			<path style="fill:#1470B7;" d="M18,24h-2c-0.552,0-1-0.448-1-1v-4c0-0.552,0.448-1,1-1h2c0.552,0,1,0.448,1,1v4
				C19,23.552,18.552,24,18,24z"/>
		</g>
		<g>
			<path style="fill:#004463;" d="M28,28H16c-0.552,0-1-0.448-1-1s0.448-1,1-1h12c0.552,0,1,0.448,1,1S28.552,28,28,28z"/>
		</g>
		<g>
			<path style="fill:#004463;" d="M23,31h-7c-0.552,0-1-0.448-1-1s0.448-1,1-1h7c0.552,0,1,0.448,1,1S23.552,31,23,31z"/>
		</g>
	</g>
</g>
<g id="intenet">
</g>
<g id="pie_x5F_chart">
</g>
<g id="page_x5F_search">
</g>
<g id="code">
</g>
<g id="code_x5F_check">
</g>
<g id="link">
</g>
<g id="monetisation">
</g>
<g id="connection">
</g>
<g id="server">
</g>
<g id="white_x5F_hat">
</g>
<g id="ppk">
</g>
<g id="page_x5F_test">
</g>
<g id="money">
</g>
<g id="page_x5F_quality">
</g>
<g id="page_x5F_speed">
</g>
<g id="money_x5F_bag">
</g>
<g id="trolley">
</g>
<g id="adaptive">
</g>
<g id="console">
</g>
<g id="briefcase">
</g>
<g id="cloud">
</g>
<g id="chess">
</g>
<g id="stopwatch">
</g>
<g id="test">
</g>
<g id="user">
</g>
<g id="social">
</g>
<g id="like">
</g>
<g id="crown">
</g>
<g id="target">
</g>
<g id="images">
</g>
<g id="calendar">
</g>
<g id="newspaper">
</g>
<g id="pencil">
</g>
<g id="email">
</g>
<g id="rocket">
</g>
<g id="trophy">
</g>
<g id="shop">
</g>
<g id="support">
</g>
</svg>
