<?xml version="1.0" encoding="iso-8859-1"?>
<!-- Generator: Adobe Illustrator 21.0.0, SVG Export Plug-In . SVG Version: 6.00 Build 0)  -->
<svg version="1.1" xmlns="http://www.w3.org/2000/svg" xmlns:xlink="http://www.w3.org/1999/xlink" x="0px" y="0px"
	 viewBox="0 0 44 44" style="enable-background:new 0 0 44 44;" xml:space="preserve">
<g id="page_x5F_settings">
</g>
<g id="pc_x5F_report">
</g>
<g id="chat">
</g>
<g id="marketing">
</g>
<g id="analytics">
</g>
<g id="search_1_">
</g>
<g id="funnel">
</g>
<g id="tag">
</g>
<g id="eye_x5F_tracking">
</g>
<g id="report">
</g>
<g id="localisation">
</g>
<g id="mobile">
</g>
<g id="intenet">
</g>
<g id="pie_x5F_chart">
</g>
<g id="page_x5F_search">
</g>
<g id="code">
</g>
<g id="code_x5F_check">
</g>
<g id="link">
</g>
<g id="monetisation">
</g>
<g id="connection">
</g>
<g id="server">
</g>
<g id="white_x5F_hat">
</g>
<g id="ppk">
</g>
<g id="page_x5F_test">
</g>
<g id="money">
	<g>
		<path style="fill:#8EC861;" d="M3,26h38c0.551,0,1-0.449,1-1V5c0-0.551-0.449-1-1-1H3C2.449,4,2,4.449,2,5v20
			C2,25.551,2.449,26,3,26z"/>
		<path style="fill:#004463;" d="M41,28H3c-1.654,0-3-1.346-3-3V5c0-1.654,1.346-3,3-3h38c1.654,0,3,1.346,3,3v20
			C44,26.654,42.654,28,41,28z M3,4C2.449,4,2,4.449,2,5v20c0,0.551,0.449,1,1,1h38c0.551,0,1-0.449,1-1V5c0-0.551-0.449-1-1-1H3z"
			/>
		<ellipse style="fill:#C4DD91;" cx="22" cy="15" rx="7" ry="8"/>
		<path style="fill:#004463;" d="M22,25c-4.962,0-9-4.486-9-10s4.038-10,9-10s9,4.486,9,10S26.962,25,22,25z M22,7
			c-3.86,0-7,3.589-7,8s3.14,8,7,8s7-3.589,7-8S25.86,7,22,7z"/>
		<g>
			<path style="fill:#004463;" d="M40,11c-2.757,0-5-2.243-5-5c0-0.552,0.448-1,1-1s1,0.448,1,1c0,1.654,1.346,3,3,3
				c0.552,0,1,0.448,1,1S40.552,11,40,11z"/>
		</g>
		<g>
			<path style="fill:#004463;" d="M36,25c-0.552,0-1-0.448-1-1c0-2.757,2.243-5,5-5c0.552,0,1,0.448,1,1s-0.448,1-1,1
				c-1.654,0-3,1.346-3,3C37,24.552,36.552,25,36,25z"/>
		</g>
		<g>
			<path style="fill:#004463;" d="M8,25c-0.552,0-1-0.448-1-1c0-1.654-1.346-3-3-3c-0.552,0-1-0.448-1-1s0.448-1,1-1
				c2.757,0,5,2.243,5,5C9,24.552,8.552,25,8,25z"/>
		</g>
		<g>
			<path style="fill:#004463;" d="M4,11c-0.552,0-1-0.448-1-1s0.448-1,1-1c1.654,0,3-1.346,3-3c0-0.552,0.448-1,1-1s1,0.448,1,1
				C9,8.757,6.757,11,4,11z"/>
		</g>
		<g>
			<circle style="fill:#004463;" cx="10" cy="15" r="2"/>
		</g>
		<g>
			<circle style="fill:#004463;" cx="34" cy="15" r="2"/>
		</g>
		<path style="fill:#004463;" d="M23,14h-2c-0.551,0-1-0.449-1-1s0.449-1,1-1h3c0.552,0,1-0.448,1-1s-0.448-1-1-1h-1
			c0-0.552-0.448-1-1-1s-1,0.448-1,1c-1.654,0-3,1.346-3,3s1.346,3,3,3h2c0.551,0,1,0.449,1,1s-0.449,1-1,1h-3c-0.552,0-1,0.448-1,1
			s0.448,1,1,1h1c0,0.552,0.448,1,1,1s1-0.448,1-1c1.654,0,3-1.346,3-3S24.654,14,23,14z"/>
		<g>
			<circle style="fill:#FFC95C;" cx="35" cy="27" r="5"/>
			<path style="fill:#004463;" d="M35,34c-3.86,0-7-3.14-7-7s3.14-7,7-7s7,3.14,7,7S38.86,34,35,34z M35,22c-2.757,0-5,2.243-5,5
				s2.243,5,5,5s5-2.243,5-5S37.757,22,35,22z"/>
		</g>
		<g>
			<circle style="fill:#FFC95C;" cx="26" cy="29" r="5"/>
			<path style="fill:#004463;" d="M26,36c-3.86,0-7-3.14-7-7s3.14-7,7-7s7,3.14,7,7S29.86,36,26,36z M26,24c-2.757,0-5,2.243-5,5
				s2.243,5,5,5s5-2.243,5-5S28.757,24,26,24z"/>
		</g>
		<g>
			<circle style="fill:#FFC95C;" cx="31" cy="35" r="5"/>
			<path style="fill:#004463;" d="M31,42c-3.86,0-7-3.14-7-7s3.14-7,7-7s7,3.14,7,7S34.86,42,31,42z M31,30c-2.757,0-5,2.243-5,5
				s2.243,5,5,5s5-2.243,5-5S33.757,30,31,30z"/>
		</g>
		<g>
			<path style="fill:#F4B344;" d="M32.964,28.286c1.746,0.512,3.2,1.693,4.092,3.237c0.416-0.195,0.811-0.43,1.158-0.724
				c-0.872-1.682-2.401-2.97-4.25-3.512c-0.167-1.641-0.908-3.111-2.013-4.219c-0.374,0.291-0.701,0.636-0.982,1.018
				C32.063,25.19,32.798,26.653,32.964,28.286z"/>
		</g>
	</g>
</g>
<g id="page_x5F_quality">
</g>
<g id="page_x5F_speed">
</g>
<g id="money_x5F_bag">
</g>
<g id="trolley">
</g>
<g id="adaptive">
</g>
<g id="console">
</g>
<g id="briefcase">
</g>
<g id="cloud">
</g>
<g id="chess">
</g>
<g id="stopwatch">
</g>
<g id="test">
</g>
<g id="user">
</g>
<g id="social">
</g>
<g id="like">
</g>
<g id="crown">
</g>
<g id="target">
</g>
<g id="images">
</g>
<g id="calendar">
</g>
<g id="newspaper">
</g>
<g id="pencil">
</g>
<g id="email">
</g>
<g id="rocket">
</g>
<g id="trophy">
</g>
<g id="shop">
</g>
<g id="support">
</g>
</svg>
