<?xml version="1.0" encoding="iso-8859-1"?>
<!-- Generator: Adobe Illustrator 21.0.0, SVG Export Plug-In . SVG Version: 6.00 Build 0)  -->
<svg version="1.1" xmlns="http://www.w3.org/2000/svg" xmlns:xlink="http://www.w3.org/1999/xlink" x="0px" y="0px"
	 viewBox="0 0 44 44" style="enable-background:new 0 0 44 44;" xml:space="preserve">
<g id="page_x5F_settings">
</g>
<g id="pc_x5F_report">
</g>
<g id="chat">
</g>
<g id="marketing">
</g>
<g id="analytics">
</g>
<g id="search_1_">
</g>
<g id="funnel">
</g>
<g id="tag">
</g>
<g id="eye_x5F_tracking">
</g>
<g id="report">
</g>
<g id="localisation">
</g>
<g id="mobile">
</g>
<g id="intenet">
</g>
<g id="pie_x5F_chart">
</g>
<g id="page_x5F_search">
</g>
<g id="code">
</g>
<g id="code_x5F_check">
</g>
<g id="link">
</g>
<g id="monetisation">
</g>
<g id="connection">
</g>
<g id="server">
</g>
<g id="white_x5F_hat">
</g>
<g id="ppk">
</g>
<g id="page_x5F_test">
</g>
<g id="money">
</g>
<g id="page_x5F_quality">
</g>
<g id="page_x5F_speed">
</g>
<g id="money_x5F_bag">
	<g>
		<path style="fill:#8EC861;" d="M38.4,37.3c-1.502-1.127-2.4-2.921-2.4-4.8c0-5.859-2.282-11.368-6.425-15.511l-4.282-4.282
			C25.105,12.52,25,12.265,25,12V9c0-0.227,0.077-0.447,0.219-0.625l3.513-4.392C28.905,3.768,29,3.497,29,3.221
			C29,2.548,28.452,2,27.779,2h-3.059l-0.772,2.316c-0.121,0.362-0.438,0.624-0.816,0.675c-0.383,0.049-0.753-0.12-0.965-0.437
			L20.465,2h-4.244C15.548,2,15,2.548,15,3.221c0,0.276,0.095,0.547,0.268,0.763l3.513,4.392C18.923,8.553,19,8.773,19,9v3
			c0,0.265-0.105,0.52-0.293,0.707l-4.282,4.282C10.282,21.132,8,26.641,8,32.5c0,1.878-0.897,3.673-2.4,4.8
			C4.598,38.051,4,39.247,4,40.499C4,41.327,4.673,42,5.5,42h33c0.827,0,1.5-0.673,1.5-1.5C40,39.248,39.402,38.051,38.4,37.3z"/>
		<g>
			<path style="fill:#004463;" d="M23,26h-2c-0.551,0-1-0.448-1-1s0.449-1,1-1h3c0.552,0,1-0.447,1-1s-0.448-1-1-1h-1l0,0
				c0-0.552-0.448-1-1-1c-0.552,0-1,0.448-1,1l0,0c-1.654,0-3,1.346-3,3s1.346,3,3,3h2c0.551,0,1,0.448,1,1s-0.449,1-1,1h-3
				c-0.552,0-1,0.447-1,1s0.448,1,1,1h1l0,0c0,0.552,0.448,1,1,1c0.552,0,1-0.448,1-1l0,0c1.654,0,3-1.346,3-3S24.654,26,23,26z"/>
		</g>
		<g>
			<path style="fill:#70B856;" d="M38.4,37.3c-1.558-1.169-2.466-3.055-2.397-5.008c0.204-5.769-2.41-11.284-6.492-15.366L26.586,14
				l-1-1l-0.293-0.293C25.105,12.519,25,12.265,25,12V8.999c0-0.227,0.077-0.447,0.219-0.624l3.514-4.392
				C28.905,3.768,29,3.497,29,3.221C29,2.548,28.452,2,27.779,2h-0.824C26.969,2.074,27,2.142,27,2.221
				c0,0.276-0.095,0.547-0.268,0.763l-3.513,4.391C23.077,7.552,23,7.773,23,8l-1,3c0,0.265,0.105,0.519,0.293,0.707L23.586,13
				h-5.172l-1,1h4.817c1.508,0,2.954,0.599,4.021,1.665l0,0c3.609,3.609,6.646,10.737,6.749,15.84l0.001,0.052
				C33.123,35.027,30.602,38,27.13,38c0,0-15.168,0.045-20.406,0C5.284,37.988,4.011,39.03,4,40.47c0,0.01,0,0.019,0,0.029
				c0,0.339,0.117,0.648,0.307,0.9c0.002,0.002,0.004,0.004,0.005,0.007c0.089,0.116,0.193,0.22,0.311,0.306
				c0.003,0.003,0.006,0.005,0.009,0.008c0.112,0.08,0.236,0.142,0.368,0.189c0.026,0.009,0.053,0.017,0.079,0.025
				C5.214,41.972,5.353,42,5.5,42H38h0.5c0.829,0,1.502-0.679,1.5-1.508C39.998,39.243,39.4,38.05,38.4,37.3z"/>
		</g>
		<path style="fill:#004463;" d="M38.5,44h-33C3.57,44,2,42.43,2,40.5c0-1.879,0.897-3.673,2.4-4.8C5.402,34.949,6,33.753,6,32.501
			c0-6.394,2.49-12.405,7.011-16.926L17,11.586V9.351l-3.294-4.118C13.25,4.664,13,3.949,13,3.221C13,1.445,14.445,0,16.221,0H21
			c0.334,0,0.646,0.167,0.832,0.445l0.866,1.299l0.354-1.061C23.188,0.275,23.569,0,24,0h3.779C29.555,0,31,1.445,31,3.221
			c0,0.728-0.25,1.443-0.706,2.012L27,9.351v2.235l3.989,3.989C35.51,20.096,38,26.107,38,32.5c0,1.252,0.598,2.448,1.6,3.199
			c1.502,1.127,2.4,2.921,2.4,4.8C42,42.43,40.43,44,38.5,44z M16.221,2C15.548,2,15,2.548,15,3.221
			c0,0.276,0.095,0.547,0.268,0.763l3.513,4.392C18.923,8.553,19,8.773,19,9v3c0,0.265-0.105,0.52-0.293,0.707l-4.282,4.282
			C10.282,21.132,8,26.641,8,32.5c0,1.878-0.897,3.673-2.4,4.8C4.598,38.051,4,39.247,4,40.499C4,41.327,4.673,42,5.5,42h33
			c0.827,0,1.5-0.673,1.5-1.5c0-1.252-0.598-2.449-1.6-3.2c-1.502-1.127-2.4-2.921-2.4-4.8c0-5.859-2.282-11.368-6.425-15.511
			l-4.282-4.282C25.105,12.52,25,12.265,25,12V9c0-0.227,0.077-0.447,0.219-0.625l3.513-4.392C28.905,3.768,29,3.497,29,3.221
			C29,2.548,28.452,2,27.779,2h-3.059l-0.772,2.316c-0.121,0.362-0.438,0.624-0.816,0.675c-0.383,0.049-0.753-0.12-0.965-0.437
			L20.465,2H16.221z"/>
		<path style="fill:#EBEEF7;" d="M17.5,11h9c0.276,0,0.5-0.224,0.5-0.5S26.776,10,26.5,10h-9c-0.276,0-0.5,0.224-0.5,0.5
			S17.224,11,17.5,11z"/>
		<path style="fill:#004463;" d="M26.5,13h-9c-1.378,0-2.5-1.122-2.5-2.5S16.122,8,17.5,8h9c1.378,0,2.5,1.122,2.5,2.5
			S27.878,13,26.5,13z M17.5,10c-0.276,0-0.5,0.224-0.5,0.5s0.224,0.5,0.5,0.5h9c0.276,0,0.5-0.224,0.5-0.5S26.776,10,26.5,10H17.5z
			"/>
	</g>
</g>
<g id="trolley">
</g>
<g id="adaptive">
</g>
<g id="console">
</g>
<g id="briefcase">
</g>
<g id="cloud">
</g>
<g id="chess">
</g>
<g id="stopwatch">
</g>
<g id="test">
</g>
<g id="user">
</g>
<g id="social">
</g>
<g id="like">
</g>
<g id="crown">
</g>
<g id="target">
</g>
<g id="images">
</g>
<g id="calendar">
</g>
<g id="newspaper">
</g>
<g id="pencil">
</g>
<g id="email">
</g>
<g id="rocket">
</g>
<g id="trophy">
</g>
<g id="shop">
</g>
<g id="support">
</g>
</svg>
