<?xml version="1.0" encoding="iso-8859-1"?>
<!-- Generator: Adobe Illustrator 21.0.0, SVG Export Plug-In . SVG Version: 6.00 Build 0)  -->
<svg version="1.1" xmlns="http://www.w3.org/2000/svg" xmlns:xlink="http://www.w3.org/1999/xlink" x="0px" y="0px"
	 viewBox="0 0 44 44" style="enable-background:new 0 0 44 44;" xml:space="preserve">
<g id="page_x5F_settings">
</g>
<g id="pc_x5F_report">
</g>
<g id="chat">
</g>
<g id="marketing">
</g>
<g id="analytics">
</g>
<g id="search_1_">
</g>
<g id="funnel">
</g>
<g id="tag">
</g>
<g id="eye_x5F_tracking">
</g>
<g id="report">
</g>
<g id="localisation">
</g>
<g id="mobile">
</g>
<g id="intenet">
</g>
<g id="pie_x5F_chart">
</g>
<g id="page_x5F_search">
</g>
<g id="code">
</g>
<g id="code_x5F_check">
</g>
<g id="link">
</g>
<g id="monetisation">
</g>
<g id="connection">
</g>
<g id="server">
</g>
<g id="white_x5F_hat">
</g>
<g id="ppk">
</g>
<g id="page_x5F_test">
</g>
<g id="money">
</g>
<g id="page_x5F_quality">
</g>
<g id="page_x5F_speed">
</g>
<g id="money_x5F_bag">
</g>
<g id="trolley">
</g>
<g id="adaptive">
</g>
<g id="console">
</g>
<g id="briefcase">
</g>
<g id="cloud">
</g>
<g id="chess">
</g>
<g id="stopwatch">
</g>
<g id="test">
</g>
<g id="user">
</g>
<g id="social">
</g>
<g id="like">
</g>
<g id="crown">
</g>
<g id="target">
</g>
<g id="images">
</g>
<g id="calendar">
</g>
<g id="newspaper">
	<g>
		<path style="fill:#AFC3D7;" d="M4.702,39.986c0.859,0.072,1.682-0.191,2.315-0.766C7.642,38.653,8,37.844,8,37V12H3
			c-0.551,0-1,0.448-1,1v23.828C2,38.454,3.187,39.842,4.702,39.986z"/>
		<path style="fill:#EBEEF7;" d="M42,5c0-0.552-0.449-1-1-1H11c-0.551,0-1,0.448-1,1v32c0,1.125-0.379,2.165-1.016,3H39
			c1.654,0,3-1.346,3-3V5z"/>
		<g>
			<path style="fill:#004463;" d="M30,9h-8c-0.552,0-1-0.447-1-1s0.448-1,1-1h8c0.552,0,1,0.447,1,1S30.552,9,30,9z"/>
		</g>
		<g>
			<path style="fill:#004463;" d="M38,14H26c-0.552,0-1-0.447-1-1s0.448-1,1-1h12c0.552,0,1,0.447,1,1S38.552,14,38,14z"/>
		</g>
		<g>
			<path style="fill:#004463;" d="M38,18H26c-0.552,0-1-0.447-1-1s0.448-1,1-1h12c0.552,0,1,0.447,1,1S38.552,18,38,18z"/>
		</g>
		<g>
			<path style="fill:#004463;" d="M38,22H26c-0.552,0-1-0.447-1-1s0.448-1,1-1h12c0.552,0,1,0.447,1,1S38.552,22,38,22z"/>
		</g>
		<g>
			<path style="fill:#004463;" d="M38,32H14c-0.552,0-1-0.447-1-1s0.448-1,1-1h24c0.552,0,1,0.447,1,1S38.552,32,38,32z"/>
		</g>
		<g>
			<path style="fill:#004463;" d="M38,36H14c-0.552,0-1-0.447-1-1s0.448-1,1-1h24c0.552,0,1,0.447,1,1S38.552,36,38,36z"/>
		</g>
		<g>
			<path style="fill:#004463;" d="M31,26h-5c-0.552,0-1-0.447-1-1s0.448-1,1-1h5c0.552,0,1,0.447,1,1S31.552,26,31,26z"/>
		</g>
		<g>
			<path style="fill:#70B6E4;" d="M22,22h-8c-0.552,0-1-0.448-1-1v-8c0-0.552,0.448-1,1-1h8c0.552,0,1,0.448,1,1v8
				C23,21.552,22.552,22,22,22z"/>
		</g>
		<g>
			<path style="fill:#4C9BD5;" d="M23,17.6V21c0,0.55-0.45,1-1,1h-8c-0.55,0-1-0.45-1-1v-4.59c1.6-0.7,3.64-0.5,5,0.59
				C19.36,18.09,21.4,18.29,23,17.6z"/>
		</g>
		<g>
			<circle style="fill:#004362;" cx="14" cy="25" r="1"/>
		</g>
		<g>
			<circle style="fill:#004362;" cx="18" cy="25" r="1"/>
		</g>
		<g>
			<circle style="fill:#004362;" cx="22" cy="25" r="1"/>
		</g>
		<path style="fill:#004463;" d="M41,2H11C9.346,2,8,3.346,8,5v5H3c-1.654,0-3,1.346-3,3v23.828c0,2.646,1.982,4.907,4.512,5.148
			C4.671,41.992,4.831,42,4.989,42C4.991,42,39,42,39,42c2.757,0,5-2.243,5-5V5C44,3.346,42.654,2,41,2z M5,40
			c-0.003,0-0.197-0.005-0.298-0.014C3.187,39.842,2,38.454,2,36.828V13c0-0.552,0.449-1,1-1h5v4H6c-0.552,0-1,0.447-1,1
			s0.448,1,1,1h2v2H6c-0.552,0-1,0.447-1,1s0.448,1,1,1h2v2H6c-0.552,0-1,0.447-1,1s0.448,1,1,1h2v4H6c-0.552,0-1,0.447-1,1
			s0.448,1,1,1h2v2H6c-0.552,0-1,0.447-1,1s0.448,1,1,1h2v1C8,38.634,6.649,39.993,5,40z M42,37c0,1.654-1.346,3-3,3H8.984
			C9.621,39.165,10,38.125,10,37v-2V11V5c0-0.552,0.449-1,1-1h30c0.551,0,1,0.448,1,1V37z"/>
	</g>
</g>
<g id="pencil">
</g>
<g id="email">
</g>
<g id="rocket">
</g>
<g id="trophy">
</g>
<g id="shop">
</g>
<g id="support">
</g>
</svg>
