<?xml version="1.0" encoding="iso-8859-1"?>
<!-- Generator: Adobe Illustrator 21.0.0, SVG Export Plug-In . SVG Version: 6.00 Build 0)  -->
<svg version="1.1" xmlns="http://www.w3.org/2000/svg" xmlns:xlink="http://www.w3.org/1999/xlink" x="0px" y="0px"
	 viewBox="0 0 44 44" style="enable-background:new 0 0 44 44;" xml:space="preserve">
<g id="page_x5F_settings">
</g>
<g id="pc_x5F_report">
</g>
<g id="chat">
</g>
<g id="marketing">
</g>
<g id="analytics">
</g>
<g id="search_1_">
</g>
<g id="funnel">
</g>
<g id="tag">
</g>
<g id="eye_x5F_tracking">
</g>
<g id="report">
</g>
<g id="localisation">
</g>
<g id="mobile">
</g>
<g id="intenet">
</g>
<g id="pie_x5F_chart">
</g>
<g id="page_x5F_search">
</g>
<g id="code">
</g>
<g id="code_x5F_check">
</g>
<g id="link">
</g>
<g id="monetisation">
</g>
<g id="connection">
</g>
<g id="server">
</g>
<g id="white_x5F_hat">
</g>
<g id="ppk">
	<g>
		<path style="fill:#EEC8AD;" d="M16.383,25.924c-0.375,0.155-0.804,0.069-1.09-0.217l-3.964-3.964C10.85,21.264,10.213,21,9.536,21
			C8.138,21,7,22.138,7,23.536v0.184c0,0.592,0.208,1.169,0.587,1.624L17.437,36h16.987C36.111,33.001,37,29.615,37,26.169v-4.704
			c0-1.658-1.043-3.163-2.595-3.745l-2.285-0.857c-2.895-1.085-6.114-1.145-9.043-0.167l-0.76,0.253
			c-0.305,0.101-0.641,0.051-0.901-0.137C21.155,16.624,21,16.321,21,16V6c0-1.103-0.897-2-2-2s-2,0.897-2,2v19
			C17,25.404,16.756,25.769,16.383,25.924z"/>
		<g>
			<g>
				<path style="fill:#E1B597;" d="M20,6v12.002c0,0.321,0.154,0.624,0.415,0.812c0.262,0.188,0.596,0.237,0.901,0.137l0.24-0.08
					c-0.046-0.023-0.099-0.027-0.141-0.057C21.154,18.625,21,18.323,21,18.002V6c0-1.103-0.897-2-2-2
					c-0.174,0-0.339,0.019-0.5,0.061C19.36,4.285,20,5.071,20,6z"/>
			</g>
		</g>
		<rect x="16" y="38" style="fill:#EBEEF7;" width="19" height="4"/>
		<g>
			<path style="fill:#E1B597;" d="M34.865,17.893L34.865,17.893C34.952,18.174,35,18.469,35,18.772v5.397
				c0,2.356-0.415,4.685-1.217,6.88C33.128,32.842,31.376,34,29.468,34l-10.385,0c-1.055,0-2.07-0.409-2.831-1.14l-9.229-8.876
				c0.053,0.497,0.243,0.973,0.565,1.359L17.437,36H21h13.425C36.111,33.001,37,29.615,37,26.169v-5.195
				C37,19.602,36.149,18.374,34.865,17.893z"/>
		</g>
		<g>
			<path style="fill:#CCD9E4;" d="M33,38v2c0,0.552-0.448,1-1,1H16v1h19v-4H33z"/>
		</g>
		<g>
			<circle style="fill:#004362;" cx="33" cy="40" r="1"/>
		</g>
		<g>
			<circle style="fill:#FFC95C;" cx="29" cy="4" r="2"/>
			<path style="fill:#004463;" d="M29,8c-2.206,0-4-1.794-4-4s1.794-4,4-4s4,1.794,4,4S31.205,8,29,8z M29,2c-1.103,0-2,0.897-2,2
				s0.897,2,2,2s2-0.897,2-2S30.103,2,29,2z"/>
		</g>
		<g>
			<circle style="fill:#FFC95C;" cx="34" cy="8" r="3"/>
			<path style="fill:#004463;" d="M37.534,11.534C36.628,12.439,35.378,13,34,13c-2.757,0-5-2.243-5-5l0,0c0-2.757,2.244-5,5-5
				c2.757,0,5,2.243,5,5C39,9.378,38.439,10.629,37.534,11.534z M31,8c0,1.654,1.346,3,3,3c1.654-0.001,2.999-1.347,3-3
				c0-1.654-1.346-3-3-3C32.346,5,31,6.346,31,8z"/>
		</g>
		<g>
			<path style="fill:#FDE2D1;" d="M20,8h-2V6c0-0.552,0.448-1,1-1h0c0.552,0,1,0.448,1,1V8z"/>
		</g>
		<path style="fill:#004463;" d="M39,21.465c0-2.487-1.564-4.745-3.893-5.618l-2.285-0.857c-3.14-1.176-6.614-1.304-9.822-0.366V6
			c0-2.206-1.794-4-4-4s-4,1.794-4,4v16.586l-2.257-2.257C11.886,19.472,10.747,19,9.536,19C7.035,19,5,21.035,5,23.536v0.184
			c0,1.059,0.373,2.09,1.085,2.942l8.674,9.387C14.327,36.159,14,36.533,14,37v6c0,0.552,0.448,1,1,1h21c0.552,0,1-0.448,1-1v-6
			c0-0.33-0.171-0.609-0.418-0.791C38.168,33.107,39,29.666,39,26.169V21.465z M35,42H16v-4h1h18V42z M37,26.169
			c0,3.446-0.889,6.833-2.575,9.831H17.437l-9.85-10.657C7.208,24.889,7,24.312,7,23.72v-0.184C7,22.138,8.138,21,9.536,21
			c0.677,0,1.314,0.264,1.793,0.743L15,25.414V26c0,0.552,0.448,1,1,1s1-0.448,1-1V6c0-1.103,0.897-2,2-2s2,0.897,2,2v12
			c0,0.552,0.448,1,1,1s1-0.448,1-1v-1.279l0.076-0.025c2.93-0.977,6.149-0.918,9.043,0.167l2.285,0.857
			C35.957,18.302,37,19.807,37,21.465V26.169z"/>
	</g>
</g>
<g id="page_x5F_test">
</g>
<g id="money">
</g>
<g id="page_x5F_quality">
</g>
<g id="page_x5F_speed">
</g>
<g id="money_x5F_bag">
</g>
<g id="trolley">
</g>
<g id="adaptive">
</g>
<g id="console">
</g>
<g id="briefcase">
</g>
<g id="cloud">
</g>
<g id="chess">
</g>
<g id="stopwatch">
</g>
<g id="test">
</g>
<g id="user">
</g>
<g id="social">
</g>
<g id="like">
</g>
<g id="crown">
</g>
<g id="target">
</g>
<g id="images">
</g>
<g id="calendar">
</g>
<g id="newspaper">
</g>
<g id="pencil">
</g>
<g id="email">
</g>
<g id="rocket">
</g>
<g id="trophy">
</g>
<g id="shop">
</g>
<g id="support">
</g>
</svg>
