<?xml version="1.0" encoding="iso-8859-1"?>
<!-- Generator: Adobe Illustrator 21.0.0, SVG Export Plug-In . SVG Version: 6.00 Build 0)  -->
<svg version="1.1" xmlns="http://www.w3.org/2000/svg" xmlns:xlink="http://www.w3.org/1999/xlink" x="0px" y="0px"
	 viewBox="0 0 44 44" style="enable-background:new 0 0 44 44;" xml:space="preserve">
<g id="page_x5F_settings">
</g>
<g id="pc_x5F_report">
	<g>
		<g>
			<path style="fill:#EBEEF7;" d="M42,28H2v5c0,0.551,0.449,1,1,1h38c0.551,0,1-0.449,1-1V28z"/>
			<g>
				<path style="fill:#CCD9E4;" d="M41,28v4c0,0.552-0.448,1-1,1H2c0,0.552,0.448,1,1,1h38c0.552,0,1-0.448,1-1v-5H41z"/>
			</g>
			<path style="fill:#70B6E4;" d="M42,5c0-0.551-0.449-1-1-1H3C2.449,4,2,4.449,2,5v21h40V5z"/>
			<path style="fill:#EBEEF7;" d="M19,36v3c0,0.351-0.061,0.687-0.171,1h6.343C25.061,39.687,25,39.351,25,39v-3H19z"/>
			<path style="fill:#004463;" d="M41,2H3C1.346,2,0,3.346,0,5v28c0,1.654,1.346,3,3,3h14v3c0,0.551-0.449,1-1,1h-1
				c-0.552,0-1,0.448-1,1s0.448,1,1,1h1h12h1c0.552,0,1-0.448,1-1s-0.448-1-1-1h-1c-0.551,0-1-0.449-1-1v-3h14c1.654,0,3-1.346,3-3
				V5C44,3.346,42.654,2,41,2z M2,5c0-0.551,0.449-1,1-1h38c0.551,0,1,0.449,1,1v21H2V5z M25.171,40h-6.343
				C18.939,39.687,19,39.351,19,39v-3h6v3C25,39.351,25.061,39.687,25.171,40z M42,33c0,0.551-0.449,1-1,1H26h-8H3
				c-0.551,0-1-0.449-1-1v-5h40V33z"/>
			<g>
				<path style="fill:#CCD9E4;" d="M25,39v-2v-1h-1.171H19v1h3.829c0.552,0,1,0.448,1,1v1c0,0.351,0.061,0.688,0.171,1h1.171
					C25.061,39.688,25,39.351,25,39z"/>
			</g>
		</g>
		<g>
			<circle style="fill:#004463;" cx="22" cy="31" r="1"/>
		</g>
		<g>
			<path style="fill:#ACD6F2;" d="M8,22c-0.276,0-0.55-0.113-0.748-0.335c-0.367-0.413-0.33-1.045,0.083-1.412l9-8
				c0.414-0.366,1.045-0.329,1.412,0.083c0.367,0.413,0.33,1.045-0.083,1.412l-9,8C8.474,21.917,8.237,22,8,22z"/>
		</g>
		<g>
			<path style="fill:#ACD6F2;" d="M27.999,20c-0.162,0-0.326-0.039-0.478-0.122l-11-6c-0.485-0.265-0.664-0.872-0.399-1.357
				c0.266-0.484,0.871-0.662,1.357-0.399l11,6c0.485,0.265,0.664,0.872,0.399,1.357C28.696,19.812,28.353,20,27.999,20z"/>
		</g>
		<g>
			<path style="fill:#ACD6F2;" d="M28,20c-0.219,0-0.44-0.072-0.624-0.219c-0.432-0.345-0.501-0.974-0.156-1.405l8-10
				c0.345-0.432,0.975-0.5,1.405-0.156c0.432,0.345,0.501,0.974,0.156,1.405l-8,10C28.583,19.872,28.292,20,28,20z"/>
		</g>
		<g>
			<circle style="fill:#FFFFFF;" cx="17" cy="13" r="2"/>
		</g>
		<g>
			<circle style="fill:#FFFFFF;" cx="28" cy="19" r="2"/>
		</g>
		<g>
			<path style="fill:#ACD6F2;" d="M40,10h-4c-0.552,0-1-0.448-1-1s0.448-1,1-1h4c0.552,0,1,0.448,1,1S40.552,10,40,10z"/>
		</g>
		<g>
			<circle style="fill:#FFFFFF;" cx="36" cy="9" r="2"/>
		</g>
		<g>
			<path style="fill:#ACD6F2;" d="M5.001,24c-0.323,0-0.64-0.156-0.833-0.445c-0.306-0.459-0.182-1.081,0.277-1.387l3-2
				c0.459-0.308,1.08-0.183,1.387,0.277c0.306,0.459,0.182,1.081-0.277,1.387l-3,2C5.384,23.946,5.191,24,5.001,24z"/>
		</g>
		<g>
			<circle style="fill:#FFFFFF;" cx="8" cy="21" r="2"/>
		</g>
	</g>
</g>
<g id="chat">
</g>
<g id="marketing">
</g>
<g id="analytics">
</g>
<g id="search_1_">
</g>
<g id="funnel">
</g>
<g id="tag">
</g>
<g id="eye_x5F_tracking">
</g>
<g id="report">
</g>
<g id="localisation">
</g>
<g id="mobile">
</g>
<g id="intenet">
</g>
<g id="pie_x5F_chart">
</g>
<g id="page_x5F_search">
</g>
<g id="code">
</g>
<g id="code_x5F_check">
</g>
<g id="link">
</g>
<g id="monetisation">
</g>
<g id="connection">
</g>
<g id="server">
</g>
<g id="white_x5F_hat">
</g>
<g id="ppk">
</g>
<g id="page_x5F_test">
</g>
<g id="money">
</g>
<g id="page_x5F_quality">
</g>
<g id="page_x5F_speed">
</g>
<g id="money_x5F_bag">
</g>
<g id="trolley">
</g>
<g id="adaptive">
</g>
<g id="console">
</g>
<g id="briefcase">
</g>
<g id="cloud">
</g>
<g id="chess">
</g>
<g id="stopwatch">
</g>
<g id="test">
</g>
<g id="user">
</g>
<g id="social">
</g>
<g id="like">
</g>
<g id="crown">
</g>
<g id="target">
</g>
<g id="images">
</g>
<g id="calendar">
</g>
<g id="newspaper">
</g>
<g id="pencil">
</g>
<g id="email">
</g>
<g id="rocket">
</g>
<g id="trophy">
</g>
<g id="shop">
</g>
<g id="support">
</g>
</svg>
