<?xml version="1.0" encoding="iso-8859-1"?>
<!-- Generator: Adobe Illustrator 21.0.0, SVG Export Plug-In . SVG Version: 6.00 Build 0)  -->
<svg version="1.1" xmlns="http://www.w3.org/2000/svg" xmlns:xlink="http://www.w3.org/1999/xlink" x="0px" y="0px"
	 viewBox="0 0 44 44" style="enable-background:new 0 0 44 44;" xml:space="preserve">
<g id="page_x5F_settings">
</g>
<g id="pc_x5F_report">
</g>
<g id="chat">
</g>
<g id="marketing">
</g>
<g id="analytics">
</g>
<g id="search_1_">
</g>
<g id="funnel">
</g>
<g id="tag">
</g>
<g id="eye_x5F_tracking">
</g>
<g id="report">
</g>
<g id="localisation">
</g>
<g id="mobile">
</g>
<g id="intenet">
</g>
<g id="pie_x5F_chart">
</g>
<g id="page_x5F_search">
</g>
<g id="code">
</g>
<g id="code_x5F_check">
</g>
<g id="link">
</g>
<g id="monetisation">
</g>
<g id="connection">
</g>
<g id="server">
</g>
<g id="white_x5F_hat">
</g>
<g id="ppk">
</g>
<g id="page_x5F_test">
</g>
<g id="money">
</g>
<g id="page_x5F_quality">
</g>
<g id="page_x5F_speed">
</g>
<g id="money_x5F_bag">
</g>
<g id="trolley">
</g>
<g id="adaptive">
</g>
<g id="console">
</g>
<g id="briefcase">
</g>
<g id="cloud">
</g>
<g id="chess">
</g>
<g id="stopwatch">
</g>
<g id="test">
</g>
<g id="user">
</g>
<g id="social">
</g>
<g id="like">
</g>
<g id="crown">
</g>
<g id="target">
</g>
<g id="images">
</g>
<g id="calendar">
</g>
<g id="newspaper">
</g>
<g id="pencil">
	<g>
		<path style="fill:#FFC95C;" d="M16,31.998c1.05,0,2.1,0.264,3,0.792c1.483-0.87,3.374-1.023,5-0.46V12H14v20.33
			C14.639,32.108,15.32,31.998,16,31.998z"/>
		<path style="fill:#EEC8AD;" d="M19.625,34.78c-0.366,0.293-0.885,0.293-1.251,0c-1.072-0.859-2.759-1.004-4.037-0.431l4.05,7.291
			c0.247,0.443,0.977,0.444,1.224-0.001l4.05-7.29C22.383,33.776,20.696,33.921,19.625,34.78z"/>
		<g>
			<g>
				<path style="fill:#E1B597;" d="M21.948,34.014c0.016,0.006,0.036,0.005,0.052,0.012L19,42c0.246,0.443,0.365,0.085,0.611-0.36
					l4.051-7.29C23.136,34.114,22.541,34.007,21.948,34.014z"/>
			</g>
		</g>
		<path style="fill:#EF4C4E;" d="M24,3c0-0.552-0.449-1-1-1h-8c-0.551,0-1,0.448-1,1v3h10V3z"/>
		<path style="fill:#AFC3D7;" d="M13,10h12c0.551,0,1-0.448,1-1s-0.449-1-1-1H13c-0.551,0-1,0.448-1,1S12.449,10,13,10z"/>
		<g>
			<path style="fill:#004463;" d="M19,30c-0.552,0-1-0.447-1-1V15c0-0.553,0.448-1,1-1s1,0.447,1,1v14C20,29.553,19.552,30,19,30z"
				/>
		</g>
		<g>
			<path style="fill:#97B3CC;" d="M25,10h-3V8h3c0.552,0,1,0.448,1,1v0C26,9.552,25.552,10,25,10z"/>
		</g>
		<g>
			<path style="fill:#DB3440;" d="M24,6h-2V2h1c0.552,0,1,0.448,1,1V6z"/>
		</g>
		<g>
			<path style="fill:#F4B344;" d="M22,12h-8v1h7c0.552,0,1,0.448,1,1v18.002c0.681,0,1.361,0.106,2,0.328V12H22z"/>
		</g>
		<g>
			<circle style="fill:#004463;" cx="33" cy="43" r="1"/>
			<path style="fill:#004463;" d="M30,42h-8.301l4.175-7.515C25.955,34.34,26,34.173,26,34V11.816c1.161-0.414,2-1.514,2-2.816
				s-0.839-2.402-2-2.816V3c0-1.654-1.346-3-3-3h-8c-1.654,0-3,1.346-3,3v3.184C10.839,6.598,10,7.698,10,9s0.839,2.402,2,2.816V34
				c0,0.173,0.045,0.34,0.126,0.485l4.514,8.127C17.116,43.468,18.021,44,19,44h11c0.552,0,1-0.447,1-1S30.552,42,30,42z M14,3
				c0-0.552,0.449-1,1-1h8c0.551,0,1,0.448,1,1v3H14V3z M12,9c0-0.552,0.449-1,1-1h12c0.551,0,1,0.448,1,1s-0.449,1-1,1H13
				C12.449,10,12,9.552,12,9z M14,12h10v20.33c-1.626-0.563-3.517-0.41-5,0.46c-0.9-0.528-1.95-0.792-3-0.792
				c-0.68,0-1.361,0.11-2,0.332V12z M14.344,34.36c1.278-0.571,2.959-0.439,4.031,0.42c0.366,0.293,0.885,0.293,1.251,0
				c1.072-0.859,2.753-0.992,4.031-0.42L20.523,40h-3.046L14.344,34.36z"/>
		</g>
	</g>
</g>
<g id="email">
</g>
<g id="rocket">
</g>
<g id="trophy">
</g>
<g id="shop">
</g>
<g id="support">
</g>
</svg>
