<?xml version="1.0" encoding="iso-8859-1"?>
<!-- Generator: Adobe Illustrator 21.0.0, SVG Export Plug-In . SVG Version: 6.00 Build 0)  -->
<svg version="1.1" xmlns="http://www.w3.org/2000/svg" xmlns:xlink="http://www.w3.org/1999/xlink" x="0px" y="0px"
	 viewBox="0 0 44 44" style="enable-background:new 0 0 44 44;" xml:space="preserve">
<g id="page_x5F_settings">
</g>
<g id="pc_x5F_report">
</g>
<g id="chat">
</g>
<g id="marketing">
</g>
<g id="analytics">
</g>
<g id="search_1_">
</g>
<g id="funnel">
</g>
<g id="tag">
</g>
<g id="eye_x5F_tracking">
</g>
<g id="report">
</g>
<g id="localisation">
</g>
<g id="mobile">
</g>
<g id="intenet">
</g>
<g id="pie_x5F_chart">
	<g>
		<path style="fill:#FFC95C;" d="M41.968,23H28.64l9.971,8.82C40.597,29.275,41.767,26.204,41.968,23z"/>
		<path style="fill:#004463;" d="M38.719,34.252c-0.235,0-0.472-0.083-0.662-0.251l-12.72-11.252
			c-0.311-0.275-0.42-0.715-0.272-1.104C25.212,21.257,25.584,21,26,21h17c0.552,0,1,0.448,1,1c0,4.383-1.609,8.614-4.532,11.915
			C39.271,34.138,38.996,34.252,38.719,34.252z M28.64,23l9.971,8.82c1.987-2.545,3.156-5.616,3.358-8.82H28.64z"/>
		<path style="fill:#70B6E4;" d="M27,2.031V17h14.969C41.472,8.973,35.027,2.528,27,2.031z"/>
		<path style="fill:#004463;" d="M43,19H26c-0.552,0-1-0.448-1-1V1c0-0.552,0.448-1,1-1c9.925,0,18,8.075,18,18
			C44,18.552,43.552,19,43,19z M27,17h14.969C41.472,8.973,35.027,2.528,27,2.031V17z"/>
		<path style="fill:#8EC861;" d="M19.353,25.763C19.129,25.573,19,25.294,19,25V8C9.626,8,2,15.626,2,25s7.626,17,17,17
			c4.852,0,9.487-2.095,12.722-5.749L19.353,25.763z"/>
		<path style="fill:#004463;" d="M19,44C8.523,44,0,35.477,0,25S8.523,6,19,6h1c0.552,0,1,0.448,1,1v17.537l12.793,10.849
			c0.205,0.174,0.331,0.423,0.351,0.69c0.019,0.268-0.07,0.533-0.248,0.734l-0.662,0.75C29.62,41.653,24.432,44,19,44z M19,8
			C9.626,8,2,15.626,2,25s7.626,17,17,17c4.852,0,9.487-2.095,12.722-5.749L19.353,25.763C19.129,25.573,19,25.294,19,25V8z"/>
		<g>
			<circle style="fill:#004463;" cx="9" cy="25" r="2"/>
		</g>
		<g>
			<circle style="fill:#004463;" cx="15" cy="31" r="2"/>
		</g>
		<g>
			<path style="fill:#004463;" d="M8.999,33C8.791,33,8.58,32.935,8.4,32.8c-0.442-0.331-0.531-0.958-0.2-1.4l6-8
				c0.331-0.441,0.957-0.531,1.4-0.2c0.442,0.331,0.531,0.958,0.2,1.4l-6,8C9.604,32.862,9.303,33,8.999,33z"/>
		</g>
	</g>
</g>
<g id="page_x5F_search">
</g>
<g id="code">
</g>
<g id="code_x5F_check">
</g>
<g id="link">
</g>
<g id="monetisation">
</g>
<g id="connection">
</g>
<g id="server">
</g>
<g id="white_x5F_hat">
</g>
<g id="ppk">
</g>
<g id="page_x5F_test">
</g>
<g id="money">
</g>
<g id="page_x5F_quality">
</g>
<g id="page_x5F_speed">
</g>
<g id="money_x5F_bag">
</g>
<g id="trolley">
</g>
<g id="adaptive">
</g>
<g id="console">
</g>
<g id="briefcase">
</g>
<g id="cloud">
</g>
<g id="chess">
</g>
<g id="stopwatch">
</g>
<g id="test">
</g>
<g id="user">
</g>
<g id="social">
</g>
<g id="like">
</g>
<g id="crown">
</g>
<g id="target">
</g>
<g id="images">
</g>
<g id="calendar">
</g>
<g id="newspaper">
</g>
<g id="pencil">
</g>
<g id="email">
</g>
<g id="rocket">
</g>
<g id="trophy">
</g>
<g id="shop">
</g>
<g id="support">
</g>
</svg>
