<?xml version="1.0" encoding="iso-8859-1"?>
<!-- Generator: Adobe Illustrator 21.0.0, SVG Export Plug-In . SVG Version: 6.00 Build 0)  -->
<svg version="1.1" xmlns="http://www.w3.org/2000/svg" xmlns:xlink="http://www.w3.org/1999/xlink" x="0px" y="0px"
	 viewBox="0 0 44 44" style="enable-background:new 0 0 44 44;" xml:space="preserve">
<g id="page_x5F_settings">
</g>
<g id="pc_x5F_report">
</g>
<g id="chat">
</g>
<g id="marketing">
</g>
<g id="analytics">
</g>
<g id="search_1_">
</g>
<g id="funnel">
</g>
<g id="tag">
</g>
<g id="eye_x5F_tracking">
</g>
<g id="report">
</g>
<g id="localisation">
</g>
<g id="mobile">
</g>
<g id="intenet">
</g>
<g id="pie_x5F_chart">
</g>
<g id="page_x5F_search">
</g>
<g id="code">
</g>
<g id="code_x5F_check">
</g>
<g id="link">
</g>
<g id="monetisation">
</g>
<g id="connection">
</g>
<g id="server">
</g>
<g id="white_x5F_hat">
</g>
<g id="ppk">
</g>
<g id="page_x5F_test">
</g>
<g id="money">
</g>
<g id="page_x5F_quality">
</g>
<g id="page_x5F_speed">
</g>
<g id="money_x5F_bag">
</g>
<g id="trolley">
</g>
<g id="adaptive">
</g>
<g id="console">
</g>
<g id="briefcase">
</g>
<g id="cloud">
</g>
<g id="chess">
</g>
<g id="stopwatch">
</g>
<g id="test">
</g>
<g id="user">
</g>
<g id="social">
</g>
<g id="like">
</g>
<g id="crown">
</g>
<g id="target">
</g>
<g id="images">
</g>
<g id="calendar">
</g>
<g id="newspaper">
</g>
<g id="pencil">
</g>
<g id="email">
</g>
<g id="rocket">
	<g>
		<g>
			<path style="fill:#004463;" d="M5,40c-0.256,0-0.512-0.098-0.707-0.293c-0.391-0.391-0.391-1.023,0-1.414l6-6
				c0.391-0.391,1.023-0.391,1.414,0s0.391,1.023,0,1.414l-6,6C5.512,39.902,5.256,40,5,40z"/>
		</g>
		<g>
			<path style="fill:#004463;" d="M1,44c-0.256,0-0.512-0.098-0.707-0.293c-0.391-0.391-0.391-1.023,0-1.414l2-2
				c0.391-0.391,1.023-0.391,1.414,0s0.391,1.023,0,1.414l-2,2C1.512,43.902,1.256,44,1,44z"/>
		</g>
		<path style="fill:#EBEEF7;" d="M37.709,2c-4.06,0-7.876,1.581-10.747,4.451L11.414,22L22,32.586l15.549-15.549
			C40.419,14.167,42,10.35,42,6.291V4.414c0-0.635-0.258-1.258-0.707-1.707C40.837,2.251,40.231,2,39.586,2H37.709z"/>
		<path style="fill:#CCD9E4;" d="M41.586,3.063V3.29c0,4.059-1.581,7.875-4.451,10.747L21.586,29.586l-8.879-8.879L11.414,22
			L22,32.586l15.549-15.549C40.419,14.166,42,10.35,42,6.29V4.414C42,3.925,41.854,3.459,41.586,3.063z"/>
		<polygon style="fill:#AFC3D7;" points="29,31.586 29,28.414 25.414,32 27,33.586 		"/>
		<path style="fill:#EBEEF7;" d="M32.878,30.536L26.414,37L29,39.586l6.464-6.465C35.81,32.776,36,32.317,36,31.828
			C36,30.82,35.18,30,34.171,30C33.683,30,33.224,30.19,32.878,30.536z"/>
		<g>
			<path style="fill:#CCD9E4;" d="M35.546,30.624c-0.073,0.34-0.244,0.66-0.496,0.911L28.586,38L27,36.414L26.414,37L29,39.586
				l6.465-6.464C35.81,32.776,36,32.317,36,31.829C36,31.368,35.828,30.946,35.546,30.624z"/>
		</g>
		<path style="fill:#AFC3D7;" d="M11.658,26.501c-0.413,0.138-0.808,0.331-1.172,0.571l6.442,6.441
			c0.24-0.364,0.433-0.759,0.57-1.171l0.357-1.072l-5.126-5.126L11.658,26.501z"/>
		<path style="fill:#97B3CC;" d="M12.729,26.144l-1.006,0.336l3.664,3.664c0.611,0.611,0.825,1.53,0.51,2.335l-0.001,0.003
			l1.032,1.032c0.24-0.364,0.434-0.759,0.57-1.171l0.357-1.072L12.729,26.144z"/>
		<polygon style="fill:#AFC3D7;" points="12,18.586 15.586,15 12.414,15 10.414,17 		"/>
		<path style="fill:#EBEEF7;" d="M10.878,8.536L4.414,15L7,17.586l6.464-6.465C13.81,10.776,14,10.317,14,9.828
			C14,8.82,13.18,8,12.171,8C11.683,8,11.224,8.19,10.878,8.536z"/>
		<g>
			<path style="fill:#004463;" d="M23,44c-0.256,0-0.512-0.098-0.707-0.293c-0.391-0.391-0.391-1.023,0-1.414l2-2
				c0.391-0.391,1.023-0.391,1.414,0s0.391,1.023,0,1.414l-2,2C23.512,43.902,23.256,44,23,44z"/>
		</g>
		<g>
			<path style="fill:#004463;" d="M12,39c-0.256,0-0.512-0.098-0.707-0.293c-0.391-0.391-0.391-1.023,0-1.414l2-2
				c0.391-0.391,1.023-0.391,1.414,0s0.391,1.023,0,1.414l-2,2C12.512,38.902,12.256,39,12,39z"/>
		</g>
		<g>
			<path style="fill:#004463;" d="M6,33c-0.256,0-0.512-0.098-0.707-0.293c-0.391-0.391-0.391-1.023,0-1.414l2-2
				c0.391-0.391,1.023-0.391,1.414,0s0.391,1.023,0,1.414l-2,2C6.512,32.902,6.256,33,6,33z"/>
		</g>
		<g>
			<path style="fill:#004463;" d="M1,22c-0.256,0-0.512-0.098-0.707-0.293c-0.391-0.391-0.391-1.023,0-1.414l2-2
				c0.391-0.391,1.023-0.391,1.414,0s0.391,1.023,0,1.414l-2,2C1.512,21.902,1.256,22,1,22z"/>
		</g>
		<g>
			<circle style="fill:#ACD6F2;" cx="29" cy="15" r="3"/>
		</g>
		<path style="fill:#70B6E4;" d="M27.444,17.564C27.166,17.109,27,16.571,27,16c0-1.654,1.346-3,3-3c0.571,0,1.106,0.16,1.56,0.438
			C31.033,12.574,30.084,12,29,12c-1.654,0-3,1.346-3,3C26,16.084,26.58,17.037,27.444,17.564z"/>
		<path style="fill:#EF4C4E;" d="M37.709,2c-1.463,0-2.934,0.2-4.375,0.639c0.932,3.906,3.975,7.035,8.027,8.027
			C41.8,9.224,42,7.753,42,6.291V4.414c0-0.635-0.258-1.258-0.707-1.707C40.837,2.251,40.231,2,39.586,2H37.709z"/>
		<path style="fill:#DB3440;" d="M41.586,3.29c0,2.445-0.584,4.798-1.667,6.913c0.459,0.183,0.955,0.341,1.443,0.462
			c0.011-0.037,0.014-0.073,0.027-0.11C41.821,9.166,42,7.756,42,6.29V4.414c0-0.489-0.146-0.955-0.414-1.351V3.29z"/>
		
			<line style="fill:none;stroke:#004463;stroke-width:2;stroke-linecap:round;stroke-linejoin:round;stroke-miterlimit:10;" x1="14" y1="18" x2="26" y2="30"/>
		
			<rect x="16.171" y="18.515" transform="matrix(0.7071 -0.7071 0.7071 0.7071 -13.1127 20.3431)" style="fill:#EF4C4E;" width="3.657" height="14.971"/>
		<path style="fill:#DB3440;" d="M20.293,28.293l-7.586-7.586L11.414,22L22,32.586L24.586,30l-1.707-1.707l0,0
			C22.165,29.007,21.007,29.007,20.293,28.293z"/>
		
			<rect x="27.379" y="35.671" transform="matrix(0.7071 -0.7071 0.7071 0.7071 -18.169 31.136)" style="fill:#EF4C4E;" width="2.243" height="3.657"/>
		<g>
			<path style="fill:#DB3440;" d="M29.586,37L29.586,37c-0.552,0.552-1.448,0.552-2,0L27,36.414L26.414,37L29,39.586L30.586,38
				L29.586,37z"/>
		</g>
		<g>
			<path style="fill:#CCD9E4;" d="M13.553,8.631c-0.073,0.34-0.251,0.653-0.502,0.905L6.586,16L5,14.414L4.414,15L7,17.586
				l6.465-6.464C13.81,10.776,14,10.317,14,9.829C14,9.368,13.835,8.953,13.553,8.631z"/>
		</g>
		
			<rect x="5.379" y="13.671" transform="matrix(0.7068 -0.7074 0.7074 0.7068 -9.0589 9.1432)" style="fill:#EF4C4E;" width="2.242" height="3.656"/>
		<g>
			<path style="fill:#DB3440;" d="M7.586,15L7.586,15c-0.552,0.552-1.448,0.552-2,0L5,14.414L4.414,15L7,17.583L8.586,16L7.586,15z"
				/>
		</g>
		<path style="fill:#004463;" d="M29,20c-2.757,0-5-2.243-5-5s2.243-5,5-5s5,2.243,5,5S31.757,20,29,20z M29,12
			c-1.654,0-3,1.346-3,3s1.346,3,3,3s3-1.346,3-3S30.654,12,29,12z"/>
		<path style="fill:#004463;" d="M42.708,1.293C41.874,0.459,40.766,0,39.586,0h-1.876c-4.594,0-8.913,1.789-12.161,5.037L17.586,13
			h-3.172l0.464-0.464C15.602,11.813,16,10.851,16,9.828C16,7.717,14.283,6,12.171,6c-1.022,0-1.983,0.398-2.707,1.121l-7.171,7.172
			c-0.391,0.391-0.391,1.023,0,1.414l4,4C6.48,19.895,6.735,20,7,20s0.52-0.105,0.707-0.293L9,18.414L10.586,20l-1.293,1.293
			c-0.391,0.391-0.391,1.023,0,1.414l1.856,1.856l-0.123,0.041c-1.024,0.341-1.969,0.925-2.733,1.689
			c-0.391,0.391-0.391,1.023,0,1.414l8,8C16.488,35.902,16.744,36,17,36s0.512-0.098,0.707-0.293
			c0.764-0.764,1.348-1.708,1.689-2.732l0.041-0.123l1.856,1.856C21.488,34.902,21.744,35,22,35s0.512-0.098,0.707-0.293L24,33.414
			L25.586,35l-1.293,1.293c-0.391,0.391-0.391,1.023,0,1.414l4,4C28.48,41.895,28.735,42,29,42s0.52-0.105,0.707-0.293l7.171-7.171
			C37.602,33.813,38,32.851,38,31.828C38,29.717,36.283,28,34.171,28c-1.022,0-1.983,0.398-2.707,1.121L31,29.586v-3.171
			l7.963-7.963C42.211,15.203,44,10.884,44,6.291V4.414C44,3.235,43.541,2.126,42.708,1.293z M10.878,8.536
			C11.224,8.19,11.683,8,12.171,8C13.18,8,14,8.82,14,9.828c0,0.489-0.19,0.948-0.536,1.293L10,14.586L7.414,12L10.878,8.536z
			 M7,17.586L4.414,15L6,13.414L8.586,16L7,17.586z M10.414,17l2-2h3.172L12,18.586L10.414,17z M17.499,32.342
			c-0.138,0.413-0.331,0.808-0.57,1.171l-6.442-6.441c0.364-0.24,0.759-0.433,1.172-0.571l1.072-0.357l5.126,5.126L17.499,32.342z
			 M22,32.586L11.414,22L14,19.414L24.586,30L22,32.586z M29,39.586L26.414,37L28,35.414L30.586,38L29,39.586z M32.878,30.536
			C33.224,30.19,33.683,30,34.171,30C35.18,30,36,30.82,36,31.828c0,0.489-0.19,0.948-0.536,1.293L32,36.586L29.414,34
			L32.878,30.536z M29,31.586l-2,2L25.414,32L29,28.414V31.586z M37.549,17.037L26,28.586L15.414,18L26.963,6.451
			c1.319-1.319,2.844-2.351,4.495-3.097c1.194,4.484,4.705,7.994,9.188,9.188C39.9,14.193,38.868,15.718,37.549,17.037z M42,6.291
			c0,1.504-0.219,2.974-0.639,4.375c-3.956-0.973-7.054-4.071-8.027-8.027C34.736,2.219,36.206,2,37.709,2h1.876
			c0.645,0,1.251,0.251,1.707,0.707C41.742,3.156,42,3.779,42,4.414V6.291z"/>
	</g>
</g>
<g id="trophy">
</g>
<g id="shop">
</g>
<g id="support">
</g>
</svg>
