<?xml version="1.0" encoding="iso-8859-1"?>
<!-- Generator: Adobe Illustrator 21.0.0, SVG Export Plug-In . SVG Version: 6.00 Build 0)  -->
<svg version="1.1" xmlns="http://www.w3.org/2000/svg" xmlns:xlink="http://www.w3.org/1999/xlink" x="0px" y="0px"
	 viewBox="0 0 44 44" style="enable-background:new 0 0 44 44;" xml:space="preserve">
<g id="page_x5F_settings">
</g>
<g id="pc_x5F_report">
</g>
<g id="chat">
</g>
<g id="marketing">
</g>
<g id="analytics">
</g>
<g id="search_1_">
</g>
<g id="funnel">
</g>
<g id="tag">
</g>
<g id="eye_x5F_tracking">
</g>
<g id="report">
</g>
<g id="localisation">
</g>
<g id="mobile">
</g>
<g id="intenet">
</g>
<g id="pie_x5F_chart">
</g>
<g id="page_x5F_search">
</g>
<g id="code">
</g>
<g id="code_x5F_check">
</g>
<g id="link">
</g>
<g id="monetisation">
</g>
<g id="connection">
</g>
<g id="server">
</g>
<g id="white_x5F_hat">
</g>
<g id="ppk">
</g>
<g id="page_x5F_test">
</g>
<g id="money">
</g>
<g id="page_x5F_quality">
</g>
<g id="page_x5F_speed">
</g>
<g id="money_x5F_bag">
</g>
<g id="trolley">
</g>
<g id="adaptive">
</g>
<g id="console">
</g>
<g id="briefcase">
</g>
<g id="cloud">
</g>
<g id="chess">
</g>
<g id="stopwatch">
</g>
<g id="test">
</g>
<g id="user">
</g>
<g id="social">
</g>
<g id="like">
</g>
<g id="crown">
</g>
<g id="target">
</g>
<g id="images">
</g>
<g id="calendar">
</g>
<g id="newspaper">
</g>
<g id="pencil">
</g>
<g id="email">
</g>
<g id="rocket">
</g>
<g id="trophy">
</g>
<g id="shop">
	<g>
		<rect x="5" y="33" style="fill:#EBEEF7;" width="11" height="4"/>
		<rect x="28" y="33" style="fill:#EBEEF7;" width="11" height="4"/>
		<path style="fill:#CCD9E4;" d="M27,20H17H5v-1.09c0.704-0.115,1.388-0.338,2-0.698c1.8,1.06,4.2,1.06,6,0c1.8,1.06,4.2,1.06,6,0
			c1.8,1.06,4.2,1.06,6,0c1.8,1.06,4.2,1.06,6,0c1.8,1.06,4.2,1.06,6,0c0.612,0.36,1.296,0.588,2,0.704V20H27z"/>
		<rect x="18" y="22" style="fill:#B0C4D8;" width="8" height="15"/>
		<path style="fill:#B0C4D8;" d="M42,40c0-0.551-0.449-1-1-1H3c-0.551,0-1,0.449-1,1v1h40V40z"/>
		<circle style="fill:#004463;" cx="24" cy="32" r="1"/>
		<g>
			<rect x="21" y="25" style="fill:#70B6E4;" width="2" height="3"/>
			<path style="fill:#004463;" d="M24,30h-4c-0.552,0-1-0.448-1-1v-5c0-0.552,0.448-1,1-1h4c0.552,0,1,0.448,1,1v5
				C25,29.552,24.552,30,24,30z M21,28h2v-3h-2V28z"/>
		</g>
		<rect x="5" y="22" style="fill:#70B6E4;" width="11" height="9"/>
		<rect x="28" y="22" style="fill:#70B6E4;" width="11" height="9"/>
		<polygon style="fill:#ACD6F2;" points="9,31 7,31 10,22 12,22 		"/>
		<polygon style="fill:#ACD6F2;" points="11,31 10,31 13,22 14,22 		"/>
		<polygon style="fill:#ACD6F2;" points="32,31 30,31 33,22 35,22 		"/>
		<polygon style="fill:#ACD6F2;" points="34,31 33,31 36,22 37,22 		"/>
		<polygon style="fill:#F16A5F;" points="4.618,9 2.618,13 41.382,13 39.382,9 		"/>
		<polygon style="fill:#FFFFFF;" points="12.279,13 13.613,9 10.618,9 8.618,13 		"/>
		<polygon style="fill:#FFFFFF;" points="30.387,9 31.721,13 35.382,13 33.382,9 		"/>
		<polygon style="fill:#FFFFFF;" points="20.181,13 23.819,13 23.153,9 20.847,9 		"/>
		<path style="fill:#EF4B4D;" d="M2,16.479c1.303,0.771,3.204,0.684,4.373-0.257c0.366-0.295,0.888-0.295,1.254,0
			c1.286,1.035,3.46,1.035,4.746,0c0.366-0.295,0.888-0.295,1.254,0c1.286,1.035,3.46,1.035,4.746,0
			c0.366-0.295,0.888-0.295,1.254,0c1.286,1.035,3.46,1.035,4.746,0c0.366-0.295,0.888-0.295,1.254,0
			c1.286,1.035,3.46,1.035,4.746,0c0.366-0.295,0.888-0.295,1.254,0c1.286,1.035,3.46,1.035,4.746,0C36.556,16.074,36.778,16,37,16
			s0.444,0.074,0.627,0.221c1.169,0.941,3.071,1.028,4.373,0.257V15H2V16.479z"/>
		<path style="fill:#D3E2EC;" d="M8,15v1.479c1.172,0.692,2.828,0.692,4,0V15H8z"/>
		<path style="fill:#D3E2EC;" d="M20,15v1.479c1.172,0.692,2.828,0.692,4,0V15H20z"/>
		<path style="fill:#D3E2EC;" d="M32,15v1.479c1.172,0.692,2.828,0.692,4,0V15H32z"/>
		<path style="fill:#EBEEF7;" d="M39,4c0-0.551-0.449-1-1-1H6C5.449,3,5,3.449,5,4v3h34V4z"/>
		<g>
			<circle style="fill:#004463;" cx="30" cy="5" r="1"/>
		</g>
		<g>
			<circle style="fill:#004463;" cx="14" cy="5" r="1"/>
		</g>
		<g>
			<path style="fill:#004463;" d="M27,6H17c-0.552,0-1-0.448-1-1s0.448-1,1-1h10c0.552,0,1,0.448,1,1S27.552,6,27,6z"/>
		</g>
		<path style="fill:#004463;" d="M43.627,17.779C43.863,17.589,44,17.303,44,17v-3c0-0.161-0.038-0.312-0.105-0.447L41,7.764V4
			c0-1.654-1.346-3-3-3H6C4.346,1,3,2.346,3,4v3.764l-2.895,5.789C0.1,13.565,0.078,13.63,0.07,13.656
			C0.045,13.73,0.004,13.857,0,13.961C0,13.975,0,13.986,0,14v3c0,0.303,0.137,0.589,0.373,0.779
			C1.128,18.387,2.045,18.757,3,18.913V37c-1.654,0-3,1.346-3,3v2c0,0.552,0.448,1,1,1h42c0.552,0,1-0.448,1-1v-2
			c0-1.654-1.346-3-3-3V18.924C41.956,18.768,42.871,18.387,43.627,17.779z M28,31v-9h11v9H28z M39,33v4H28v-4H39z M27,20H17H5
			v-1.09c0.704-0.115,1.388-0.338,2-0.698c1.8,1.06,4.2,1.06,6,0c1.8,1.06,4.2,1.06,6,0c1.8,1.06,4.2,1.06,6,0
			c1.8,1.06,4.2,1.06,6,0c1.8,1.06,4.2,1.06,6,0c0.612,0.36,1.296,0.588,2,0.704V20H27z M26,22v15h-8V22H26z M5,33h11v4H5V33z M5,31
			v-9h11v9H5z M12,15v1.465c-1.174,0.697-2.826,0.697-4,0V15H12z M8.618,13l2-4h2.995l-1.333,4H8.618z M18,15v1.465
			c-1.174,0.697-2.826,0.697-4,0V15H18z M14.388,13l1.333-4h3.099l-0.667,4H14.388z M24,15v1.465c-1.174,0.697-2.826,0.697-4,0V15
			H24z M20.181,13l0.667-4h2.306l0.667,4H20.181z M25.847,13l-0.667-4h3.099l1.333,4H25.847z M30,15v1.465
			c-1.174,0.697-2.826,0.697-4,0V15H30z M31.721,13l-1.333-4h2.995l2,4H31.721z M36,15v1.465c-1.174,0.697-2.826,0.697-4,0V15H36z
			 M42,16.479c-1.173,0.694-2.828,0.686-4-0.009V15h4V16.479z M41.382,13h-3.764l-2-4h3.764L41.382,13z M5,4c0-0.551,0.449-1,1-1h32
			c0.551,0,1,0.449,1,1v3H5V4z M4.618,9h3.764l-2,4H2.618L4.618,9z M2,15h4v1.47c-1.172,0.695-2.826,0.703-4,0.009V15z M42,40v1H2
			v-1c0-0.551,0.449-1,1-1h38C41.551,39,42,39.449,42,40z"/>
	</g>
</g>
<g id="support">
</g>
</svg>
