<?xml version="1.0" encoding="iso-8859-1"?>
<!-- Generator: Adobe Illustrator 21.0.0, SVG Export Plug-In . SVG Version: 6.00 Build 0)  -->
<svg version="1.1" xmlns="http://www.w3.org/2000/svg" xmlns:xlink="http://www.w3.org/1999/xlink" x="0px" y="0px"
	 viewBox="0 0 44 44" style="enable-background:new 0 0 44 44;" xml:space="preserve">
<g id="page_x5F_settings">
</g>
<g id="pc_x5F_report">
</g>
<g id="chat">
</g>
<g id="marketing">
</g>
<g id="analytics">
</g>
<g id="search_1_">
</g>
<g id="funnel">
</g>
<g id="tag">
</g>
<g id="eye_x5F_tracking">
</g>
<g id="report">
</g>
<g id="localisation">
</g>
<g id="mobile">
</g>
<g id="intenet">
</g>
<g id="pie_x5F_chart">
</g>
<g id="page_x5F_search">
</g>
<g id="code">
</g>
<g id="code_x5F_check">
</g>
<g id="link">
</g>
<g id="monetisation">
</g>
<g id="connection">
</g>
<g id="server">
</g>
<g id="white_x5F_hat">
</g>
<g id="ppk">
</g>
<g id="page_x5F_test">
</g>
<g id="money">
</g>
<g id="page_x5F_quality">
</g>
<g id="page_x5F_speed">
</g>
<g id="money_x5F_bag">
</g>
<g id="trolley">
</g>
<g id="adaptive">
</g>
<g id="console">
</g>
<g id="briefcase">
</g>
<g id="cloud">
</g>
<g id="chess">
</g>
<g id="stopwatch">
</g>
<g id="test">
</g>
<g id="user">
</g>
<g id="social">
	<g>
		<path style="fill:#EEC8AD;" d="M26,14c0-2.206-1.794-4-4-4s-4,1.794-4,4v2c0,2.206,1.794,4,4,4s4-1.794,4-4V14z"/>
		<g>
			<path style="fill:#E1B597;" d="M25,14.449L25,14.449c-2.325-0.299-4.691-0.267-7,0.156v1c1.755-0.303,3.539-0.392,5.314-0.287
				c0.936,0.055,1.518,1.111,1.001,1.893C23.603,18.288,22.387,19,21,19c-0.848,0-1.632-0.269-2.279-0.72
				c0.785,1.126,2.13,1.835,3.632,1.705C24.452,19.803,26,18.302,26,15.813v-0.208v-1.008C25.667,14.539,25.335,14.492,25,14.449z"
				/>
		</g>
		<path style="fill:#8EC861;" d="M30,22.64V29h11c0.551,0,1-0.449,1-1v-5.36c0-0.475-0.338-0.888-0.804-0.981l-1.431-0.286
			c-2.474-0.494-5.056-0.494-7.529,0l-1.431,0.286C30.338,21.752,30,22.165,30,22.64z"/>
		<path style="fill:#004463;" d="M41,31H29c-0.552,0-1-0.448-1-1v-7.36c0-1.425,1.014-2.663,2.412-2.942l1.431-0.286
			c2.732-0.546,5.583-0.546,8.314,0l1.432,0.286C42.986,19.977,44,21.214,44,22.64V28C44,29.654,42.654,31,41,31z M30,29h11
			c0.551,0,1-0.449,1-1v-5.36c0-0.475-0.338-0.888-0.804-0.981l-1.431-0.286c-2.474-0.494-5.056-0.494-7.529,0l-1.431,0.286
			C30.338,21.752,30,22.165,30,22.64V29z"/>
		<g>
			<path style="fill:#70B856;" d="M41.196,21.659L41,21.619v4.379c0,0.551-0.448,1-1,1H30V29h11c0.552,0,1-0.449,1-1v-5.36
				C42,22.165,41.662,21.752,41.196,21.659z"/>
		</g>
		<path style="fill:#EF4C4E;" d="M2,22.64V28c0,0.551,0.449,1,1,1h11v-6.36c0-0.475-0.338-0.888-0.804-0.981l-1.431-0.286
			C10.528,21.125,9.261,21,8,21s-2.528,0.125-3.765,0.373l-1.431,0.286C2.338,21.752,2,22.165,2,22.64z"/>
		<path style="fill:#004463;" d="M15,31H3c-1.654,0-3-1.346-3-3v-5.36c0-1.425,1.014-2.663,2.412-2.942l1.431-0.286
			c2.732-0.546,5.583-0.546,8.314,0l1.432,0.286C14.986,19.977,16,21.214,16,22.64V30C16,30.552,15.552,31,15,31z M8,21
			c-1.261,0-2.528,0.125-3.765,0.373l-1.431,0.286C2.338,21.752,2,22.165,2,22.64V28c0,0.551,0.449,1,1,1h11v-6.36
			c0-0.475-0.338-0.888-0.804-0.981l-1.431-0.286C10.528,21.125,9.261,21,8,21z"/>
		<g>
			<path style="fill:#DB3440;" d="M13.196,21.659L13,21.619V25c0,1.105-0.895,2-2,2H2v1c0,0.551,0.448,1,1,1h11v-6.36
				C14,22.165,13.662,21.752,13.196,21.659z"/>
		</g>
		<path style="fill:#70B6E4;" d="M30,35.438v-7.704c0-0.494-0.369-0.919-0.858-0.99l-3.802-0.543C24.403,26.068,23.448,26,22.503,26
			h-1.007c-0.945,0-1.899,0.068-2.837,0.201l-3.801,0.543C14.369,26.815,14,27.24,14,27.734v7.704c0,0.46,0.312,0.859,0.758,0.97
			l5.515,1.378c1.13,0.282,2.326,0.282,3.454,0l5.516-1.378C29.688,36.297,30,35.898,30,35.438z"/>
		<path style="fill:#004463;" d="M22,40c-0.745,0-1.489-0.092-2.212-0.272l-5.515-1.378C12.935,38.015,12,36.818,12,35.438v-7.704
			c0-1.483,1.107-2.76,2.576-2.969l3.801-0.543C19.408,24.075,20.458,24,21.497,24h1.007c1.039,0,2.088,0.075,3.119,0.222
			l3.802,0.543C30.893,24.975,32,26.251,32,27.734v7.704c0,1.379-0.935,2.576-2.272,2.911l0,0l-5.516,1.378
			C23.489,39.908,22.745,40,22,40z M21.497,26c-0.945,0-1.899,0.068-2.837,0.201l-3.801,0.543C14.369,26.815,14,27.24,14,27.734
			v7.704c0,0.46,0.312,0.859,0.758,0.97l5.515,1.378c1.13,0.282,2.326,0.282,3.454,0l5.516-1.378c0.446-0.111,0.758-0.51,0.758-0.97
			v-7.704c0-0.494-0.369-0.919-0.858-0.99l-3.802-0.543C24.403,26.068,23.448,26,22.503,26H21.497z M29.485,37.379h0.01H29.485z"/>
		<g>
			<path style="fill:#004463;" d="M34,40c-0.552,0-1-0.448-1-1s0.448-1,1-1c2.757,0,5-2.243,5-5c0-0.552,0.448-1,1-1s1,0.448,1,1
				C41,36.86,37.86,40,34,40z"/>
		</g>
		<g>
			<path style="fill:#004463;" d="M10,40c-3.86,0-7-3.14-7-7c0-0.552,0.448-1,1-1s1,0.448,1,1c0,2.757,2.243,5,5,5
				c0.552,0,1,0.448,1,1S10.552,40,10,40z"/>
		</g>
		<g>
			<path style="fill:#4C9BD5;" d="M29.142,26.745L29,26.724v6.185c0,0.918-0.625,1.718-1.515,1.94l-3.757,0.939
				c-1.134,0.283-2.321,0.283-3.455,0l-5.514-1.378C14.312,34.299,14,33.9,14,33.44v1.998c0,0.459,0.312,0.859,0.758,0.971
				l5.514,1.378c1.134,0.284,2.321,0.284,3.455,0L29,36.469l0,0l0.243-0.061C29.688,36.297,30,35.898,30,35.438V33.44v-5.706
				C30,27.24,29.631,26.814,29.142,26.745z"/>
		</g>
		<path style="fill:#D88A36;" d="M22,12.251c1.587,0,3.173,0.149,4.734,0.445C26.042,10.516,24.184,9,22,9s-4.042,1.516-4.734,3.696
			C18.827,12.4,20.413,12.251,22,12.251z"/>
		<g>
			<g>
				<path style="fill:#C77629;" d="M25.393,12.506c0.448,0.06,0.897,0.106,1.341,0.19C26.041,10.516,24.184,9,22,9
					c-0.215,0-0.425,0.011-0.633,0.04C23.206,9.293,24.728,10.643,25.393,12.506z"/>
			</g>
		</g>
		<path style="fill:#004463;" d="M22,7c-3.674,0-6.682,2.975-6.997,6.92c-0.025,0.322,0.105,0.636,0.352,0.844
			c0.182,0.154,0.412,0.234,0.645,0.235V16c0,3.309,2.691,6,6,6s6-2.691,6-6v-1c0.233,0,0.462-0.082,0.645-0.236
			c0.247-0.208,0.377-0.522,0.352-0.844C28.682,9.975,25.674,7,22,7z M22,9c2.184,0,4.042,1.516,4.734,3.696
			C25.173,12.4,23.587,12.251,22,12.251s-3.173,0.149-4.734,0.445C17.958,10.516,19.816,9,22,9z M22,20c-2.206,0-4-1.794-4-4v-1.395
			c2.643-0.456,5.357-0.456,8,0V16C26,18.206,24.206,20,22,20z"/>
		<g>
			<path style="fill:#EEC8AD;" d="M39,10c0-1.654-1.346-3-3-3s-3,1.346-3,3v2c0,1.654,1.346,3,3,3s3-1.346,3-3V10z"/>
			<path style="fill:#D88A36;" d="M36,8.376c1.237,0,2.474,0.108,3.693,0.322C39.077,7.093,37.655,6,36,6s-3.077,1.093-3.693,2.698
				C33.526,8.484,34.763,8.376,36,8.376z"/>
			<g>
				<path style="fill:#E1B597;" d="M38,10.49L38,10.49c-1.664-0.172-3.346-0.128-5,0.131v1c1.337-0.209,2.693-0.269,4.042-0.194
					c0.513,0.029,0.813,0.603,0.56,1.05C37.088,13.385,36.117,14,35,14c-0.571,0-1.099-0.169-1.554-0.446
					c0.628,1.029,1.846,1.659,3.189,1.38C38.041,14.642,39,13.584,39,11.889v-0.268v-1C38.668,10.569,38.335,10.524,38,10.49z"/>
			</g>
			<g>
				<g>
					<path style="fill:#C77629;" d="M38.302,8.516c0.465,0.051,0.93,0.102,1.391,0.183C39.077,7.093,37.655,6,36,6
						c-0.223,0-0.44,0.016-0.653,0.055C36.653,6.289,37.741,7.224,38.302,8.516z"/>
				</g>
			</g>
			<path style="fill:#004463;" d="M36,4c-3.149,0-5.728,2.545-5.997,5.92c-0.025,0.322,0.105,0.636,0.352,0.844
				c0.182,0.154,0.411,0.234,0.645,0.234V12c0,2.757,2.243,5,5,5s5-2.243,5-5v-1c0.233,0,0.463-0.082,0.645-0.236
				c0.247-0.208,0.377-0.522,0.352-0.844C41.728,6.545,39.149,4,36,4z M36,6c1.655,0,3.077,1.093,3.693,2.698
				C38.474,8.484,37.237,8.376,36,8.376s-2.474,0.108-3.693,0.322C32.923,7.093,34.345,6,36,6z M36,15c-1.654,0-3-1.346-3-3v-1.379
				c1.986-0.31,4.014-0.31,6,0V12C39,13.654,37.654,15,36,15z"/>
		</g>
		<g>
			<path style="fill:#EEC8AD;" d="M11,10c0-1.654-1.346-3-3-3s-3,1.346-3,3v2c0,1.654,1.346,3,3,3s3-1.346,3-3V10z"/>
			<path style="fill:#D88A36;" d="M8,8.376c1.237,0,2.474,0.108,3.693,0.322C11.077,7.093,9.655,6,8,6S4.924,7.093,4.307,8.698
				C5.527,8.484,6.763,8.376,8,8.376z"/>
			<g>
				<path style="fill:#E1B597;" d="M10,10.49L10,10.49c-1.664-0.172-3.346-0.128-5,0.131v1c1.337-0.209,2.693-0.269,4.042-0.194
					c0.513,0.029,0.813,0.603,0.56,1.05C9.088,13.385,8.117,14,7,14c-0.571,0-1.099-0.169-1.554-0.446
					c0.628,1.029,1.846,1.659,3.189,1.38C10.041,14.642,11,13.584,11,11.889l0-0.268v-1C10.668,10.569,10.335,10.524,10,10.49z"/>
			</g>
			<g>
				<g>
					<path style="fill:#C77629;" d="M10.302,8.516c0.465,0.051,0.93,0.102,1.391,0.183C11.077,7.093,9.655,6,8,6
						C7.777,6,7.56,6.016,7.347,6.055C8.653,6.289,9.741,7.224,10.302,8.516z"/>
				</g>
			</g>
			<path style="fill:#004463;" d="M8,4C4.851,4,2.273,6.545,2.003,9.92c-0.025,0.322,0.105,0.636,0.352,0.844
				C2.537,10.918,2.767,10.998,3,10.998V12c0,2.757,2.243,5,5,5s5-2.243,5-5v-1c0.233,0,0.463-0.082,0.645-0.236
				c0.247-0.208,0.377-0.522,0.352-0.844C13.728,6.545,11.15,4,8,4z M8,6c1.655,0,3.077,1.093,3.693,2.698
				C10.474,8.484,9.237,8.376,8,8.376S5.527,8.484,4.307,8.698C4.924,7.093,6.345,6,8,6z M8,15c-1.654,0-3-1.346-3-3v-1.379
				c1.986-0.31,4.014-0.31,6,0V12C11,13.654,9.654,15,8,15z"/>
		</g>
	</g>
</g>
<g id="like">
</g>
<g id="crown">
</g>
<g id="target">
</g>
<g id="images">
</g>
<g id="calendar">
</g>
<g id="newspaper">
</g>
<g id="pencil">
</g>
<g id="email">
</g>
<g id="rocket">
</g>
<g id="trophy">
</g>
<g id="shop">
</g>
<g id="support">
</g>
</svg>
