<?xml version="1.0" encoding="iso-8859-1"?>
<!-- Generator: Adobe Illustrator 21.0.0, SVG Export Plug-In . SVG Version: 6.00 Build 0)  -->
<svg version="1.1" xmlns="http://www.w3.org/2000/svg" xmlns:xlink="http://www.w3.org/1999/xlink" x="0px" y="0px"
	 viewBox="0 0 44 44" style="enable-background:new 0 0 44 44;" xml:space="preserve">
<g id="page_x5F_settings">
</g>
<g id="pc_x5F_report">
</g>
<g id="chat">
</g>
<g id="marketing">
</g>
<g id="analytics">
</g>
<g id="search_1_">
</g>
<g id="funnel">
</g>
<g id="tag">
</g>
<g id="eye_x5F_tracking">
</g>
<g id="report">
</g>
<g id="localisation">
</g>
<g id="mobile">
</g>
<g id="intenet">
</g>
<g id="pie_x5F_chart">
</g>
<g id="page_x5F_search">
</g>
<g id="code">
</g>
<g id="code_x5F_check">
</g>
<g id="link">
</g>
<g id="monetisation">
</g>
<g id="connection">
</g>
<g id="server">
</g>
<g id="white_x5F_hat">
</g>
<g id="ppk">
</g>
<g id="page_x5F_test">
</g>
<g id="money">
</g>
<g id="page_x5F_quality">
</g>
<g id="page_x5F_speed">
</g>
<g id="money_x5F_bag">
</g>
<g id="trolley">
</g>
<g id="adaptive">
</g>
<g id="console">
</g>
<g id="briefcase">
</g>
<g id="cloud">
</g>
<g id="chess">
</g>
<g id="stopwatch">
	<g>
		<circle style="fill:#D3E2EC;" cx="22" cy="26" r="16"/>
		<g>
			<circle style="fill:#FFFFFF;" cx="22" cy="26" r="12"/>
			<path style="fill:#004463;" d="M22,40c-7.72,0-14-6.28-14-14s6.28-14,14-14s14,6.28,14,14S29.72,40,22,40z M22,14
				c-6.617,0-12,5.383-12,12s5.383,12,12,12s12-5.383,12-12S28.617,14,22,14z"/>
		</g>
		<rect x="21" y="4" style="fill:#AFC3D7;" width="2" height="4"/>
		<path style="fill:#EBEEF7;" d="M17,4h10c0.551,0,1-0.449,1-1s-0.449-1-1-1H17c-0.551,0-1,0.449-1,1S16.449,4,17,4z"/>
		<g>
			<circle style="fill:#004463;" cx="13" cy="26" r="1"/>
		</g>
		<g>
			<circle style="fill:#004463;" cx="22" cy="35" r="1"/>
		</g>
		<g>
			<path style="fill:#C3D6E4;" d="M27,4H17c-0.552,0-1-0.448-1-1h12C28,3.552,27.552,4,27,4z"/>
		</g>
		<g>
			<path style="fill:#AFC3D7;" d="M22,16v10l7.071,7.071C30.881,31.261,32,28.761,32,26C32,20.477,27.523,16,22,16z"/>
		</g>
		<g>
			<circle style="fill:#004463;" cx="22" cy="17" r="1"/>
		</g>
		<g>
			<path style="fill:#EF4D4E;" d="M29,34c-0.256,0-0.512-0.098-0.707-0.293l-10-10c-0.391-0.391-0.391-1.023,0-1.414
				s1.023-0.391,1.414,0l10,10c0.391,0.391,0.391,1.023,0,1.414C29.512,33.902,29.256,34,29,34z"/>
		</g>
		<g>
			<circle style="fill:#004463;" cx="22" cy="26" r="2"/>
		</g>
		<g>
			<circle style="fill:#004463;" cx="31" cy="26" r="1"/>
		</g>
		<path style="fill:#004463;" d="M35.395,14.019L37,12.414l0.293,0.293C37.488,12.902,37.744,13,38,13s0.512-0.098,0.707-0.293
			c0.391-0.391,0.391-1.023,0-1.414l-2-2c-0.391-0.391-1.023-0.391-1.414,0s-0.391,1.023,0,1.414L35.586,11l-1.605,1.605
			C31.504,10.386,28.418,8.848,25,8.271V6h2c1.654,0,3-1.346,3-3s-1.346-3-3-3H17c-1.654,0-3,1.346-3,3s1.346,3,3,3h2v2.271
			c-3.418,0.577-6.504,2.115-8.981,4.334L8.414,11l0.293-0.293c0.391-0.391,0.391-1.023,0-1.414s-1.023-0.391-1.414,0l-2,2
			c-0.391,0.391-0.391,1.023,0,1.414C5.488,12.902,5.744,13,6,13s0.512-0.098,0.707-0.293L7,12.414l1.605,1.605
			C5.752,17.205,4,21.397,4,26c0,9.925,8.075,18,18,18s18-8.075,18-18C40,21.397,38.248,17.205,35.395,14.019z M17,4
			c-0.551,0-1-0.449-1-1s0.449-1,1-1h10c0.551,0,1,0.449,1,1s-0.449,1-1,1H17z M21,6h2v2.051C22.667,8.032,22.338,8,22,8
			s-0.667,0.032-1,0.051V6z M22,42c-8.822,0-16-7.178-16-16s7.178-16,16-16s16,7.178,16,16S30.822,42,22,42z"/>
	</g>
</g>
<g id="test">
</g>
<g id="user">
</g>
<g id="social">
</g>
<g id="like">
</g>
<g id="crown">
</g>
<g id="target">
</g>
<g id="images">
</g>
<g id="calendar">
</g>
<g id="newspaper">
</g>
<g id="pencil">
</g>
<g id="email">
</g>
<g id="rocket">
</g>
<g id="trophy">
</g>
<g id="shop">
</g>
<g id="support">
</g>
</svg>
