<?xml version="1.0" encoding="iso-8859-1"?>
<!-- Generator: Adobe Illustrator 21.0.0, SVG Export Plug-In . SVG Version: 6.00 Build 0)  -->
<svg version="1.1" xmlns="http://www.w3.org/2000/svg" xmlns:xlink="http://www.w3.org/1999/xlink" x="0px" y="0px"
	 viewBox="0 0 44 44" style="enable-background:new 0 0 44 44;" xml:space="preserve">
<g id="page_x5F_settings">
</g>
<g id="pc_x5F_report">
</g>
<g id="chat">
</g>
<g id="marketing">
</g>
<g id="analytics">
</g>
<g id="search_1_">
</g>
<g id="funnel">
</g>
<g id="tag">
</g>
<g id="eye_x5F_tracking">
</g>
<g id="report">
</g>
<g id="localisation">
</g>
<g id="mobile">
</g>
<g id="intenet">
</g>
<g id="pie_x5F_chart">
</g>
<g id="page_x5F_search">
</g>
<g id="code">
</g>
<g id="code_x5F_check">
</g>
<g id="link">
</g>
<g id="monetisation">
</g>
<g id="connection">
</g>
<g id="server">
</g>
<g id="white_x5F_hat">
</g>
<g id="ppk">
</g>
<g id="page_x5F_test">
</g>
<g id="money">
</g>
<g id="page_x5F_quality">
</g>
<g id="page_x5F_speed">
</g>
<g id="money_x5F_bag">
</g>
<g id="trolley">
</g>
<g id="adaptive">
</g>
<g id="console">
</g>
<g id="briefcase">
	<g>
		<path style="fill:#AFC3D7;" d="M25,25h-6c-0.073,0-0.146-0.008-0.217-0.024L3.916,21.672C3.201,21.514,2.554,21.211,2,20.8V38
			c0,0.551,0.449,1,1,1h38c0.551,0,1-0.449,1-1V20.8c-0.554,0.412-1.201,0.714-1.916,0.873l-14.868,3.304
			C25.146,24.992,25.073,25,25,25z"/>
		<g>
			<path style="fill:#90ABC2;" d="M40,17H2v5.778c0.556,0.416,1.196,0.735,1.915,0.895l14.865,3.303
				C18.854,26.984,18.926,26.992,19,27h6c0.074-0.008,0.146-0.016,0.22-0.024l10.503-2.334C37.918,24.154,40,25.825,40,28.073V36
				c0,0.552-0.448,1-1,1H2v1c0,0.552,0.448,1,1,1h38c0.552,0,1-0.448,1-1V22.778V17H40z"/>
		</g>
		<path style="fill:#AFC3D7;" d="M4.349,19.72L19.11,23h5.78l14.761-3.28C41.034,19.413,42,18.208,42,16.792V12c0-0.551-0.449-1-1-1
			H3c-0.551,0-1,0.449-1,1v4.792C2,18.208,2.966,19.413,4.349,19.72z"/>
		<g>
			<path style="fill:#90ABC2;" d="M41,11h-2c0.552,0,1,0.448,1,1v4.791c0,1.417-0.966,2.621-2.349,2.929L22.891,23h2l14.761-3.28
				C41.034,19.412,42,18.208,42,16.791V12C42,11.448,41.552,11,41,11z"/>
		</g>
		<path style="fill:#004463;" d="M41,9h-9.117c-0.431,0-0.812-0.275-0.948-0.684l-1.088-3.265C29.437,3.824,28.293,3,27,3H17
			c-1.293,0-2.437,0.824-2.846,2.051l-1.088,3.265C12.929,8.725,12.548,9,12.117,9H3c-1.654,0-3,1.346-3,3v26c0,1.654,1.346,3,3,3
			h38c1.654,0,3-1.346,3-3V12C44,10.346,42.654,9,41,9z M14.963,8.949l1.088-3.265C16.188,5.275,16.569,5,17,5h10
			c0.431,0,0.812,0.275,0.949,0.684l1.088,3.264C29.043,8.966,29.053,8.982,29.059,9H14.941C14.947,8.982,14.957,8.967,14.963,8.949
			z M42,38c0,0.551-0.449,1-1,1H3c-0.551,0-1-0.449-1-1V20.778c0.556,0.416,1.196,0.735,1.916,0.895l14.868,3.304
			C18.854,24.992,18.927,25,19,25h6c0.073,0,0.146-0.008,0.217-0.024l14.868-3.304c0.719-0.16,1.359-0.478,1.916-0.895V38z
			 M42,16.792c0,1.417-0.966,2.621-2.349,2.929L24.89,23h-5.78L4.349,19.72C2.966,19.413,2,18.208,2,16.792V12c0-0.551,0.449-1,1-1
			h38c0.551,0,1,0.449,1,1V16.792z"/>
		<path style="fill:#FFC95C;" d="M21,27h2c0.551,0,1-0.449,1-1v-2c0-0.551-0.449-1-1-1h-2c-0.551,0-1,0.449-1,1v2
			C20,26.551,20.449,27,21,27z"/>
		<path style="fill:#004463;" d="M23,29h-2c-1.654,0-3-1.346-3-3v-2c0-1.654,1.346-3,3-3h2c1.654,0,3,1.346,3,3v2
			C26,27.654,24.654,29,23,29z M21,23c-0.551,0-1,0.449-1,1v2c0,0.551,0.449,1,1,1h2c0.551,0,1-0.449,1-1v-2c0-0.551-0.449-1-1-1H21
			z"/>
	</g>
</g>
<g id="cloud">
</g>
<g id="chess">
</g>
<g id="stopwatch">
</g>
<g id="test">
</g>
<g id="user">
</g>
<g id="social">
</g>
<g id="like">
</g>
<g id="crown">
</g>
<g id="target">
</g>
<g id="images">
</g>
<g id="calendar">
</g>
<g id="newspaper">
</g>
<g id="pencil">
</g>
<g id="email">
</g>
<g id="rocket">
</g>
<g id="trophy">
</g>
<g id="shop">
</g>
<g id="support">
</g>
</svg>
