<?xml version="1.0" encoding="iso-8859-1"?>
<!-- Generator: Adobe Illustrator 21.0.0, SVG Export Plug-In . SVG Version: 6.00 Build 0)  -->
<svg version="1.1" xmlns="http://www.w3.org/2000/svg" xmlns:xlink="http://www.w3.org/1999/xlink" x="0px" y="0px"
	 viewBox="0 0 44 44" style="enable-background:new 0 0 44 44;" xml:space="preserve">
<g id="page_x5F_settings">
</g>
<g id="pc_x5F_report">
</g>
<g id="chat">
</g>
<g id="marketing">
</g>
<g id="analytics">
</g>
<g id="search_1_">
</g>
<g id="funnel">
</g>
<g id="tag">
</g>
<g id="eye_x5F_tracking">
</g>
<g id="report">
</g>
<g id="localisation">
</g>
<g id="mobile">
</g>
<g id="intenet">
</g>
<g id="pie_x5F_chart">
</g>
<g id="page_x5F_search">
</g>
<g id="code">
</g>
<g id="code_x5F_check">
</g>
<g id="link">
</g>
<g id="monetisation">
</g>
<g id="connection">
</g>
<g id="server">
</g>
<g id="white_x5F_hat">
</g>
<g id="ppk">
</g>
<g id="page_x5F_test">
</g>
<g id="money">
</g>
<g id="page_x5F_quality">
</g>
<g id="page_x5F_speed">
</g>
<g id="money_x5F_bag">
</g>
<g id="trolley">
</g>
<g id="adaptive">
</g>
<g id="console">
</g>
<g id="briefcase">
</g>
<g id="cloud">
</g>
<g id="chess">
</g>
<g id="stopwatch">
</g>
<g id="test">
</g>
<g id="user">
</g>
<g id="social">
</g>
<g id="like">
</g>
<g id="crown">
</g>
<g id="target">
</g>
<g id="images">
</g>
<g id="calendar">
</g>
<g id="newspaper">
</g>
<g id="pencil">
</g>
<g id="email">
</g>
<g id="rocket">
</g>
<g id="trophy">
</g>
<g id="shop">
</g>
<g id="support">
	<g>
		<g>
			<path style="fill:#004463;" d="M35,42H9c-3.86,0-7-3.141-7-7V9c0-3.86,3.14-7,7-7h26c3.86,0,7,3.14,7,7v26
				C42,38.859,38.86,42,35,42z M9,4C6.243,4,4,6.243,4,9v26c0,2.757,2.243,5,5,5h26c2.757,0,5-2.243,5-5V9c0-2.757-2.243-5-5-5H9z"
				/>
		</g>
		<path style="fill:#EBEEF7;" d="M22,3C11.507,3,3,11.507,3,22c0,10.493,8.507,19,19,19s19-8.507,19-19C41,11.507,32.493,3,22,3z
			 M22,32c-5.523,0-10-4.477-10-10c0-5.523,4.477-10,10-10s10,4.477,10,10C32,27.523,27.523,32,22,32z"/>
		<path style="fill:#CCD9E4;" d="M33.843,7.157C36.439,10.406,38,14.518,38,19c0,10.493-8.507,19-19,19
			c-4.482,0-8.594-1.561-11.843-4.157C10.639,38.201,15.989,41,22,41c10.493,0,19-8.507,19-19C41,15.989,38.201,10.639,33.843,7.157
			z"/>
		<path style="fill:#EF4C4E;" d="M30.781,38.829c1.738-0.901,3.3-2.04,4.654-3.394c1.354-1.353,2.493-2.916,3.394-4.654
			l-6.906-4.049c-0.536,1.135-1.268,2.144-2.158,3.034s-1.898,1.62-3.032,2.156L30.781,38.829z"/>
		<path style="fill:#DB3440;" d="M35.306,28.716c-1.617,2.708-3.883,4.973-6.59,6.59l2.065,3.523
			c1.738-0.901,3.301-2.041,4.654-3.394c1.354-1.354,2.493-2.917,3.394-4.654L35.306,28.716z"/>
		<path style="fill:#EF4C4E;" d="M8.565,8.565c-1.354,1.353-2.493,2.916-3.394,4.654l6.913,4.052
			c0.536-1.135,1.265-2.138,2.156-3.028s1.897-1.623,3.032-2.16l-4.052-6.913C11.48,6.072,9.918,7.211,8.565,8.565z"/>
		<path style="fill:#EF4C4E;" d="M30.783,5.168l-4.054,6.915c1.135,0.536,2.138,1.265,3.028,2.156s1.623,1.897,2.16,3.032
			l6.915-4.054c-0.901-1.738-2.043-3.299-3.397-4.652C34.082,7.211,32.521,6.07,30.783,5.168z"/>
		<path style="fill:#EF4C4E;" d="M12.084,26.729l-6.915,4.054c0.901,1.738,2.043,3.299,3.397,4.652
			c1.354,1.354,2.916,2.493,4.654,3.394l4.052-6.913c-1.124-0.555-2.153-1.255-3.037-2.151
			C13.418,28.938,12.62,27.864,12.084,26.729z"/>
		<path style="fill:#DB3440;" d="M37.352,14.085l1.48-0.868c-0.9-1.737-2.043-3.298-3.396-4.652
			c-0.496-0.496-1.029-0.953-1.579-1.39C35.46,9.187,36.666,11.529,37.352,14.085z"/>
		<path style="fill:#DB3440;" d="M14.082,37.356c-2.555-0.686-4.896-1.896-6.908-3.499c0.437,0.55,0.876,1.083,1.372,1.579
			c1.354,1.354,2.933,2.495,4.671,3.397L14.082,37.356z"/>
		<path style="fill:#EF4C4E;" d="M13.612,40.135l5.101-8.701"/>
		<path style="fill:#EF4C4E;" d="M12.566,25.287l-8.701,5.101"/>
		<path style="fill:#004463;" d="M43,20c-0.036,0-0.066,0.017-0.1,0.02C41.959,10.019,33.981,2.041,23.98,1.1
			C23.983,1.066,24,1.036,24,1c0-0.552-0.448-1-1-1h-2c-0.552,0-1,0.448-1,1c0,0.036,0.017,0.066,0.02,0.1
			C10.019,2.041,2.041,10.019,1.1,20.02C1.066,20.017,1.036,20,1,20c-0.552,0-1,0.448-1,1v2c0,0.552,0.448,1,1,1
			c0.036,0,0.066-0.017,0.1-0.02c0.94,10.001,8.919,17.979,18.92,18.92C20.017,42.934,20,42.964,20,43c0,0.553,0.448,1,1,1h2
			c0.552,0,1-0.447,1-1c0-0.036-0.017-0.066-0.02-0.1c10.001-0.94,17.979-8.919,18.92-18.92C42.934,23.983,42.964,24,43,24
			c0.552,0,1-0.448,1-1v-2C44,20.448,43.552,20,43,20z M38.832,13.217l-6.915,4.054c-1.086-2.267-2.92-4.102-5.187-5.187
			l4.054-6.915C34.217,6.968,37.032,9.783,38.832,13.217z M31,22c0,4.962-4.038,9-9,9s-9-4.038-9-9s4.038-9,9-9S31,17.038,31,22z
			 M22,3c2.455,0,4.796,0.484,6.952,1.336l-4.13,7.045C23.92,11.14,22.977,11,22,11s-1.92,0.14-2.823,0.381l-4.13-7.045
			C17.204,3.484,19.545,3,22,3z M13.217,5.168l4.054,6.915c-2.267,1.086-4.102,2.92-5.187,5.187l-6.915-4.054
			C6.968,9.783,9.783,6.968,13.217,5.168z M3,22c0-2.455,0.484-4.796,1.336-6.952l7.045,4.13C11.14,20.08,11,21.023,11,22
			s0.14,1.92,0.381,2.823l-7.045,4.13C3.484,26.796,3,24.455,3,22z M5.168,30.783l6.915-4.054c1.086,2.267,2.92,4.102,5.187,5.187
			l-4.054,6.916C9.783,37.032,6.968,34.217,5.168,30.783z M22,41c-2.455,0-4.796-0.484-6.952-1.335l4.13-7.045
			C20.08,32.86,21.023,33,22,33s1.92-0.14,2.823-0.381l4.13,7.045C26.796,40.516,24.455,41,22,41z M30.783,38.832l-4.054-6.916
			c2.267-1.086,4.102-2.92,5.187-5.187l6.915,4.054C37.032,34.217,34.217,37.032,30.783,38.832z M39.664,28.952l-7.045-4.13
			C32.86,23.92,33,22.977,33,22s-0.14-1.92-0.381-2.823l7.045-4.13C40.516,17.204,41,19.545,41,22S40.516,26.796,39.664,28.952z"/>
	</g>
</g>
</svg>
