<?xml version="1.0" encoding="iso-8859-1"?>
<!-- Generator: Adobe Illustrator 21.0.0, SVG Export Plug-In . SVG Version: 6.00 Build 0)  -->
<svg version="1.1" xmlns="http://www.w3.org/2000/svg" xmlns:xlink="http://www.w3.org/1999/xlink" x="0px" y="0px"
	 viewBox="0 0 44 44" style="enable-background:new 0 0 44 44;" xml:space="preserve">
<g id="page_x5F_settings">
</g>
<g id="pc_x5F_report">
</g>
<g id="chat">
</g>
<g id="marketing">
</g>
<g id="analytics">
</g>
<g id="search_1_">
</g>
<g id="funnel">
</g>
<g id="tag">
	<g>
		<path style="fill:#70B6E4;" d="M3,30h27.101c1.603,0,3.109-0.624,4.243-1.757L41.586,21C41.853,20.733,42,20.378,42,20
			c0-0.372-0.151-0.737-0.414-1l-7.243-7.243C33.21,10.624,31.703,10,30.101,10H3c-0.551,0-1,0.449-1,1v18C2,29.551,2.449,30,3,30z
			 M34,17c1.654,0,3,1.346,3,3s-1.346,3-3,3s-3-1.346-3-3S32.346,17,34,17z"/>
		<g>
			<path style="fill:#4C9BD5;" d="M41.586,19l-3.426,3.426c-0.492-0.364-1.024-0.67-1.595-0.893C36.04,22.408,35.092,23,34,23
				c-0.12,0-0.234-0.022-0.35-0.035c0.123,0.054,0.258,0.086,0.401,0.086c0.01,0,0.019,0,0.029,0
				c1.266,0.008,1.845,1.611,0.95,2.506l-0.686,0.686C33.218,27.368,31.692,28,30.101,28H3c-0.552,0-1-0.448-1-1v2
				c0,0.552,0.448,1,1,1h27.101c1.591,0,3.116-0.632,4.241-1.757l3.458-3.458l1.413-1.413L41.586,21C41.854,20.733,42,20.378,42,20
				S41.853,19.268,41.586,19z"/>
		</g>
		<g>
			<path style="fill:#004463;" d="M14,15H6c-0.552,0-1-0.448-1-1s0.448-1,1-1h8c0.552,0,1,0.448,1,1S14.552,15,14,15z"/>
		</g>
		<g>
			<path style="fill:#004463;" d="M14,18H9c-0.552,0-1-0.448-1-1s0.448-1,1-1h5c0.552,0,1,0.448,1,1S14.552,18,14,18z"/>
		</g>
		<g>
			<path style="fill:#004463;" d="M14,21H9c-0.552,0-1-0.448-1-1s0.448-1,1-1h5c0.552,0,1,0.448,1,1S14.552,21,14,21z"/>
		</g>
		<g>
			<path style="fill:#004463;" d="M14,24H9c-0.552,0-1-0.448-1-1s0.448-1,1-1h5c0.552,0,1,0.448,1,1S14.552,24,14,24z"/>
		</g>
		<g>
			<path style="fill:#004463;" d="M14,27H6c-0.552,0-1-0.448-1-1s0.448-1,1-1h8c0.552,0,1,0.448,1,1S14.552,27,14,27z"/>
		</g>
		<g>
			<circle style="fill:#004463;" cx="6" cy="17" r="1"/>
		</g>
		<g>
			<circle style="fill:#004463;" cx="6" cy="20" r="1"/>
		</g>
		<g>
			<circle style="fill:#004463;" cx="6" cy="23" r="1"/>
		</g>
		<path style="fill:#004463;" d="M44,20c0-0.912-0.355-1.77-1-2.414l-7.243-7.243C34.247,8.832,32.237,8,30.101,8H3
			c-1.654,0-3,1.346-3,3v18c0,1.654,1.346,3,3,3h24.094c1.421,2.442,4.054,4,6.906,4c4.411,0,8-3.589,8-8
			c0-1.328-0.33-2.578-0.905-3.681L43,22.414C43.645,21.769,44,20.912,44,20z M40,28c0,3.309-2.691,6-6,6
			c-1.722,0-3.344-0.752-4.468-2h0.568c2.137,0,4.146-0.832,5.657-2.343l3.829-3.829C39.85,26.502,40,27.233,40,28z M41.586,21
			l-1.653,1.652c-0.818-0.907-1.837-1.627-2.991-2.085C36.978,20.384,37,20.194,37,20c0-1.654-1.346-3-3-3s-3,1.346-3,3s1.346,3,3,3
			c0.72,0,1.373-0.266,1.891-0.69c1.029,0.343,1.932,0.956,2.629,1.756l-4.177,4.176C33.21,29.376,31.703,30,30.101,30H3
			c-0.551,0-1-0.449-1-1V11c0-0.551,0.449-1,1-1h27.101c1.603,0,3.109,0.624,4.243,1.757L41.586,19C41.849,19.263,42,19.628,42,20
			C42,20.378,41.853,20.733,41.586,21z M34,20c-0.366,0-0.672,0.206-0.846,0.5C33.065,20.35,33,20.186,33,20c0-0.551,0.449-1,1-1
			s1,0.449,1,1c0,0.024-0.012,0.044-0.014,0.067C34.662,20.027,34.335,20,34,20z"/>
	</g>
</g>
<g id="eye_x5F_tracking">
</g>
<g id="report">
</g>
<g id="localisation">
</g>
<g id="mobile">
</g>
<g id="intenet">
</g>
<g id="pie_x5F_chart">
</g>
<g id="page_x5F_search">
</g>
<g id="code">
</g>
<g id="code_x5F_check">
</g>
<g id="link">
</g>
<g id="monetisation">
</g>
<g id="connection">
</g>
<g id="server">
</g>
<g id="white_x5F_hat">
</g>
<g id="ppk">
</g>
<g id="page_x5F_test">
</g>
<g id="money">
</g>
<g id="page_x5F_quality">
</g>
<g id="page_x5F_speed">
</g>
<g id="money_x5F_bag">
</g>
<g id="trolley">
</g>
<g id="adaptive">
</g>
<g id="console">
</g>
<g id="briefcase">
</g>
<g id="cloud">
</g>
<g id="chess">
</g>
<g id="stopwatch">
</g>
<g id="test">
</g>
<g id="user">
</g>
<g id="social">
</g>
<g id="like">
</g>
<g id="crown">
</g>
<g id="target">
</g>
<g id="images">
</g>
<g id="calendar">
</g>
<g id="newspaper">
</g>
<g id="pencil">
</g>
<g id="email">
</g>
<g id="rocket">
</g>
<g id="trophy">
</g>
<g id="shop">
</g>
<g id="support">
</g>
</svg>
