<?xml version="1.0" encoding="iso-8859-1"?>
<!-- Generator: Adobe Illustrator 21.0.0, SVG Export Plug-In . SVG Version: 6.00 Build 0)  -->
<svg version="1.1" xmlns="http://www.w3.org/2000/svg" xmlns:xlink="http://www.w3.org/1999/xlink" x="0px" y="0px"
	 viewBox="0 0 44 44" style="enable-background:new 0 0 44 44;" xml:space="preserve">
<g id="page_x5F_settings">
</g>
<g id="pc_x5F_report">
</g>
<g id="chat">
</g>
<g id="marketing">
</g>
<g id="analytics">
</g>
<g id="search_1_">
</g>
<g id="funnel">
</g>
<g id="tag">
</g>
<g id="eye_x5F_tracking">
</g>
<g id="report">
</g>
<g id="localisation">
</g>
<g id="mobile">
</g>
<g id="intenet">
</g>
<g id="pie_x5F_chart">
</g>
<g id="page_x5F_search">
</g>
<g id="code">
</g>
<g id="code_x5F_check">
</g>
<g id="link">
</g>
<g id="monetisation">
</g>
<g id="connection">
</g>
<g id="server">
</g>
<g id="white_x5F_hat">
</g>
<g id="ppk">
</g>
<g id="page_x5F_test">
</g>
<g id="money">
</g>
<g id="page_x5F_quality">
</g>
<g id="page_x5F_speed">
</g>
<g id="money_x5F_bag">
</g>
<g id="trolley">
</g>
<g id="adaptive">
</g>
<g id="console">
</g>
<g id="briefcase">
</g>
<g id="cloud">
</g>
<g id="chess">
</g>
<g id="stopwatch">
</g>
<g id="test">
</g>
<g id="user">
</g>
<g id="social">
</g>
<g id="like">
</g>
<g id="crown">
</g>
<g id="target">
	<g>
		<path style="fill:#EBEEF7;" d="M10.65,33l-3.594,8.086C7.019,41.17,7,41.259,7,41.35C7,41.709,7.292,42,7.65,42h1.288
			c0.254,0,0.486-0.149,0.591-0.381L13.447,33H10.65z"/>
		<path style="fill:#EBEEF7;" d="M30.35,42c0.358,0,0.65-0.292,0.65-0.65c0-0.092-0.019-0.181-0.056-0.264L27.35,33h-2.797
			l3.917,8.619C28.576,41.851,28.808,42,29.063,42H30.35z"/>
		<g>
			<path style="fill:#CCD9E4;" d="M27.351,33h-2.798l1.928,4.242c0.761-0.375,1.495-0.796,2.187-1.277L27.351,33z"/>
		</g>
		<g>
			<path style="fill:#CCD9E4;" d="M9.332,35.966c0.692,0.481,1.426,0.901,2.187,1.277L13.447,33h-2.798L9.332,35.966z"/>
		</g>
		<path style="fill:#EBEEF7;" d="M20,5c0-0.551-0.449-1-1-1s-1,0.449-1,1v1h2V5z"/>
		<circle style="fill:#FFC95C;" cx="19" cy="22" r="14"/>
		<g>
			<circle style="fill:#EBEEF7;" cx="19" cy="22" r="9"/>
			<path style="fill:#004463;" d="M19,33c-6.065,0-11-4.935-11-11s4.935-11,11-11s11,4.935,11,11S25.065,33,19,33z M19,13
				c-4.962,0-9,4.038-9,9s4.038,9,9,9s9-4.038,9-9S23.962,13,19,13z"/>
		</g>
		<g>
			<circle style="fill:#EF4C4E;" cx="19" cy="22" r="4"/>
			<path style="fill:#004463;" d="M19,28c-3.309,0-6-2.691-6-6s2.691-6,6-6s6,2.691,6,6S22.309,28,19,28z M19,18
				c-2.206,0-4,1.794-4,4s1.794,4,4,4s4-1.794,4-4S21.206,18,19,18z"/>
		</g>
		<g>
			<circle style="fill:#004463;" cx="19" cy="22" r="2"/>
		</g>
		<path style="fill:#EBEEF7;" d="M36.051,4.317l-0.488-1.465L33.144,5.27l0.646,1.939l1.939,0.646l2.419-2.419l-1.465-0.488
			C36.385,4.849,36.151,4.615,36.051,4.317z"/>
		<g>
			<path style="fill:#C3D6E4;" d="M25.646,15.937l-2.126,2.129c0.451,0.517,0.813,1.111,1.067,1.761l2.25-2.25
				C26.501,16.986,26.101,16.436,25.646,15.937z"/>
		</g>
		<polygon style="fill:#EBEEF7;" points="20.904,20.096 24.249,18.663 22.337,16.752 		"/>
		<path style="fill:#004463;" d="M40.973,4.77c-0.08-0.337-0.328-0.609-0.657-0.719l-1.465-0.488l0.856-0.856
			c0.391-0.391,0.391-1.023,0-1.414s-1.023-0.391-1.414,0l-0.856,0.856l-0.488-1.465c-0.11-0.329-0.382-0.577-0.719-0.657
			c-0.34-0.081-0.692,0.02-0.937,0.266l-4,4c-0.268,0.268-0.361,0.664-0.242,1.023l0.805,2.414L24,15.586l-1.293-1.293
			c-0.235-0.235-0.57-0.338-0.896-0.275c-0.326,0.062-0.6,0.283-0.73,0.588l-3,7c-0.161,0.376-0.077,0.812,0.212,1.101
			C18.484,22.899,18.74,23,19,23c0.133,0,0.267-0.026,0.394-0.081l7-3c0.305-0.13,0.525-0.404,0.588-0.73
			c0.063-0.326-0.04-0.662-0.275-0.896L25.414,17l7.856-7.856l2.414,0.805C35.788,9.984,35.894,10,36,10
			c0.261,0,0.517-0.103,0.707-0.293l4-4C40.952,5.462,41.053,5.108,40.973,4.77z M20.904,20.096l1.434-3.345l1.911,1.911
			L20.904,20.096z M33.144,5.27l2.419-2.419l0.293,0.879l-2.419,2.419L33.144,5.27z M35.73,7.856l-0.879-0.293l2.419-2.419
			l0.879,0.293L35.73,7.856z"/>
		<path style="fill:#F4B344;" d="M27.448,14.964c0.305,0.366,0.589,0.753,0.845,1.157l2.169-2.171
			c-0.274-0.389-0.574-0.756-0.886-1.114L27.448,14.964z"/>
		<path style="fill:#004463;" d="M29.858,33.718C33.011,30.794,35,26.63,35,22c0-7.796-5.608-14.299-13-15.708V5
			c0-1.654-1.346-3-3-3s-3,1.346-3,3v1.292C8.608,7.702,3,14.204,3,22c0,4.63,1.989,8.794,5.142,11.718l-2.914,6.556
			C5.077,40.615,5,40.977,5,41.35C5,42.811,6.189,44,7.65,44h1.288c1.037,0,1.984-0.61,2.412-1.554l2.427-5.339
			C15.417,37.676,17.169,38,19,38s3.583-0.324,5.223-0.893l2.427,5.339C27.079,43.39,28.025,44,29.063,44h1.288
			c1.461,0,2.65-1.189,2.65-2.65c0-0.373-0.077-0.735-0.229-1.076L29.858,33.718z M18,6V5c0-0.551,0.449-1,1-1s1,0.449,1,1v1H18z
			 M9.529,41.619C9.424,41.851,9.192,42,8.938,42H7.65C7.292,42,7,41.709,7,41.35c0-0.092,0.019-0.18,0.056-0.264l2.692-6.057
			c0.69,0.491,1.42,0.924,2.184,1.303L9.529,41.619z M19,36c-7.72,0-14-6.28-14-14S11.28,8,19,8s14,6.28,14,14S26.72,36,19,36z
			 M30.35,42h-1.288c-0.254,0-0.486-0.149-0.591-0.381l-2.403-5.287c0.764-0.379,1.495-0.812,2.184-1.303l2.692,6.057
			C30.981,41.17,31,41.259,31,41.35C31,41.709,30.709,42,30.35,42z"/>
	</g>
</g>
<g id="images">
</g>
<g id="calendar">
</g>
<g id="newspaper">
</g>
<g id="pencil">
</g>
<g id="email">
</g>
<g id="rocket">
</g>
<g id="trophy">
</g>
<g id="shop">
</g>
<g id="support">
</g>
</svg>
