<?xml version="1.0" encoding="iso-8859-1"?>
<!-- Generator: Adobe Illustrator 21.0.0, SVG Export Plug-In . SVG Version: 6.00 Build 0)  -->
<svg version="1.1" xmlns="http://www.w3.org/2000/svg" xmlns:xlink="http://www.w3.org/1999/xlink" x="0px" y="0px"
	 viewBox="0 0 44 44" style="enable-background:new 0 0 44 44;" xml:space="preserve">
<g id="page_x5F_settings">
</g>
<g id="pc_x5F_report">
</g>
<g id="chat">
</g>
<g id="marketing">
</g>
<g id="analytics">
</g>
<g id="search_1_">
</g>
<g id="funnel">
</g>
<g id="tag">
</g>
<g id="eye_x5F_tracking">
</g>
<g id="report">
</g>
<g id="localisation">
</g>
<g id="mobile">
</g>
<g id="intenet">
</g>
<g id="pie_x5F_chart">
</g>
<g id="page_x5F_search">
</g>
<g id="code">
</g>
<g id="code_x5F_check">
</g>
<g id="link">
</g>
<g id="monetisation">
</g>
<g id="connection">
</g>
<g id="server">
</g>
<g id="white_x5F_hat">
</g>
<g id="ppk">
</g>
<g id="page_x5F_test">
</g>
<g id="money">
</g>
<g id="page_x5F_quality">
</g>
<g id="page_x5F_speed">
</g>
<g id="money_x5F_bag">
</g>
<g id="trolley">
	<g>
		<g>
			<circle style="fill:#004463;" cx="16" cy="40" r="2"/>
		</g>
		<g>
			<circle style="fill:#004463;" cx="34" cy="40" r="2"/>
		</g>
		<path style="fill:#EBEEF7;" d="M9.648,13l3.173,16H37.42c0.978,0,1.825-0.73,1.971-1.699L41.816,13H9.648z"/>
		<g>
			<path style="fill:#CCD9E4;" d="M39.915,13l-2.148,12.302C37.621,26.27,36.773,27,35.796,27H12.422l0.399,2H37.42
				c0.978,0,1.825-0.73,1.971-1.698L41.839,13H39.915z"/>
		</g>
		<g>
			<path style="fill:#004463;" d="M35,25c-0.552,0-1-0.448-1-1v-8c0-0.552,0.448-1,1-1s1,0.448,1,1v8C36,24.552,35.552,25,35,25z"/>
		</g>
		<g>
			<path style="fill:#004463;" d="M29,25c-0.552,0-1-0.448-1-1v-8c0-0.552,0.448-1,1-1s1,0.448,1,1v8C30,24.552,29.552,25,29,25z"/>
		</g>
		<g>
			<path style="fill:#004463;" d="M23,25c-0.552,0-1-0.448-1-1v-8c0-0.552,0.448-1,1-1s1,0.448,1,1v8C24,24.552,23.552,25,23,25z"/>
		</g>
		<g>
			<path style="fill:#004463;" d="M17,25c-0.552,0-1-0.448-1-1v-8c0-0.552,0.448-1,1-1s1,0.448,1,1v8C18,24.552,17.552,25,17,25z"/>
		</g>
		<g>
			<circle style="fill:#EBEEF7;" cx="3" cy="5" r="1"/>
			<path style="fill:#004463;" d="M43.764,11.354C43.574,11.13,43.294,11,43,11H9.287L8.275,4.476C8.021,3.041,6.782,2,5.33,2H3
				C1.346,2,0,3.346,0,5s1.346,3,3,3s3-1.346,3-3c0-0.288-0.054-0.561-0.13-0.825C6.089,4.32,6.255,4.538,6.302,4.803l1.14,7.35
				c0.001,0.008,0.006,0.014,0.008,0.022c0.001,0.006-0.002,0.012,0,0.019l3.454,17.415C9.766,30.315,9,31.566,9,33
				c0,2.206,1.794,4,4,4h26c0.552,0,1-0.448,1-1s-0.448-1-1-1H13c-1.103,0-2-0.897-2-2s0.897-2,2-2h24.42
				c1.959,0,3.657-1.462,3.946-3.383l2.62-15.45C44.035,11.877,43.954,11.58,43.764,11.354z M3,6C2.449,6,2,5.551,2,5s0.449-1,1-1
				s1,0.449,1,1S3.551,6,3,6z M39.391,27.301C39.245,28.27,38.398,29,37.42,29H12.821L9.648,13h32.168L39.391,27.301z"/>
		</g>
	</g>
</g>
<g id="adaptive">
</g>
<g id="console">
</g>
<g id="briefcase">
</g>
<g id="cloud">
</g>
<g id="chess">
</g>
<g id="stopwatch">
</g>
<g id="test">
</g>
<g id="user">
</g>
<g id="social">
</g>
<g id="like">
</g>
<g id="crown">
</g>
<g id="target">
</g>
<g id="images">
</g>
<g id="calendar">
</g>
<g id="newspaper">
</g>
<g id="pencil">
</g>
<g id="email">
</g>
<g id="rocket">
</g>
<g id="trophy">
</g>
<g id="shop">
</g>
<g id="support">
</g>
</svg>
