<?xml version="1.0" encoding="iso-8859-1"?>
<!-- Generator: Adobe Illustrator 21.0.0, SVG Export Plug-In . SVG Version: 6.00 Build 0)  -->
<svg version="1.1" xmlns="http://www.w3.org/2000/svg" xmlns:xlink="http://www.w3.org/1999/xlink" x="0px" y="0px"
	 viewBox="0 0 44 44" style="enable-background:new 0 0 44 44;" xml:space="preserve">
<g id="page_x5F_settings">
</g>
<g id="pc_x5F_report">
</g>
<g id="chat">
</g>
<g id="marketing">
</g>
<g id="analytics">
</g>
<g id="search_1_">
</g>
<g id="funnel">
</g>
<g id="tag">
</g>
<g id="eye_x5F_tracking">
</g>
<g id="report">
</g>
<g id="localisation">
</g>
<g id="mobile">
</g>
<g id="intenet">
</g>
<g id="pie_x5F_chart">
</g>
<g id="page_x5F_search">
</g>
<g id="code">
</g>
<g id="code_x5F_check">
</g>
<g id="link">
</g>
<g id="monetisation">
</g>
<g id="connection">
</g>
<g id="server">
</g>
<g id="white_x5F_hat">
</g>
<g id="ppk">
</g>
<g id="page_x5F_test">
</g>
<g id="money">
</g>
<g id="page_x5F_quality">
</g>
<g id="page_x5F_speed">
</g>
<g id="money_x5F_bag">
</g>
<g id="trolley">
</g>
<g id="adaptive">
</g>
<g id="console">
</g>
<g id="briefcase">
</g>
<g id="cloud">
</g>
<g id="chess">
</g>
<g id="stopwatch">
</g>
<g id="test">
</g>
<g id="user">
	<g>
		<path style="fill:#EEC8AD;" d="M26,14c0-2.206-1.794-4-4-4s-4,1.794-4,4v2c0,2.206,1.794,4,4,4s4-1.794,4-4V14z"/>
		<path style="fill:#70B6E4;" d="M30,32.439v-5.704c0-0.494-0.369-0.919-0.858-0.99l-3.802-0.543C24.403,25.068,23.448,25,22.503,25
			h-1.007c-0.945,0-1.899,0.068-2.837,0.201l-3.801,0.543c-0.49,0.07-0.859,0.496-0.859,0.99v5.704c0,0.46,0.312,0.859,0.758,0.97
			l5.515,1.378c1.13,0.282,2.326,0.282,3.454,0l5.516-1.378C29.688,33.298,30,32.899,30,32.439z"/>
		<path style="fill:#004463;" d="M22,37c-0.745,0-1.489-0.092-2.212-0.272l-5.515-1.378C12.935,35.015,12,33.818,12,32.439v-5.704
			c0-1.483,1.107-2.76,2.576-2.969l3.801-0.543C19.408,23.075,20.458,23,21.497,23h1.007c1.039,0,2.088,0.075,3.119,0.222
			l3.802,0.543C30.893,23.975,32,25.251,32,26.735v5.704c0,1.379-0.935,2.576-2.272,2.911l0,0l-5.516,1.378
			C23.489,36.909,22.745,37,22,37z M21.497,25c-0.945,0-1.899,0.068-2.837,0.201l-3.801,0.543c-0.49,0.07-0.859,0.496-0.859,0.99
			v5.704c0,0.46,0.312,0.859,0.758,0.97l5.515,1.378c1.13,0.282,2.326,0.282,3.454,0l5.516-1.378c0.446-0.111,0.758-0.51,0.758-0.97
			v-5.704c0-0.494-0.369-0.919-0.858-0.99l-3.802-0.543C24.403,25.068,23.448,25,22.503,25H21.497z M29.485,34.379h0.01H29.485z"/>
		<g>
			<path style="fill:#4C9BD5;" d="M29.142,25.745L29,25.725v4.185c0,0.918-0.625,1.718-1.515,1.94l-3.757,0.939
				c-1.134,0.283-2.321,0.283-3.455,0l-5.514-1.378C14.312,31.299,14,30.9,14,30.44v1.998c0,0.459,0.312,0.859,0.758,0.971
				l5.514,1.378c1.134,0.284,2.321,0.284,3.455,0L29,33.47l0,0l0.243-0.061C29.688,33.297,30,32.898,30,32.439V30.44v-3.706
				C30,26.241,29.631,25.815,29.142,25.745z"/>
		</g>
		<path style="fill:#D88A36;" d="M22,12.251c1.587,0,3.173,0.149,4.734,0.445C26.042,10.516,24.184,9,22,9s-4.042,1.516-4.734,3.696
			C18.827,12.401,20.413,12.251,22,12.251z"/>
		<g>
			<g>
				<path style="fill:#C77629;" d="M25.393,12.507c0.448,0.06,0.897,0.106,1.341,0.19C26.041,10.516,24.184,9,22,9
					c-0.215,0-0.42,0.014-0.628,0.042C23.211,9.296,24.728,10.643,25.393,12.507z"/>
			</g>
		</g>
		<g>
			<path style="fill:#004463;" d="M3.651,16.949c0.104,0.035,0.211,0.052,0.315,0.052c0.419,0,0.81-0.266,0.949-0.685
				C7.259,9.268,13.648,4.445,21,4.04v0.96c0,0.404,0.244,0.769,0.617,0.924C21.741,5.976,21.871,6.001,22,6.001
				c0.26,0,0.516-0.102,0.707-0.293l2-2c0.391-0.391,0.391-1.023,0-1.414l-2-2c-0.287-0.287-0.716-0.373-1.09-0.217
				C21.244,0.232,21,0.596,21,1.001v1.04C12.785,2.448,5.634,7.819,3.018,15.685C2.844,16.209,3.127,16.775,3.651,16.949z"/>
			<path style="fill:#004463;" d="M16.318,39.086C9.269,36.742,4.445,30.353,4.04,23H5c0.404,0,0.769-0.244,0.924-0.617
				c0.155-0.374,0.069-0.804-0.217-1.09l-2-2c-0.391-0.391-1.023-0.391-1.414,0l-2,2c-0.286,0.286-0.372,0.716-0.217,1.09
				C0.231,22.757,0.596,23,1,23h1.04c0.407,8.216,5.779,15.367,13.648,17.983c0.104,0.035,0.211,0.052,0.315,0.052
				c0.419,0,0.81-0.266,0.949-0.685C17.126,39.826,16.842,39.259,16.318,39.086z"/>
			<path style="fill:#004463;" d="M40.401,26.857c-0.526-0.17-1.089,0.121-1.258,0.646C36.849,34.658,30.435,39.553,23,39.96V39
				c0-0.404-0.244-0.769-0.617-0.924c-0.375-0.156-0.804-0.07-1.09,0.217l-2,2c-0.391,0.391-0.391,1.023,0,1.414l2,2
				C21.484,43.898,21.74,44,22,44c0.129,0,0.259-0.025,0.383-0.076C22.756,43.769,23,43.404,23,43v-1.04
				c8.308-0.409,15.486-5.86,18.048-13.845C41.217,27.589,40.927,27.026,40.401,26.857z"/>
			<path style="fill:#004463;" d="M43.924,21.618C43.769,21.244,43.404,21,43,21h-1.04c-0.407-8.216-5.779-15.367-13.648-17.983
				c-0.523-0.176-1.09,0.109-1.264,0.633c-0.174,0.524,0.109,1.09,0.633,1.264C34.731,7.259,39.555,13.648,39.96,21H39
				c-0.404,0-0.769,0.244-0.924,0.617c-0.155,0.374-0.069,0.804,0.217,1.09l2,2C40.488,24.903,40.744,25,41,25
				s0.512-0.098,0.707-0.293l2-2C43.993,22.421,44.079,21.992,43.924,21.618z"/>
		</g>
		<g>
			<path style="fill:#E1B597;" d="M25,14.449L25,14.449c-2.325-0.299-4.689-0.243-7,0.156v1c1.755-0.303,3.539-0.392,5.314-0.287
				c0.936,0.055,1.518,1.111,1.001,1.893C23.603,18.288,22.387,19,21,19c-0.848,0-1.632-0.269-2.279-0.72
				c0.785,1.126,2.13,1.835,3.632,1.705C24.452,19.804,26,18.147,26,15.813v-0.208v-1C25.667,14.547,25.335,14.492,25,14.449z"/>
		</g>
		<path style="fill:#004463;" d="M22,7c-3.674,0-6.682,2.975-6.997,6.92c-0.025,0.322,0.105,0.636,0.352,0.844
			c0.183,0.154,0.412,0.235,0.645,0.235V16c0,3.309,2.691,6,6,6s6-2.691,6-6v-1c0.233,0,0.462-0.082,0.645-0.236
			c0.247-0.208,0.377-0.522,0.352-0.844C28.682,9.975,25.674,7,22,7z M22,9c2.184,0,4.042,1.516,4.734,3.696
			c-1.561-0.296-3.147-0.445-4.734-0.445s-3.173,0.149-4.734,0.445C17.958,10.516,19.816,9,22,9z M22,20c-2.206,0-4-1.794-4-4
			v-1.395c2.643-0.456,5.357-0.456,8,0V16C26,18.206,24.206,20,22,20z"/>
	</g>
</g>
<g id="social">
</g>
<g id="like">
</g>
<g id="crown">
</g>
<g id="target">
</g>
<g id="images">
</g>
<g id="calendar">
</g>
<g id="newspaper">
</g>
<g id="pencil">
</g>
<g id="email">
</g>
<g id="rocket">
</g>
<g id="trophy">
</g>
<g id="shop">
</g>
<g id="support">
</g>
</svg>
