<?xml version="1.0" encoding="iso-8859-1"?>
<!-- Generator: Adobe Illustrator 21.0.0, SVG Export Plug-In . SVG Version: 6.00 Build 0)  -->
<svg version="1.1" xmlns="http://www.w3.org/2000/svg" xmlns:xlink="http://www.w3.org/1999/xlink" x="0px" y="0px"
	 viewBox="0 0 44 44" style="enable-background:new 0 0 44 44;" xml:space="preserve">
<g id="page_x5F_settings">
</g>
<g id="pc_x5F_report">
</g>
<g id="chat">
</g>
<g id="marketing">
</g>
<g id="analytics">
</g>
<g id="search_1_">
</g>
<g id="funnel">
</g>
<g id="tag">
</g>
<g id="eye_x5F_tracking">
</g>
<g id="report">
</g>
<g id="localisation">
</g>
<g id="mobile">
</g>
<g id="intenet">
</g>
<g id="pie_x5F_chart">
</g>
<g id="page_x5F_search">
</g>
<g id="code">
</g>
<g id="code_x5F_check">
</g>
<g id="link">
</g>
<g id="monetisation">
</g>
<g id="connection">
</g>
<g id="server">
</g>
<g id="white_x5F_hat">
	<g>
		<path style="fill:#EBEEF7;" d="M6.088,10.905c-0.264,1.449-0.397,2.931-0.397,4.405V21h30v-5.689c0-1.475-0.134-2.957-0.397-4.405
			L35.05,9.569C34.358,5.763,31.048,3,27.179,3h-0.515c-0.241,0-0.455,0.065-0.604,0.183C24.586,4.354,22.679,5,20.69,5
			s-3.896-0.646-5.37-1.817C15.172,3.065,14.958,3,14.717,3h-0.515c-3.869,0-7.179,2.763-7.871,6.569L6.088,10.905z"/>
		<g>
			<g>
				<path style="fill:#CCD9E4;" d="M13.32,3.183C14.795,4.354,16.702,5,18.69,5c0.337,0,0.67-0.025,1-0.062
					c-1.62-0.179-3.145-0.782-4.37-1.756C15.172,3.065,14.958,3,14.717,3h-0.516c-0.367,0-0.727,0.022-1.082,0.07
					C13.192,3.099,13.264,3.138,13.32,3.183z"/>
			</g>
			<g>
				<path style="fill:#CCD9E4;" d="M35.293,10.905l-0.242-1.336C34.358,5.763,31.048,3,27.18,3h-0.516
					c-0.151,0-0.311,0.034-0.431,0.081c3.389,0.46,6.191,3.042,6.818,6.488l0.242,1.336c0.264,1.452,0.397,2.934,0.397,4.405V21h2
					v-5.689C35.69,13.839,35.557,12.357,35.293,10.905z"/>
			</g>
		</g>
		<path style="fill:#EBEEF7;" d="M1.69,25h38c0.551,0,1-0.449,1-1s-0.449-1-1-1h-38c-0.551,0-1,0.449-1,1S1.139,25,1.69,25z"/>
		<g>
			<rect x="5.69" y="17" style="fill:#AFC3D7;" width="30" height="4"/>
			<path style="fill:#004463;" d="M39.69,21h-2v-5v-0.689c0-1.594-0.145-3.197-0.43-4.763l-0.243-1.336
				C36.153,4.453,32.015,1,27.179,1h-0.515c-0.691,0-1.347,0.219-1.848,0.617C23.694,2.509,22.229,3,20.69,3
				s-3.004-0.491-4.126-1.383C16.064,1.219,15.408,1,14.717,1h-0.515C9.366,1,5.228,4.453,4.363,9.211L4.12,10.547
				c-0.285,1.566-0.43,3.169-0.43,4.763V16v5h-2c-1.654,0-3,1.346-3,3s1.346,3,3,3h38c1.654,0,3-1.346,3-3S41.345,21,39.69,21z
				 M6.331,9.569C7.023,5.763,10.333,3,14.202,3h0.515c0.241,0,0.455,0.065,0.604,0.183C16.794,4.354,18.702,5,20.69,5
				s3.896-0.646,5.37-1.817C26.209,3.065,26.423,3,26.664,3h0.515c3.869,0,7.179,2.763,7.871,6.569l0.243,1.337
				c0.245,1.347,0.366,2.722,0.383,4.094H5.704c0.017-1.372,0.138-2.748,0.383-4.095L6.331,9.569z M5.69,17h30v4h-30V17z M39.69,25
				h-38c-0.551,0-1-0.449-1-1s0.449-1,1-1h38c0.551,0,1,0.449,1,1S40.242,25,39.69,25z"/>
		</g>
		<g>
			<path style="fill:#D3E2EC;" d="M20.69,13c-4.962,0-9,4.038-9,9s4.038,9,9,9s9-4.038,9-9S25.653,13,20.69,13z"/>
			<g>
				<path style="fill:#ACD6F2;" d="M15.796,27c1.262,1.236,2.988,2,4.894,2s3.632-0.764,4.894-2H15.796z"/>
			</g>
			<g>
				<path style="fill:#EF4C4E;" d="M40.69,39L40.69,39c0,0.64-0.254,1.254-0.707,1.707l-0.586,0.586
					C38.945,41.746,38.331,42,37.69,42l0,0c-0.64,0-1.254-0.254-1.707-0.707L28.69,34l4-4l7.293,7.293
					C40.436,37.746,40.69,38.36,40.69,39z"/>
				<path style="fill:#004463;" d="M40.69,36.586l-7.293-7.293c-0.391-0.391-1.023-0.391-1.414,0l-1.293,1.293l-1.552-1.552
					c1.592-1.908,2.552-4.36,2.552-7.034c0-6.065-4.935-11-11-11s-11,4.935-11,11s4.935,11,11,11c2.673,0,5.125-0.961,7.034-2.552
					L29.276,32l-1.293,1.293c-0.391,0.391-0.391,1.023,0,1.414L35.276,42c0.645,0.645,1.502,1,2.414,1s1.77-0.355,2.414-1
					l0.586-0.586c0.645-0.645,1-1.502,1-2.414S41.335,37.23,40.69,36.586z M11.69,22c0-4.962,4.038-9,9-9s9,4.038,9,9s-4.038,9-9,9
					S11.69,26.962,11.69,22z M39.276,40l-0.586,0.586c-0.526,0.526-1.474,0.526-2,0L30.104,34l2.586-2.586L39.276,38
					c0.263,0.263,0.414,0.628,0.414,1S39.54,39.737,39.276,40z"/>
			</g>
			<g>
				<path style="fill:#DB3440;" d="M39.276,38l-0.993-0.993c0.267,0.268,0.414,0.622,0.414,1s-0.147,0.732-0.414,1l-0.586,0.586
					c-0.535,0.533-1.465,0.533-2,0l0.993,0.993c0.55,0.55,1.45,0.55,2,0L39.276,40c0.267-0.268,0.414-0.622,0.414-1
					S39.543,38.268,39.276,38z"/>
			</g>
			<g>
				<path style="fill:#96BBD5;" d="M14.78,21H26.6c-0.28-1.667-1.242-3.101-2.596-4h-6.628C16.023,17.899,15.061,19.333,14.78,21z"
					/>
			</g>
			<g>
				<path style="fill:#79A5C1;" d="M16.69,24c0-3.314,2.686-6,6-6c1.144,0,2.209,0.326,3.119,0.881C24.755,17.156,22.86,16,20.69,16
					c-3.314,0-6,2.686-6,6c0,2.17,1.156,4.065,2.881,5.119C17.016,26.209,16.69,25.144,16.69,24z"/>
			</g>
			<g>
				<path style="fill:#D3E6F6;" d="M26.6,23H15.69v2h10.191C26.233,24.392,26.48,23.718,26.6,23z"/>
			</g>
			<g>
				<path style="fill:#A6C5D8;" d="M15.499,25h1.285c-0.056-0.326-0.094-0.658-0.094-1c0-0.341,0.035-0.674,0.09-1h-1.997
					C14.905,23.717,15.146,24.394,15.499,25z"/>
			</g>
			<path style="fill:#004362;" d="M20.69,14c-4.411,0-8,3.589-8,8s3.589,8,8,8s8-3.589,8-8S25.102,14,20.69,14z M15.502,25
				c-0.353-0.608-0.6-1.282-0.721-2H26.6c-0.121,0.718-0.369,1.392-0.721,2H15.502z M17.381,17H24c1.354,0.899,2.319,2.334,2.6,4
				H14.781C15.062,19.334,16.026,17.899,17.381,17z M17.381,27H24c-0.95,0.631-2.087,1-3.31,1S18.33,27.631,17.381,27z"/>
		</g>
		<g>
			<rect x="33.69" y="17" style="fill:#90ABC2;" width="2" height="4"/>
		</g>
	</g>
</g>
<g id="ppk">
</g>
<g id="page_x5F_test">
</g>
<g id="money">
</g>
<g id="page_x5F_quality">
</g>
<g id="page_x5F_speed">
</g>
<g id="money_x5F_bag">
</g>
<g id="trolley">
</g>
<g id="adaptive">
</g>
<g id="console">
</g>
<g id="briefcase">
</g>
<g id="cloud">
</g>
<g id="chess">
</g>
<g id="stopwatch">
</g>
<g id="test">
</g>
<g id="user">
</g>
<g id="social">
</g>
<g id="like">
</g>
<g id="crown">
</g>
<g id="target">
</g>
<g id="images">
</g>
<g id="calendar">
</g>
<g id="newspaper">
</g>
<g id="pencil">
</g>
<g id="email">
</g>
<g id="rocket">
</g>
<g id="trophy">
</g>
<g id="shop">
</g>
<g id="support">
</g>
</svg>
